<svg width="764" height="622" viewBox="0 0 764 622" fill="none" xmlns="http://www.w3.org/2000/svg">
<path d="M505.485 170.264C451.742 119.91 388.777 106.928 372.14 104.259C383.353 74.0335 400.67 29.1017 404.983 22.4531C406.376 22.2707 409.212 21.9723 413.392 21.9723C425.617 21.9723 451.775 24.509 489.627 41.5367C544.282 66.1248 558.929 93.7803 561.799 100.545L505.468 170.247L505.485 170.264Z" fill="white"/>
<path d="M413.392 25.2883C425.352 25.2883 450.979 27.7918 488.267 44.5708C537.714 66.8212 553.704 91.6746 557.917 100.097L505.12 165.422C473.355 136.507 439.103 120.54 415.432 112.134C398.63 106.166 384.895 103.115 376.651 101.639C389.042 68.3631 402.511 34.1254 407.039 25.5535C408.516 25.4209 410.639 25.2883 413.392 25.2883ZM413.392 18.6562C406.741 18.6562 403.324 19.3526 403.324 19.3526C399.442 20.6458 367.595 106.961 367.595 106.961C367.595 106.961 443.166 114.671 505.8 175.138L565.58 101.158C565.58 101.158 555.611 67.5672 491.004 38.5191C453.152 21.4914 426.762 18.6562 413.392 18.6562Z" fill="#A0C6F4"/>
<path d="M378.692 113.676C378.692 113.676 453.003 121.187 498.8 163.201" stroke="white" stroke-linecap="round" stroke-linejoin="round"/>
<path d="M442.868 110.045L470.585 56.1602L499.082 112.366L442.868 110.045Z" fill="#A0C6F4"/>
<path d="M448.259 109.283L475.976 55.3976L504.473 111.587L448.259 109.283Z" stroke="white" stroke-linecap="round" stroke-linejoin="round"/>
<path d="M422.233 15.3734C422.233 15.3734 505.551 22.8842 557.353 84.396" stroke="white" stroke-linecap="round" stroke-linejoin="round"/>
<path d="M464.813 254.159C460.235 250.793 457.232 248.538 457.232 248.538C458.493 246.847 478.547 225.492 490.158 208.282C490.158 208.282 466.67 255.518 464.813 254.142V254.159Z" fill="#2A1E17"/>
<path d="M180.689 98.5221C182.929 102.236 183.907 100.76 190.36 100.263C196.812 99.7656 205.985 104.474 209.22 112.416C212.437 120.358 211.459 121.585 209.717 122.58C207.975 123.574 195.568 125.067 195.071 127.537" stroke="#2A1E17" stroke-linecap="round" stroke-linejoin="round"/>
<path d="M347.839 502.179L342.067 492.413L321.548 526.584L326.939 530.729L347.839 502.179Z" fill="#F9865F"/>
<path d="M211.674 417.455C211.674 417.455 201.042 400.179 205.604 391.723L239.508 395.354L211.674 417.455Z" fill="#F9865F"/>
<path d="M211.674 417.455L213.698 422.114L207.428 446.52C206.632 449.587 207.66 452.853 210.065 454.926L241.067 409.115C244.02 404.771 243.34 398.919 239.491 395.337L232.558 388.904L211.658 417.438L211.674 417.455Z" fill="black"/>
<path d="M195.087 127.537C204.791 127.305 217.099 126.692 214.644 119.313C212.189 111.935 202.95 93.4818 182.033 99.0195C182.033 99.0195 174.652 105.171 183.874 116.23C193.097 127.288 195.087 127.521 195.087 127.521V127.537Z" fill="white"/>
<path d="M244.219 395.768C244.219 395.768 227.648 346.857 241.664 325.386C253.242 307.662 291.045 336.495 296.236 340.375L323.29 291.53C323.29 291.53 317.037 282.776 301.71 274.204C286.384 265.632 223.037 239.966 193.263 286.921C182.265 304.28 182.099 378.724 203.198 407.258L244.219 395.752V395.768Z" fill="#412B42"/>
<path d="M244.219 395.768C244.219 395.768 227.648 346.857 241.664 325.386C253.242 307.662 291.045 336.495 296.236 340.375" stroke="#2A1E17" stroke-linecap="round" stroke-linejoin="round"/>
<path d="M323.29 291.53C310.982 304.479 274.507 367.549 266.296 397.692C255.316 438.014 259.446 471.456 319.757 536.93L348.917 494.486C348.917 494.486 328.416 463.365 332.247 434.051C337.787 391.623 367.993 350.488 383.27 324.391L323.29 291.53Z" fill="#412B42"/>
<path d="M327.918 297.018L376.419 335.052L390.916 313.034L327.918 297.018Z" fill="#2A1E17"/>
<path d="M606.451 257.01C614.015 258.635 619.771 261.503 623.735 265.648C627.7 269.793 625.892 271.949 624.449 273.209C623.006 274.469 617.432 273.027 612.572 268.716C607.712 264.405 606.451 257.01 606.451 257.01Z" fill="#FF8A66"/>
<path d="M457.232 248.538C458.493 246.847 478.547 225.492 490.158 208.282C490.158 208.282 525.24 247.576 529.055 248.853C530.465 249.317 539.074 249.218 549.756 249.102C567.803 248.919 591.805 248.737 597.113 251.39C605.572 255.618 610.648 257.723 612.755 263.642C614.861 269.561 615.707 273.425 610.648 273.789C604.726 274.204 600.928 266.61 600.928 266.61C600.928 266.61 596.084 269.528 583.594 274.22C583.594 274.22 538.626 291.663 508.57 283.223C500.359 280.919 457.232 248.538 457.232 248.538Z" fill="#F9865F"/>
<path d="M184.654 91.575C180.789 93.0506 178.45 94.7915 180.689 98.522C182.929 102.253 183.907 100.76 190.36 100.263C196.812 99.7655 205.985 104.474 209.22 112.416C212.437 120.358 211.459 121.585 209.717 122.58C207.975 123.574 195.568 125.067 195.071 127.537C194.573 130.007 200.097 137.336 211.509 136.838L214.245 136.341C214.245 136.341 238.247 159.769 241.714 163.25C245.181 166.732 270.709 184.009 284.775 187.523C295.457 190.193 317.12 186.744 330.124 184.207C336.444 182.981 340.723 181.953 340.723 181.953C340.723 181.953 330.954 164.378 328.98 137.336C328.98 137.336 305.625 141.083 290.099 144.498C290.099 144.498 253.872 124.304 236.257 115.384C236.257 115.384 220.88 96.5324 213.682 94.062C206.483 91.5916 189.862 89.602 184.654 91.575Z" fill="#F9865F"/>
<path d="M330.141 184.224C336.46 182.997 340.74 181.969 340.74 181.969C340.74 181.969 328.93 167.08 326.939 140.055C326.939 140.055 321.598 145.808 323.257 161.112C325.347 180.361 330.124 184.207 330.124 184.207L330.141 184.224Z" fill="#2A1E17"/>
<path d="M326.375 137.021C326.375 137.021 326.707 170.048 335.565 183.843L338.733 182.566C338.733 182.566 296.999 231.361 283.514 263.245C281.308 268.467 370.149 325.187 383.27 324.392C383.27 324.392 426.563 258.353 441.358 238.789L457.266 251.108C457.266 251.108 488.466 219.523 490.142 208.298C490.142 208.298 460.002 171.64 435.337 160.896C410.672 150.169 388.644 131.765 362.154 132.279C339.231 132.71 326.359 137.021 326.359 137.021H326.375Z" fill="#9539DD"/>
<path d="M457.282 251.108L441.358 238.772L443.896 231.875L457.282 251.108Z" fill="#2A1E17"/>
<path d="M481.483 120.474C478.696 129.129 470.652 154.181 461.678 157.282C452.704 160.382 443.365 156.486 443.365 156.486L433.811 161.377C432.75 164.577 425.202 167.329 415.466 167.71C408.25 167.992 403.855 158.724 405.994 152.026C406.973 148.942 410.639 133.771 410.639 133.771C410.639 133.771 418.368 105.32 425.484 99.434C432.6 93.5481 439.285 87.7451 458.277 95.4051C487.371 107.16 481.483 120.457 481.483 120.457V120.474Z" fill="#F9865F"/>
<path d="M423.809 121.718C422.532 127.04 416.992 137.668 413.376 135.761C409.76 133.854 408.482 128.946 411.037 119.595C413.591 110.244 415.714 88.9555 422.946 85.1421C430.179 81.3287 433.38 85.7721 433.38 85.7721C433.38 85.7721 430.195 70.2366 439.55 68.1144C439.55 68.1144 442.735 66.6222 441.458 77.2666C441.458 77.2666 445.074 67.4844 456.785 68.761C468.495 70.0377 472.526 86.4187 472.526 86.4187C472.526 86.4187 473.372 81.9587 478.696 81.9587C484.021 81.9587 492.099 89.8342 490.191 98.5553C490.191 98.5553 503.809 94.2942 511.042 105.154C518.274 115.997 517.428 127.918 499.978 132.594C481.732 137.485 481.881 116.213 479.128 113.444C476.374 110.675 473.388 107.492 463.171 111.322C452.953 115.152 442.32 103.877 442.32 103.877C442.32 103.877 440.612 117.49 438.92 118.766C437.228 120.043 433.811 121.751 434.657 115.367C435.503 108.984 436.565 109.631 435.934 107.923C435.304 106.215 432.418 100.86 426.363 105.585C419.546 110.907 423.809 121.751 423.809 121.751V121.718Z" fill="#F68AFF"/>
<path d="M426.712 124.088C422.648 120.673 419.845 114.671 423.411 108.669C426.977 102.667 432.833 101.855 434.607 104.126C436.382 106.398 437.079 110.228 435.404 114.771" stroke="#2A1E33" stroke-linecap="round" stroke-linejoin="round"/>
<path d="M326.939 530.729L328.963 535.388L322.693 559.794C321.897 562.862 322.925 566.128 325.33 568.2L356.332 522.39C359.285 518.046 358.604 512.193 354.756 508.612L347.823 502.179L326.923 530.713L326.939 530.729Z" fill="black"/>
<path d="M433.396 85.7555C433.396 85.7555 431.025 78.0292 423.909 76.0065" stroke="#2A1E33" stroke-linecap="round" stroke-linejoin="round"/>
<path d="M282.552 260.907L368.441 140.983" stroke="#2A1E17" stroke-linecap="round" stroke-linejoin="round"/>
<path d="M403.838 149.373C400.736 153.402 399.326 170.695 413.575 171.822C427.823 172.95 436.913 166.699 436.913 166.699" stroke="#2A1E17" stroke-linecap="round" stroke-linejoin="round"/>
<path d="M213.682 94.0621C213.682 94.0621 223.501 107.044 225.044 111.67" stroke="#2A1E17" stroke-linecap="round" stroke-linejoin="round"/>
<path d="M581.305 268.202C581.305 268.202 587.857 273.607 600.928 266.61C605.672 264.074 602.288 258.088 596.3 259.58C590.312 261.073 583.18 258.834 583.18 258.834" stroke="#2A1E17" stroke-linecap="round" stroke-linejoin="round"/>
<path d="M608.707 257.756C608.707 257.756 614.994 265.101 614.828 269.462" stroke="#2A1E17" stroke-linecap="round" stroke-linejoin="round"/>
<path d="M516.084 256.961C516.084 256.961 521.773 249.384 529.055 248.87" stroke="#2A1E17" stroke-linecap="round" stroke-linejoin="round"/>
<path d="M276.149 156.751C276.149 156.751 279.467 146.405 290.116 144.499" stroke="#2A1E17" stroke-linecap="round" stroke-linejoin="round"/>
<path d="M304.994 313.73L292.305 338.004C292.305 338.004 250.439 408.833 264.638 454.578" stroke="#2A1E17" stroke-linecap="round" stroke-linejoin="round"/>
<path d="M342.084 394.973L383.27 324.392C383.27 324.392 437.261 246.117 442.785 235.075L461.844 199.843" stroke="#2A1E17" stroke-linecap="round" stroke-linejoin="round"/>
<path d="M288.291 268.434C288.291 268.434 361.54 321.822 383.27 324.392" stroke="#2A1E17" stroke-linecap="round" stroke-linejoin="round"/>
<path d="M326.375 137.021C326.375 137.021 326.309 170.529 335.349 184.257" stroke="#2A1E17" stroke-linecap="round" stroke-linejoin="round"/>
<path d="M487.803 202.993C485.497 216.804 454.927 245.802 454.927 245.802" stroke="#2A1E17" stroke-linecap="round" stroke-linejoin="round"/>
<path d="M259.628 374.96C262.028 374.96 263.974 373.016 263.974 370.616C263.974 368.217 262.028 366.272 259.628 366.272C257.228 366.272 255.282 368.217 255.282 370.616C255.282 373.016 257.228 374.96 259.628 374.96Z" fill="white"/>
<path d="M667.741 464.045L665.336 447.415L679.535 456.849L672.104 458.474L667.741 464.045Z" stroke="white" stroke-linecap="round" stroke-linejoin="round"/>
<path d="M197.094 180.146C170.206 156.436 125.769 215.577 288.374 403.81C382.175 512.409 455.872 522.141 465.858 484.355C483.772 416.576 419.082 399.449 443.15 425.994C478.149 464.592 577.706 472.749 651.884 436.721C725.084 401.174 680.082 345.979 675.537 342.762" stroke="white" stroke-linecap="round" stroke-linejoin="round"/>
<path d="M652.431 439.473C654.484 439.473 656.147 437.81 656.147 435.759C656.147 433.708 654.484 432.045 652.431 432.045C650.379 432.045 648.716 433.708 648.716 435.759C648.716 437.81 650.379 439.473 652.431 439.473Z" fill="white"/>
<path d="M589.765 471.887L718.714 399.234" stroke="white" stroke-linecap="round" stroke-linejoin="round"/>
<path d="M199.781 188.005C202.182 188.005 204.127 186.06 204.127 183.661C204.127 181.261 202.182 179.317 199.781 179.317C197.381 179.317 195.436 181.261 195.436 183.661C195.436 186.06 197.381 188.005 199.781 188.005Z" fill="white"/>
<path d="M310.7 103.231C315.858 103.231 320.039 99.0516 320.039 93.8963C320.039 88.741 315.858 84.5618 310.7 84.5618C305.543 84.5618 301.362 88.741 301.362 93.8963C301.362 99.0516 305.543 103.231 310.7 103.231Z" fill="#FF6D66"/>
<path d="M141.361 22.735C139.089 22.735 137.264 24.5754 137.264 26.8302C137.264 29.0851 139.105 30.9255 141.361 30.9255C143.617 30.9255 145.458 29.0851 145.458 26.8302C145.458 24.5754 143.617 22.735 141.361 22.735Z" fill="#A0C6F4"/>
<path d="M691.047 532.039C693.309 532.039 695.144 530.206 695.144 527.944C695.144 525.682 693.309 523.849 691.047 523.849C688.784 523.849 686.95 525.682 686.95 527.944C686.95 530.206 688.784 532.039 691.047 532.039Z" fill="#FAD8B0"/>
<path d="M617.747 342.745L573.642 322.054C570.076 320.379 570.142 315.306 573.741 313.714L655.782 277.636C656.943 277.122 658.27 277.122 659.431 277.636L715.795 301.809L617.747 342.745Z" fill="#2A1E33"/>
<path d="M615.027 274.768C615.143 293.006 617.764 342.762 617.764 342.762L715.811 301.826L713.605 232.605C713.473 228.36 709.06 225.608 705.179 227.382L620.75 265.831C617.233 267.423 614.994 270.921 615.011 274.784L615.027 274.768Z" fill="#C6CBCB"/>
<path d="M617.747 342.746L715.795 301.81L713.589 232.588C713.589 232.588 712.942 225.028 705.162 227.365" stroke="#2A1E17" stroke-linecap="round" stroke-linejoin="round"/>
<path d="M665.204 292.989L671.838 277.354" stroke="#2A1E17" stroke-linecap="round" stroke-linejoin="round"/>
<path d="M671.838 292.989L678.457 277.354" stroke="#2A1E17" stroke-linecap="round" stroke-linejoin="round"/>
<path d="M159.043 463.597C161.306 463.597 163.14 461.764 163.14 459.502C163.14 457.24 161.306 455.407 159.043 455.407C156.78 455.407 154.946 457.24 154.946 459.502C154.946 461.764 156.78 463.597 159.043 463.597Z" fill="#FF6D66"/>
<path d="M504.937 485.533C508.089 485.533 510.643 482.979 510.643 479.829C510.643 476.679 508.089 474.125 504.937 474.125C501.786 474.125 499.231 476.679 499.231 479.829C499.231 482.979 501.786 485.533 504.937 485.533Z" fill="#FF6D66"/>
<path d="M201.556 520.301C208.224 523.501 227.648 531.575 253.358 531.409C254.768 531.409 255.846 532.636 255.68 534.046L252.098 562.447C251.965 563.459 251.202 564.271 250.207 564.453C242.941 565.813 213.681 569.825 191.786 551.272C191.106 550.692 190.824 549.763 191.056 548.901L198.288 521.826C198.67 520.417 200.229 519.687 201.556 520.317V520.301Z" fill="#FFF7DC"/>
<path d="M204.127 528.657C204.127 528.657 216.767 546.414 221.279 548.967C225.79 551.504 250.14 537.013 250.14 537.013" stroke="#2A1E17" stroke-linecap="round" stroke-linejoin="round"/>
<path d="M233.205 546.481L246.491 560.126" stroke="#2A1E17" stroke-linecap="round" stroke-linejoin="round"/>
<path d="M214.743 543.844L199.217 548.072" stroke="#2A1E17" stroke-linecap="round" stroke-linejoin="round"/>
<path d="M608.359 184.406H593.513V199.246H608.359V184.406Z" fill="#FFE1C0"/>
<path d="M595.52 384.527L599.933 392.154L604.345 399.797H595.52H586.696L591.108 392.154L595.52 384.527Z" fill="#A0C6F4"/>
<path d="M238.795 46.1625L239.939 11.4937C239.823 8.26064 241.133 7.23269 243.124 6.78503C252.545 4.69595 281.192 -1.68736 312.343 7.53112C316.373 8.72488 316.241 10.8471 316.174 12.7704L315.063 45.8309C314.98 48.2516 312.442 50.0091 309.606 49.5946C300.516 48.2682 288.142 47.8537 275.569 47.9532C262.581 48.0692 251.019 49.0309 242.925 50.5894C239.84 51.1863 238.679 48.8816 238.761 46.1791L238.795 46.1625Z" stroke="white" stroke-linecap="round" stroke-linejoin="round"/>
<path d="M249.278 41.0891L267.408 19.8667L287.478 39.6632C280.561 37.4083 249.278 41.0725 249.278 41.0725V41.0891Z" stroke="white" stroke-linecap="round" stroke-linejoin="round"/>
<path d="M278.538 29.6986L293.184 17.96L305.542 26.7805L306.006 40.5585L287.495 39.6798" stroke="white" stroke-linecap="round" stroke-linejoin="round"/>
<path d="M257.132 18.3044C257.301 16.6372 255.849 15.1253 253.889 14.9273C251.93 14.7294 250.205 15.9204 250.036 17.5876C249.868 19.2549 251.319 20.7669 253.279 20.9648C255.239 21.1628 256.964 19.9716 257.132 18.3044Z" stroke="white" stroke-linecap="round" stroke-linejoin="round"/>
<path d="M589.45 496.641L601.608 519.09C602.885 521.097 602.437 522.241 601.326 523.269C596.118 528.093 580.293 542.8 557.071 548.52C554.069 549.266 553.356 547.857 552.692 546.613L541.098 525.208C540.252 523.633 541.197 521.577 543.154 520.782C549.424 518.245 557.436 513.917 565.381 509.176C573.592 504.284 580.575 499.377 585.137 495.381C586.879 493.856 588.471 494.884 589.416 496.641H589.45Z" stroke="white" stroke-linecap="round" stroke-linejoin="round"/>
<path d="M584.672 503.754L581.04 523.965L560.919 518.842C566.161 517.698 584.656 503.737 584.656 503.737L584.672 503.754Z" stroke="white" stroke-linecap="round" stroke-linejoin="round"/>
<path d="M570.324 521.859L565.381 534.759L554.251 533.747L548.827 525.175L560.936 518.842" stroke="white" stroke-linecap="round" stroke-linejoin="round"/>
<path d="M591.433 522.207C592.749 521.606 593.403 520.213 592.892 519.097C592.382 517.981 590.901 517.564 589.585 518.166C588.268 518.767 587.615 520.159 588.125 521.275C588.635 522.391 590.116 522.808 591.433 522.207Z" stroke="white" stroke-linecap="round" stroke-linejoin="round"/>
<path d="M530.233 113.345L579.663 151.147C580.741 151.976 582.3 151.76 583.113 150.666L590.577 140.552C591.357 139.491 591.158 138.016 590.146 137.203L541.429 98.2402C540.335 97.3615 538.742 97.5936 537.929 98.7211L529.769 109.995C528.989 111.073 529.205 112.565 530.266 113.361L530.233 113.345Z" fill="white" stroke="white" stroke-linecap="round" stroke-linejoin="round"/>
<path d="M533.882 111.653L545.875 120.06L552.941 111.62L540.948 101.623L533.882 111.653Z" fill="#FF7DB2"/>
<path d="M550.387 123.342L562.379 132.859L568.815 124.951L556.739 115.152L550.387 123.342Z" fill="#02D3FF"/>
<path d="M566.426 136.507L578.402 144.913L584.108 137.585L572.763 128.084L566.426 136.507Z" fill="#3D40F4"/>
<path d="M628.844 60.4876L640.107 155.093C640.356 157.166 642.263 158.641 644.32 158.359L663.396 155.756C665.386 155.491 666.796 153.684 666.613 151.694L657.374 56.6245C657.175 54.5022 655.218 52.9768 653.111 53.2919L632.029 56.3757C630.022 56.6742 628.612 58.498 628.861 60.5207L628.844 60.4876Z" fill="white" stroke="white" stroke-linecap="round" stroke-linejoin="round"/>
<path d="M634.6 62.6927L638.166 84.827L654.986 83.5669L653.161 59.7415L634.6 62.6927Z" fill="#3D40F4"/>
<path d="M639.394 93.2662L641.749 116.594L657.308 115.202L655.168 91.4922L639.394 93.2662Z" fill="#FF7DB2"/>
<path d="M642.048 124.934L645.614 147.068L659.763 145.493L658.071 122.895L642.048 124.934Z" fill="#02D3FF"/>
<path d="M606.418 75.7081L637.602 167.346C638.133 168.921 639.858 169.75 641.417 169.186L660.957 162.156C662.467 161.609 663.263 159.984 662.782 158.459L633.489 65.9259C632.975 64.301 631.216 63.4389 629.624 64.0358L608.193 71.9776C606.684 72.5413 605.888 74.1993 606.418 75.7247V75.7081Z" fill="white" stroke="white" stroke-linecap="round" stroke-linejoin="round"/>
<path d="M612.987 78.394L621.081 99.3013L637.271 94.576L630.536 71.6625L612.987 78.394Z" fill="#3D40F4"/>
<path d="M624.034 107.31L631.2 129.643L646.128 125.05L639.095 102.302L624.034 107.31Z" fill="#FF7DB2"/>
<path d="M633.223 137.734L641.318 158.641L654.836 154.165L648.484 132.412L633.223 137.734Z" fill="#02D3FF"/>
<path fill-rule="evenodd" clip-rule="evenodd" d="M399.31 203.225L358.837 218.329C358.223 218.611 357.676 219.026 357.244 219.54C355.221 221.844 355.785 225.591 358.621 226.851L405.165 247.775C407.968 249.035 411.103 247.046 411.601 244.078C412.032 236.783 412.463 229.521 412.911 222.259L412.961 220.932C413.011 220.037 412.314 219.258 411.402 219.208L405.032 218.86C404.269 218.81 403.589 219.291 403.39 219.987C403.39 219.987 403.374 220.054 403.39 220.103L402.461 236.086L373.55 223.088L413.807 208C414.57 207.718 415.25 207.254 415.764 206.64C417.921 204.12 417.174 200.788 414.271 199.362L413.774 199.096C398.812 192.116 382.357 185.003 366.865 178.139C364.078 176.929 360.927 178.869 360.412 181.853C359.998 189.115 359.55 196.41 359.135 203.672L359.052 204.982C358.986 205.894 359.699 206.657 360.595 206.74L366.981 207.121C367.744 207.171 368.424 206.657 368.623 205.994H368.64C368.64 205.994 368.64 205.878 368.64 205.861H368.623L369.552 189.861L399.293 203.241L399.31 203.225ZM412.712 199.511C412.579 199.561 412.463 199.61 412.331 199.677C412.463 199.627 412.579 199.577 412.712 199.511Z" fill="#FDFDFD"/>
<path d="M369.22 196.361H211.724C206.704 196.361 202.634 200.429 202.634 205.447V226.752C202.634 231.77 206.704 235.838 211.724 235.838H369.22C374.241 235.838 378.31 231.77 378.31 226.752V205.447C378.31 200.429 374.241 196.361 369.22 196.361Z" fill="#7595EC"/>
<path d="M310.203 207.983H224.347C222.689 207.983 221.345 209.327 221.345 210.984C221.345 212.642 222.689 213.985 224.347 213.985H310.203C311.861 213.985 313.205 212.642 313.205 210.984C313.205 209.327 311.861 207.983 310.203 207.983Z" fill="white"/>
<path d="M222.207 221.778H368.159" stroke="#2A1E17" stroke-linecap="round" stroke-linejoin="round"/>
<path d="M147.55 122.106L150.033 124.823C151.085 125.974 151.004 127.754 149.853 128.806L145.787 132.518C144.636 133.569 142.855 133.489 141.803 132.338L139.32 129.62L147.55 122.106Z" fill="#91BA83"/>
<path d="M125.164 116.799L136.876 129.616C137.482 130.278 138.51 130.325 139.173 129.72L147.268 122.328C147.931 121.723 147.978 120.695 147.372 120.033L135.659 107.216C135.054 106.553 134.026 106.507 133.363 107.112L125.267 114.503C124.605 115.108 124.558 116.136 125.164 116.799Z" stroke="white" stroke-linecap="round" stroke-linejoin="round"/>
<path d="M112.947 175.039H98.2341V188.469H112.947V175.039Z" fill="#FF6D66"/>
<path d="M98.2341 166.401V175.039H89.4263" stroke="white" stroke-linecap="round" stroke-linejoin="round"/>
<path d="M597.71 23.3816H582.997V36.8114H597.71V23.3816Z" fill="#FAD8B0"/>
<path d="M582.997 14.7434V23.3816H574.189" stroke="white" stroke-linecap="round" stroke-linejoin="round"/>
<path d="M184.753 106.398C32.2168 43.1947 -85.2212 164.925 202.319 351.317C224.961 365.991 259.678 371.147 259.678 371.147" stroke="white" stroke-linecap="round" stroke-linejoin="round"/>
<path d="M44.4582 114.986C46.8583 114.986 48.804 113.041 48.804 110.642C48.804 108.243 46.8583 106.298 44.4582 106.298C42.058 106.298 40.1123 108.243 40.1123 110.642C40.1123 113.041 42.058 114.986 44.4582 114.986Z" fill="white"/>
<path d="M16.774 86.7836L21.5346 82.2075L32.4822 88.4748L37.9725 105.436L21.1862 98.4062L16.774 86.7836Z" stroke="white" stroke-linecap="round" stroke-linejoin="round"/>
<path d="M21.5346 82.2075L16.774 86.7836L14.1035 83.5505L18.6816 79.1733L21.5346 82.2075Z" stroke="white" stroke-linecap="round" stroke-linejoin="round"/>
<path d="M37.9725 105.436L27.0581 93.4487" stroke="white" stroke-linecap="round" stroke-linejoin="round"/>
<path d="M64.4293 409.812L76.2892 470.876C76.5546 472.219 77.8649 473.081 79.1919 472.799L91.4831 470.196C92.7603 469.931 93.6063 468.687 93.3741 467.394L82.8079 405.915C82.5757 404.539 81.2322 403.644 79.872 403.942L66.287 406.96C64.9932 407.242 64.1639 408.502 64.4127 409.812H64.4293Z" fill="white" stroke="white" stroke-linecap="round" stroke-linejoin="round"/>
<path d="M68.2775 410.989L71.6613 425.215L82.5591 423.606L80.2203 408.17L68.2775 410.989Z" fill="#FF7DB2"/>
<path d="M72.8556 430.669L75.5095 445.741L85.578 444.099L83.0568 428.746L72.8556 430.669Z" fill="#02D3FF"/>
<path d="M76.1067 451.162L79.4905 465.405L88.6301 463.697L86.4405 449.073L76.1067 451.162Z" fill="#3D40F4"/>
<path d="M403.938 562.878L454.048 549.465L455.955 554.886L405.281 568.034L403.938 562.878Z" stroke="white" stroke-linecap="round" stroke-linejoin="round"/>
<path d="M396.987 555.865L398.431 560.408" stroke="white" stroke-linecap="round" stroke-linejoin="round"/>
<path d="M395.577 558.833L399.807 557.374" stroke="white" stroke-linecap="round" stroke-linejoin="round"/>
<path d="M394.549 573.224L397.286 581.813" stroke="white" stroke-linecap="round" stroke-linejoin="round"/>
<path d="M392.227 578.679L399.758 576.275" stroke="white" stroke-linecap="round" stroke-linejoin="round"/>
<path d="M383.104 559.081L386.654 570.439" stroke="white" stroke-linecap="round" stroke-linejoin="round"/>
<path d="M379.571 566.144L390.12 562.779" stroke="white" stroke-linecap="round" stroke-linejoin="round"/>
<path d="M38.5863 18.7723L6.87141 4.48039L8.18182 0.849365L40.0792 15.5227L38.5863 18.7723Z" stroke="white" stroke-width="0.67" stroke-linecap="round" stroke-linejoin="round"/>
<path d="M39.2166 25.3712L40.3943 22.3868" stroke="white" stroke-width="0.67" stroke-linecap="round" stroke-linejoin="round"/>
<path d="M41.2071 24.4261L38.4038 23.3816" stroke="white" stroke-width="0.67" stroke-linecap="round" stroke-linejoin="round"/>
<path d="M47.8586 17.3797L50.0813 11.7756" stroke="white" stroke-width="0.67" stroke-linecap="round" stroke-linejoin="round"/>
<path d="M51.3751 15.5393L46.4487 13.5995" stroke="white" stroke-width="0.67" stroke-linecap="round" stroke-linejoin="round"/>
<path d="M47.7922 29.5991L50.7614 22.1879" stroke="white" stroke-width="0.67" stroke-linecap="round" stroke-linejoin="round"/>
<path d="M52.6191 27.4271L45.7188 24.6914" stroke="white" stroke-width="0.67" stroke-linecap="round" stroke-linejoin="round"/>
<path d="M157.086 286.457C134.743 270.374 112.781 245.371 122.402 219.705C122.402 219.705 137.811 209.442 162.211 222.275L186.611 235.108L157.069 286.457H157.086Z" fill="#FAD8B0"/>
<path d="M146.951 393.613C136.899 388.855 93.9546 366.522 86.3079 328.338C79.7061 295.344 104.952 250.876 117.591 231.229C116.779 257.309 142.987 279.377 155.626 288.479C168.431 297.698 177.853 302.208 190.841 307.082L146.951 393.613Z" fill="white"/>
<path d="M115.667 238.972C118.404 256.298 131.641 274.27 154.166 290.486C166.325 299.24 175.481 303.816 187.374 308.409L145.84 390.297C133.183 383.98 95.7129 362.609 88.7628 327.84C82.9739 298.875 102.613 260.459 115.684 238.972M122.418 219.689C122.418 219.689 74.8959 283.87 83.8862 328.802C92.8765 373.734 148.095 396.846 148.095 396.846L194.324 305.706C179.877 300.417 170.488 296.106 157.086 286.457C134.743 270.374 112.781 245.371 122.402 219.706L122.418 219.689Z" fill="#FAD8B0"/>
<path d="M109.912 256.994C109.912 256.994 112.682 282.776 138.475 296.587" stroke="#2A1E17" stroke-linecap="round" stroke-linejoin="round"/>
<path d="M152.292 305.805L178.085 319.617" stroke="#2A1E17" stroke-linecap="round" stroke-linejoin="round"/>
<path d="M113.594 293.835C113.594 293.835 121.888 312.255 148.61 324.226" stroke="#2A1E17" stroke-linecap="round" stroke-linejoin="round"/>
<path d="M92.3954 296.587C92.3954 296.587 93.3243 315.919 106.213 322.369" stroke="#2A1E17" stroke-linecap="round" stroke-linejoin="round"/>
<path d="M121.888 229.372C121.888 229.372 119.499 254.208 157.086 286.457" stroke="#2A1E17" stroke-linecap="round" stroke-linejoin="round"/>
<path d="M135.705 233.981C135.705 233.981 147.681 233.052 165.18 245.952" stroke="#2A1E17" stroke-linecap="round" stroke-linejoin="round"/>
<path d="M79.3744 313.266C78.6114 325.585 80.1374 370.235 144.828 398.703" stroke="#2A1E17" stroke-linecap="round" stroke-linejoin="round"/>
<path d="M492.447 288.429L465.012 343.392C465.012 343.392 483.623 350.24 469.076 371.562C469.076 371.562 503.478 385.82 525.987 348.781C548.496 311.741 492.464 288.413 492.464 288.413L492.447 288.429Z" fill="#91BA83"/>
<path d="M429.648 456.418C415.764 456.418 401.118 450.748 386.056 439.573L437.394 354.583L467.931 373.8L468.13 373.883C468.412 373.999 475.213 376.768 484.8 376.768C492.514 376.768 502.25 374.96 511.722 368.262L474.201 432.427C474.118 432.559 457.962 456.434 429.648 456.434V456.418Z" fill="white"/>
<path d="M438.223 358.016L466.422 375.773L466.77 376.005L467.152 376.171C467.45 376.303 474.699 379.255 484.784 379.255C490.672 379.255 497.672 378.26 504.871 375.043L472.144 431.017C471.05 432.592 455.706 453.931 429.664 453.931C416.876 453.931 403.34 448.874 389.39 438.893L438.24 358.016M526.003 348.781C513.281 369.704 496.776 374.247 484.817 374.247C475.611 374.247 469.092 371.545 469.092 371.545L436.598 351.085L382.805 440.169C400.819 454.047 416.527 458.872 429.681 458.872C459.737 458.872 476.374 433.637 476.374 433.637L526.003 348.764V348.781Z" fill="#96BD89"/>
<path d="M465.012 343.392C465.012 343.392 485.48 350.621 469.076 371.561" stroke="#2A1E17" stroke-linecap="round" stroke-linejoin="round"/>
<path d="M435.934 349.195C435.934 349.195 463.817 374.712 479.244 374.546C494.67 374.38 512.767 370.699 523.449 352.296" stroke="#2A1E17" stroke-linecap="round" stroke-linejoin="round"/>
<path d="M439.368 382.222C439.368 382.222 458.51 399.2 479.891 393.745" stroke="#2A1E17" stroke-linecap="round" stroke-linejoin="round"/>
<path d="M459.455 407.606C459.455 407.606 469.49 415.134 483.523 408.021" stroke="#2A1E17" stroke-linecap="round" stroke-linejoin="round"/>
<path d="M413.276 418.068C413.276 418.068 436.432 441.098 472.907 425.911" stroke="#2A1E17" stroke-linecap="round" stroke-linejoin="round"/>
<path d="M425.882 395.603C425.882 395.603 435.337 402.351 441.259 404.506" stroke="#2A1E17" stroke-linecap="round" stroke-linejoin="round"/>
<path d="M497.158 304.379C497.158 304.379 518.307 311.293 520.845 339.181" stroke="#2A1E17" stroke-linecap="round" stroke-linejoin="round"/>
<path d="M507.79 338.849C507.79 338.849 517.527 353.904 501.073 368.975" stroke="#2A1E17" stroke-linecap="round" stroke-linejoin="round"/>
<path d="M384.746 444.397C384.746 444.397 437.842 489.86 476.391 436.704" stroke="#2A1E17" stroke-linecap="round" stroke-linejoin="round"/>
<path d="M1.43079 271.269H13.8049" stroke="#FF6D66" stroke-linecap="round" stroke-linejoin="round"/>
<path d="M691.047 122.447H703.437" stroke="#FF6D66" stroke-linecap="round" stroke-linejoin="round"/>
<path d="M359.069 37.5409H371.443" stroke="#FAD8B0" stroke-miterlimit="10"/>
<path d="M714.683 186.628L726.875 188.817" stroke="#FAD8B0" stroke-miterlimit="10"/>
<path d="M228.394 495.381H240.769" stroke="#A0C6F4" stroke-linecap="round" stroke-linejoin="round"/>
<path d="M1037.9 456.766C1037.9 456.766 1072.06 355.114 919.354 415.084C760.597 477.441 697.2 608.175 723.209 618.487C749.218 628.8 787.949 605.522 787.949 605.522" stroke="white" stroke-linecap="round" stroke-linejoin="round"/>
</svg>
