<svg width="183" height="192" viewBox="0 0 183 192" fill="none" xmlns="http://www.w3.org/2000/svg">
<g style="mix-blend-mode:multiply" opacity="0.7">
<path d="M178.731 149.257L84.5536 94.785C82.0913 93.3581 78.861 92.6333 75.6081 92.6106H64.3358C60.9473 92.5653 57.5136 93.2901 54.9158 94.785L4.78904 123.844C-0.225896 126.743 -0.248486 131.477 4.72127 134.376L98.8981 188.848C101.451 190.343 104.817 191.045 108.16 191.023H119.568C122.821 191.023 126.051 190.275 128.536 188.848L178.685 159.812C183.7 156.913 183.745 152.202 178.753 149.28L178.731 149.257Z" fill="#50197C"/>
</g>
<path d="M171.457 151.952L116.473 183.775C115.592 184.273 114.53 184.273 113.649 183.775L10.7302 124.184C8.85521 123.097 6.50587 120.47 9.37478 117.208L60.4277 87.3107C63.7936 85.2723 68.7182 84.0039 72.6036 84.5022C74.3205 84.7287 76.4891 85.159 77.483 85.7253L173.941 141.443C178.008 143.799 175.5 149.597 171.434 151.952H171.457Z" fill="#2F0C3A"/>
<path d="M182.977 148.985C182.977 150.91 181.712 152.813 179.205 154.285L129.056 183.322C124.041 186.221 115.931 186.244 110.916 183.322L11.2497 125.702C8.76485 124.252 7.52241 122.372 7.52241 120.469V124.999C7.545 126.902 8.78744 128.782 11.2723 130.231L110.939 187.874C115.931 190.774 124.041 190.774 129.078 187.874L179.227 158.838C181.758 157.366 183.023 155.463 183 153.538V149.008L182.977 148.985Z" fill="url(#paint0_linear_100_657)"/>
<path d="M179.25 143.776L79.5839 86.1329C74.5915 83.2337 66.4818 83.2337 61.4443 86.1329L11.2949 115.17C6.27997 118.069 6.25738 122.802 11.2271 125.702L110.893 183.345C115.886 186.244 123.995 186.244 129.033 183.345L179.182 154.308C184.197 151.409 184.242 146.698 179.25 143.776ZM109.357 180.604L10.4591 123.369C8.08716 122.01 8.08716 118.567 10.4591 117.208L21.9121 110.572L31.0836 109.507L51.9566 97.4123L55.4806 91.1384L62.5512 87.0388C67.5887 84.117 73.8009 84.117 78.8384 87.0388L174.28 142.281C175.094 142.757 175.094 143.934 174.28 144.387L111.774 180.581C111.029 181.012 110.103 181.012 109.357 180.581V180.604Z" fill="#412B42"/>
<path d="M156.163 162.213L153.859 160.876C152.707 160.219 150.787 160.287 149.454 161.035L141.209 165.814C140.78 166.063 140.441 166.38 140.238 166.72C139.786 167.49 140.057 168.351 140.915 168.849L143.219 170.185C144.371 170.842 146.292 170.774 147.624 170.027L155.87 165.248C156.299 164.999 156.638 164.681 156.841 164.342C157.293 163.572 157.022 162.711 156.141 162.213H156.163Z" fill="#342135"/>
<path d="M156.163 163.073L153.859 161.737C152.707 161.08 150.787 161.148 149.454 161.895L141.209 166.674C140.78 166.924 140.441 167.241 140.238 167.58C140.17 167.694 140.147 167.807 140.125 167.943C140.26 168.305 140.531 168.622 140.938 168.871L143.242 170.208C144.394 170.865 146.314 170.797 147.647 170.049L155.892 165.27C156.321 165.021 156.66 164.704 156.864 164.364C156.931 164.251 156.954 164.138 156.977 164.002C156.841 163.639 156.57 163.322 156.163 163.073Z" fill="#412B42"/>
<path d="M44.0049 98.2502L33.8169 104.139C33.32 104.434 33.2748 104.864 33.704 105.113C34.1332 105.362 34.8787 105.34 35.3756 105.045L45.5636 99.1562C46.0606 98.8618 46.1058 98.4314 45.6766 98.1823C45.2474 97.9331 44.5019 97.9558 44.0049 98.2502Z" fill="#191414"/>
<path d="M29.1183 138.023C29.0279 137.774 28.8924 137.525 28.7342 137.298C28.5535 137.049 28.3276 136.845 28.1017 136.709L19.8113 131.908C19.495 131.726 19.2239 131.704 19.0206 131.817L18.2074 132.293C18.4107 132.179 18.6818 132.202 18.998 132.361L27.2885 137.162C27.5144 137.298 27.7403 137.502 27.921 137.751C28.0791 137.978 28.2147 138.227 28.305 138.476C28.3728 138.68 28.418 138.906 28.418 139.11V139.473C28.418 139.835 28.2824 140.084 28.0791 140.22L28.8924 139.744C29.0957 139.631 29.2312 139.359 29.2312 139.02V138.657C29.2312 138.453 29.186 138.227 29.1183 138.023Z" fill="url(#paint1_linear_100_657)"/>
<path d="M27.2885 137.185L18.998 132.383C18.3655 132.021 17.8685 132.315 17.8685 133.04V133.403C17.8685 134.127 18.3655 135.011 18.998 135.35L27.2885 140.152C27.8984 140.515 28.418 140.22 28.418 139.495V139.133C28.418 138.408 27.921 137.525 27.2885 137.185Z" fill="#8B3DCE"/>
<path d="M41.746 145.339C41.6556 145.09 41.5201 144.841 41.3619 144.614C41.1812 144.365 40.9553 144.161 40.7294 144.025L32.439 139.224C32.1227 139.042 31.8516 139.02 31.6483 139.133L30.8351 139.609C31.0384 139.495 31.3095 139.518 31.6257 139.677L39.9162 144.478C40.1421 144.614 40.368 144.818 40.5487 145.067C40.7068 145.294 40.8424 145.543 40.9327 145.792C41.0005 145.996 41.0457 146.222 41.0457 146.426V146.788C41.0457 147.151 40.9101 147.4 40.7068 147.513L41.5201 147.038C41.7234 146.924 41.8589 146.653 41.8589 146.313V145.95C41.8589 145.747 41.8137 145.52 41.746 145.316V145.339Z" fill="url(#paint2_linear_100_657)"/>
<path d="M39.9162 144.501L31.6257 139.699C30.9932 139.337 30.4962 139.631 30.4962 140.356V140.719C30.4962 141.443 30.9932 142.327 31.6257 142.666L39.9162 147.468C40.5261 147.83 41.0457 147.536 41.0457 146.811V146.449C41.0457 145.724 40.5487 144.841 39.9162 144.501Z" fill="#8B3DCE"/>
<path d="M29.9089 108.329C29.3442 108.647 28.4406 108.647 27.8758 108.329C27.3111 108.012 27.3111 107.469 27.8758 107.152C28.4406 106.835 29.3442 106.835 29.9089 107.152C30.4736 107.469 30.4736 108.012 29.9089 108.329Z" fill="#191414"/>
<path opacity="0.1" d="M28.1695 108.193C28.5987 108.42 29.2764 108.397 29.683 108.148C30.0896 107.899 30.0896 107.514 29.6604 107.265C29.2312 107.038 28.5535 107.061 28.1469 107.31C27.7403 107.559 27.7403 107.944 28.1695 108.193Z" fill="#CFD5D5"/>
<path opacity="0.1" d="M28.4857 107.944C28.7116 108.08 29.0731 108.058 29.299 107.944C29.5249 107.808 29.5249 107.605 29.299 107.469C29.0731 107.333 28.7116 107.355 28.4857 107.469C28.2598 107.605 28.2598 107.808 28.4857 107.944Z" fill="#CFD5D5"/>
<g style="mix-blend-mode:screen" opacity="0.2">
<path d="M28.7342 107.786C28.7342 107.786 28.9601 107.831 29.0279 107.786C29.1183 107.74 29.1183 107.65 29.0279 107.605C28.9375 107.559 28.802 107.559 28.7342 107.605C28.6665 107.65 28.6439 107.74 28.7342 107.786Z" fill="#CFD5D5"/>
</g>
<path d="M155.87 171.431L149.996 174.828C149.319 175.213 148.754 174.987 148.754 174.307C148.754 173.628 149.319 172.745 149.996 172.337L155.87 168.94C156.547 168.554 157.112 168.781 157.112 169.46C157.112 170.14 156.547 171.023 155.87 171.431Z" fill="#342135"/>
<mask id="mask0_100_657" style="mask-type:luminance" maskUnits="userSpaceOnUse" x="148" y="168" width="10" height="8">
<path d="M155.87 171.431L149.996 174.828C149.319 175.213 148.754 174.987 148.754 174.307C148.754 173.628 149.319 172.745 149.996 172.337L155.87 168.94C156.547 168.554 157.112 168.781 157.112 169.46C157.112 170.14 156.547 171.023 155.87 171.431Z" fill="white"/>
</mask>
<g mask="url(#mask0_100_657)">
<path d="M147.76 172.36L146.947 172.835L149.838 174.511L150.651 174.036L147.76 172.36ZM149.567 171.318L148.754 171.793L151.645 173.469L152.459 172.994L149.567 171.318ZM151.374 170.276L150.561 170.751L153.453 172.427L154.266 171.952L151.374 170.276ZM153.181 169.234L152.368 169.71L155.26 171.386L156.073 170.91L153.181 169.234Z" fill="#98782E"/>
</g>
<g opacity="0.4">
<g style="mix-blend-mode:screen">
<path d="M170.35 131.523L76.715 77.3223L15.587 112.701L109.222 166.901C110.012 167.354 111.277 167.354 112.045 166.901L170.35 133.153C171.14 132.7 171.14 131.976 170.35 131.523Z" fill="#7B38D4"/>
</g>
<path d="M78.477 78.3188L17.349 113.697L10.8431 109.938C10.0525 109.485 10.0525 108.76 10.8431 108.307L69.1474 74.559C69.938 74.106 71.2031 74.106 71.9711 74.559L78.477 78.3188Z" fill="#8821D8"/>
</g>
<g opacity="0.7">
<g style="mix-blend-mode:screen">
<path d="M170.35 119.36L76.715 65.1594L15.587 100.538L109.222 154.738C110.012 155.191 111.277 155.191 112.045 154.738L170.35 120.99C171.14 120.538 171.14 119.813 170.35 119.36Z" fill="#7B38D4"/>
</g>
<path d="M78.477 66.156L17.349 101.535L10.8431 97.7747C10.0525 97.3217 10.0525 96.5969 10.8431 96.1439L69.1474 62.3961C69.938 61.9431 71.2031 61.9431 71.9711 62.3961L78.477 66.156Z" fill="#8821D8"/>
</g>
<g style="mix-blend-mode:screen">
<path d="M170.35 107.197L76.715 52.9966L15.587 88.3751L109.222 142.575C110.012 143.028 111.277 143.028 112.045 142.575L170.35 108.828C171.14 108.375 171.14 107.65 170.35 107.197Z" fill="#7B38D4"/>
</g>
<path d="M78.477 53.9931L17.349 89.3717L10.8431 85.6119C10.0525 85.1589 10.0525 84.4341 10.8431 83.9811L69.1474 50.2333C69.938 49.7803 71.2031 49.7803 71.9711 50.2333L78.477 53.9931Z" fill="#8821D8"/>
<path d="M63.1159 61.0597L58.2139 63.8909L53.3345 61.0597L58.2139 58.2285L63.1159 61.0597Z" fill="#6811BC"/>
<path d="M69.1926 57.5492L64.2906 60.3804L59.3886 57.5492L64.2906 54.718L69.1926 57.5492Z" fill="#6811BC"/>
<path d="M60.9473 57.5492L64.2906 59.4971L67.6339 57.5492L64.2906 55.624L60.9473 57.5492ZM66.4818 57.5492L64.2906 58.8176L62.0994 57.5492L64.2906 56.2809L66.4818 57.5492Z" fill="#F6C2FF"/>
<path d="M75.2466 54.0385L70.3672 56.8697L65.4652 54.0385L70.3672 51.2073L75.2466 54.0385Z" fill="#6811BC"/>
<path d="M67.4757 54.2649H70.0962V55.7824H70.932V54.2649H73.5524V53.7892H70.932V52.2717H70.0962V53.7892H67.4757V54.2649Z" fill="#F6C2FF"/>
<path d="M61.4894 61.1051L58.3721 62.9171L57.7621 62.5773L60.9021 60.7654L61.4894 61.1051Z" fill="#F6C2FF"/>
<path opacity="0.3" d="M166.622 107.854L110.532 140.31L22.5446 89.3716L78.6125 56.9148L166.622 107.854Z" fill="#FFBBFA"/>
<g style="mix-blend-mode:overlay" opacity="0.5">
<path d="M166.622 107.854L110.532 140.31L22.5446 89.3716L78.6125 56.9148L166.622 107.854Z" fill="#FFBBFA"/>
</g>
<path d="M82.6109 59.225L26.5204 91.6818L22.5446 89.3716L78.6125 56.9148L82.6109 59.225Z" fill="#DE78FF"/>
<path d="M104.884 137.049L110.532 140.31L166.622 107.854L160.975 104.569L104.884 137.049Z" fill="#DE78FF"/>
<path d="M80.2164 69.3267L85.9768 65.9746L85.909 55.6238L80.1486 58.9759L80.2164 69.3267Z" fill="#FFBBFA"/>
<g style="mix-blend-mode:screen">
<path d="M80.1486 58.9759L85.909 55.6237L79.1999 51.728L73.4394 55.0802L80.1486 58.9759Z" fill="#FFBBFA"/>
</g>
<path d="M73.4394 55.0803L73.5072 65.4538L80.2164 69.3269L80.1486 58.976L73.4394 55.0803Z" fill="#DE78FF"/>
<path d="M88.0099 73.8341L93.7703 70.4819L93.7251 54.7632L87.9647 58.1153L88.0099 73.8341Z" fill="#FFBBFA"/>
<g style="mix-blend-mode:screen">
<path d="M87.9647 58.1153L93.7251 54.7632L87.0159 50.8901L81.2555 54.2423L87.9647 58.1153Z" fill="#FFBBFA"/>
</g>
<path d="M81.2555 54.2422L81.3007 69.961L88.0099 73.834L87.9647 58.1153L81.2555 54.2422Z" fill="#DE78FF"/>
<path d="M95.8034 78.364L101.564 74.9892L101.541 49.5991L95.7808 52.9512L95.8034 78.364Z" fill="#FFBBFA"/>
<g style="mix-blend-mode:screen">
<path d="M95.7808 52.9512L101.541 49.5991L94.832 45.7034L89.0716 49.0555L95.7808 52.9512Z" fill="#FFE1FE"/>
</g>
<path d="M89.0716 49.0554L89.0942 74.4682L95.8034 78.3639L95.7808 52.9511L89.0716 49.0554Z" fill="#DE78FF"/>
<path d="M103.597 82.8713L109.335 79.5191L109.38 32.9744L103.642 36.3265L103.597 82.8713Z" fill="#FFBBFA"/>
<g style="mix-blend-mode:screen">
<path d="M103.642 36.3265L109.38 32.9743L102.671 29.0786L96.9328 32.4534L103.642 36.3265Z" fill="#FFE1FE"/>
</g>
<path d="M96.9328 32.4534L96.8877 78.9755L103.597 82.8712L103.642 36.3264L96.9328 32.4534Z" fill="#DE78FF"/>
<path d="M111.368 87.3784L117.128 84.0263L117.151 46.179L111.39 49.5311L111.368 87.3784Z" fill="#FFBBFA"/>
<g style="mix-blend-mode:screen">
<path d="M111.39 49.5311L117.151 46.179L110.442 42.3059L104.681 45.658L111.39 49.5311Z" fill="#FFBBFA"/>
</g>
<path d="M104.681 45.658L104.659 83.4827L111.368 87.3784L111.39 49.531L104.681 45.658Z" fill="#DE78FF"/>
<path d="M119.184 91.8856L124.831 88.5335L124.922 60.8784L119.161 64.2305L119.184 91.8856Z" fill="#FFBBFA"/>
<g style="mix-blend-mode:screen">
<path d="M118.212 57.0054L112.452 60.3575L119.161 64.2306L124.922 60.8784L118.212 57.0054Z" fill="#FFBBFA"/>
</g>
<path d="M112.452 60.3577V87.9901L119.184 91.8858L119.161 64.2307L112.452 60.3577Z" fill="#DE78FF"/>
<path d="M126.955 96.3929L132.715 93.0408L132.693 71.9541L126.932 75.3062L126.955 96.3929Z" fill="#FFBBFA"/>
<g style="mix-blend-mode:screen">
<path d="M126.932 75.3062L132.693 71.9541L125.983 68.0583L120.223 71.4105L126.932 75.3062Z" fill="#FFBBFA"/>
</g>
<path d="M120.223 71.4106L120.246 92.52L126.955 96.3931L126.932 75.3064L120.223 71.4106Z" fill="#DE78FF"/>
<path d="M134.748 100.9L140.509 97.5481L140.441 87.1973L134.703 90.5494L134.748 100.9Z" fill="#FFBBFA"/>
<g style="mix-blend-mode:screen">
<path d="M134.703 90.5494L140.441 87.1972L133.732 83.3015L127.994 86.6536L134.703 90.5494Z" fill="#FFBBFA"/>
</g>
<path d="M127.994 86.6538L128.039 97.0273L134.748 100.9L134.703 90.5495L127.994 86.6538Z" fill="#DE78FF"/>
<path d="M142.542 105.408L148.302 102.055L148.257 86.3367L142.496 89.7114L142.542 105.408Z" fill="#FFBBFA"/>
<g style="mix-blend-mode:screen">
<path d="M142.496 89.7115L148.257 86.3367L141.548 82.4636L135.787 85.8158L142.496 89.7115Z" fill="#FFBBFA"/>
</g>
<path d="M135.787 85.8157L135.832 101.534L142.542 105.408L142.496 89.7114L135.787 85.8157Z" fill="#DE78FF"/>
<path d="M150.335 109.915L156.096 106.563L156.073 85.1589L150.313 88.5111L150.335 109.915Z" fill="#FFBBFA"/>
<g style="mix-blend-mode:screen">
<path d="M150.313 88.5111L156.073 85.159L149.341 81.2859L143.603 84.638L150.313 88.5111Z" fill="#FFBBFA"/>
</g>
<path d="M143.603 84.6379L143.626 106.042L150.335 109.915L150.313 88.511L143.603 84.6379Z" fill="#DE78FF"/>
<path d="M53.2668 100.334L52.0469 101.036L37.0473 92.3613L38.2671 91.6592L53.2668 100.334Z" fill="#FFBBFA"/>
<path d="M54.577 99.5866L53.2668 100.334L39.8484 92.5653L41.1586 91.7952L54.577 99.5866Z" fill="#C858F0"/>
<path d="M58.1462 97.5028L56.9263 98.2276L42.7173 89.9831L43.9372 89.281L58.1462 97.5028Z" fill="#FFBBFA"/>
<path d="M59.4564 96.7554L58.1462 97.5028L42.7173 88.5789L44.0275 87.8088L59.4564 96.7554Z" fill="#C858F0"/>
<path d="M63.0481 94.6714L61.8283 95.3736L42.2429 84.0488L43.4628 83.3467L63.0481 94.6714Z" fill="#FFBBFA"/>
<path d="M64.3583 93.9013L63.0481 94.6714L53.8767 89.3487L55.1869 88.6013L64.3583 93.9013Z" fill="#C858F0"/>
<path d="M67.9501 91.8403L66.7077 92.5425L50.1945 82.9844L51.4144 82.2822L67.9501 91.8403Z" fill="#FFBBFA"/>
<path d="M69.2603 91.093L67.9501 91.8404L52.815 83.0751L54.1252 82.3276L69.2603 91.093Z" fill="#C858F0"/>
<path d="M82.6335 83.3467L81.3911 84.0488L64.5617 74.3095L65.7815 73.5847L82.6335 83.3467Z" fill="#FFBBFA"/>
<path d="M83.9437 82.5766L82.6335 83.3466L72.0389 77.2086L73.3491 76.4612L83.9437 82.5766Z" fill="#C858F0"/>
<path d="M87.5129 80.5156L86.2931 81.2177L72.694 73.3357L73.9138 72.6335L87.5129 80.5156Z" fill="#FFBBFA"/>
<path d="M88.8231 79.7454L87.5129 80.5155L76.1954 73.9471L77.5056 73.1997L88.8231 79.7454Z" fill="#C858F0"/>
<path d="M72.8295 89.0092L71.6097 89.7113L65.6911 86.2912L66.911 85.5891L72.8295 89.0092Z" fill="#FFBBFA"/>
<path d="M74.1397 88.2618L72.8295 89.0093L62.4608 83.0071L63.771 82.2371L74.1397 88.2618Z" fill="#C858F0"/>
<path d="M77.7315 86.1779L76.5117 86.88L70.5931 83.46L71.813 82.7578L77.7315 86.1779Z" fill="#FFBBFA"/>
<path d="M79.0417 85.4304L77.7315 86.1778L73.4394 83.709L74.7497 82.939L79.0417 85.4304Z" fill="#C858F0"/>
<path d="M91.5113 79.3832L51.0756 102.78L49.9687 102.146L90.4044 78.749L91.5113 79.3832Z" fill="#8821D8"/>
<path d="M70.8642 108.578C68.0631 110.209 63.4999 110.209 60.6988 108.578C57.8977 106.947 57.8977 104.32 60.6988 102.689C63.4999 101.059 68.0631 101.059 70.8642 102.689C73.6653 104.32 73.6653 106.947 70.8642 108.578Z" fill="#C858F0"/>
<path d="M70.1865 103.097C72.6036 104.501 72.6036 106.789 70.1865 108.193C67.7694 109.598 63.8162 109.598 61.3991 108.193C58.982 106.789 58.982 104.501 61.3991 103.097C63.8162 101.693 67.7694 101.693 70.1865 103.097Z" fill="#8821D8"/>
<path d="M61.3991 103.097L65.8267 105.656V102.032C64.2228 102.032 62.6189 102.372 61.3991 103.074V103.097Z" fill="#FFBBFA"/>
<path d="M85.8864 99.881C83.0853 101.512 78.5222 101.512 75.721 99.881C72.9199 98.2502 72.9199 95.6229 75.721 93.9921C78.5222 92.3614 83.0853 92.3614 85.8864 93.9921C88.6876 95.6229 88.6876 98.2502 85.8864 99.881Z" fill="#C858F0"/>
<path d="M85.2087 94.3999C87.6258 95.8042 87.6258 98.0918 85.2087 99.496C82.7916 100.9 78.8384 100.9 76.4213 99.496C74.0042 98.0918 74.0042 95.8042 76.4213 94.3999C78.8384 92.9956 82.7916 92.9956 85.2087 94.3999Z" fill="#8821D8"/>
<path d="M85.2087 94.3998C84.0115 93.6977 82.4302 93.3579 80.8489 93.3579C79.245 93.3579 77.6412 93.6977 76.4213 94.3998L80.8489 96.9592H87.0385C87.0385 96.0306 86.4512 95.1246 85.2539 94.4224C85.2539 94.4224 85.2539 94.4224 85.2313 94.4224L85.2087 94.3998Z" fill="#FFBBFA"/>
<path d="M100.66 91.3419C97.859 92.9727 93.2959 92.9727 90.4948 91.3419C87.6936 89.7112 87.6936 87.0838 90.4948 85.4531C93.2959 83.8223 97.859 83.8223 100.66 85.4531C103.461 87.0838 103.461 89.7112 100.66 91.3419Z" fill="#C858F0"/>
<path d="M99.9599 85.8608C102.377 87.2651 102.377 89.5527 99.9599 90.957C97.5428 92.3612 93.5896 92.3612 91.1724 90.957C88.7553 89.5527 88.7553 87.2651 91.1724 85.8608C93.5896 84.4565 97.5428 84.4565 99.9599 85.8608Z" fill="#8821D8"/>
<path d="M91.1725 85.8608L99.9599 90.957C102.377 89.5527 102.377 87.2651 99.9599 85.8608C97.5428 84.4565 93.5896 84.4565 91.1725 85.8608Z" fill="#FFBBFA"/>
<path d="M77.7315 111.047C78.5673 111.546 78.5673 112.338 77.7315 112.814C76.8957 113.312 75.5177 113.312 74.6819 112.814C73.8461 112.316 73.8461 111.523 74.6819 111.047C75.5177 110.549 76.8957 110.549 77.7315 111.047Z" fill="#C858F0"/>
<path d="M85.1636 115.351C85.9994 115.849 85.9994 116.642 85.1636 117.117C84.3277 117.616 82.9498 117.616 82.1139 117.117C81.2781 116.619 81.2781 115.826 82.1139 115.351C82.9498 114.852 84.3277 114.852 85.1636 115.351Z" fill="#C858F0"/>
<path d="M92.5052 119.586C93.3411 120.084 93.3411 120.877 92.5052 121.353C91.6694 121.851 90.2914 121.851 89.4556 121.353C88.6198 120.854 88.6198 120.062 89.4556 119.586C90.2914 119.088 91.6694 119.088 92.5052 119.586Z" fill="#C858F0"/>
<path d="M99.8921 123.867C100.728 124.365 100.728 125.158 99.8921 125.634C99.0563 126.132 97.6783 126.132 96.8425 125.634C96.0067 125.135 96.0067 124.343 96.8425 123.867C97.6783 123.369 99.0563 123.369 99.8921 123.867Z" fill="#C858F0"/>
<path d="M107.234 128.125C108.07 128.623 108.07 129.416 107.234 129.892C106.398 130.39 105.02 130.39 104.184 129.892C103.348 129.393 103.348 128.601 104.184 128.125C105.02 127.627 106.398 127.627 107.234 128.125Z" fill="#C858F0"/>
<path d="M97.7009 101.353L103.326 98.0918L102.761 97.752L97.1362 101.014L97.7009 101.353ZM96.9328 101.806L96.3681 101.467L82.3172 109.598L82.882 109.937L96.9328 101.806ZM80.6682 108.579L85.2991 105.883L84.7343 105.543L80.1034 108.239L80.6682 108.579ZM105.833 94.0149L110.261 91.4555L109.696 91.1157L105.268 93.6751L105.833 94.0149ZM99.5533 97.6614L105.065 94.4679L104.5 94.1281L98.9885 97.3217L99.5533 97.6614ZM86.0897 105.453L98.7852 98.1144L98.2205 97.7747L85.525 105.113L86.0897 105.453Z" fill="#DE78FF"/>
<path d="M111.91 97.9333L112.475 98.2731L116.789 95.7816L116.225 95.4419L111.91 97.9333ZM111.707 98.7261L111.142 98.3863L101.925 103.732L102.49 104.071L111.707 98.7261ZM111.842 100.629L112.407 100.968L116.744 98.4543L116.179 98.1145L111.842 100.629ZM100.502 107.854L99.9373 107.514L89.2975 113.675L89.8622 114.014L100.502 107.854ZM101.722 104.524L101.157 104.185L86.9933 112.384L87.5581 112.723L101.722 104.524ZM111.639 101.421L111.074 101.082L100.728 107.084L101.293 107.423L111.639 101.421Z" fill="#DE78FF"/>
<path d="M116.134 104.275L116.699 104.615L122.211 101.421L121.646 101.082L116.134 104.275ZM114.395 108.579L113.83 108.239L107.143 112.112L107.708 112.452L114.395 108.579ZM102.467 112.859L101.903 112.52L94.719 116.664L95.2838 117.004L102.467 112.859ZM115.366 104.728L102.671 112.067L103.235 112.406L115.931 105.068L115.366 104.728ZM106.94 112.905L106.375 112.565L96.978 118.001L97.5428 118.34L106.94 112.905Z" fill="#DE78FF"/>
<path d="M119.681 114.082L125.193 110.889L124.628 110.549L119.116 113.743L119.681 114.082ZM118.913 114.535L118.348 114.196L104.297 122.327L104.862 122.667L118.913 114.535ZM102.648 121.308L107.279 118.612L106.714 118.273L102.083 120.968L102.648 121.308ZM121.533 110.368L129.394 105.815L128.83 105.476L120.968 110.028L121.533 110.368ZM108.07 118.159L120.765 110.821L120.2 110.481L107.505 117.82L108.07 118.159Z" fill="#DE78FF"/>
<path d="M131.405 112.474L125.351 115.962L125.938 116.302L131.97 112.814L131.405 112.474Z" fill="#DE78FF"/>
<path d="M125.148 116.755L124.583 116.415L109.289 125.271L109.877 125.611L125.148 116.755Z" fill="#DE78FF"/>
<path d="M119.455 122.689L118.868 122.372L111.707 126.517L112.271 126.857L119.455 122.689Z" fill="#DE78FF"/>
<path d="M124.628 119.042L119.658 121.919L120.223 122.236L125.193 119.36L124.628 119.042Z" fill="#DE78FF"/>
<path style="mix-blend-mode:screen" d="M136.539 40.7464C140.812 22.4786 129.507 4.19631 111.287 -0.0883519C93.0675 -4.37301 74.8333 6.96251 70.56 25.2302C66.2866 43.498 77.5922 61.7803 95.8118 66.0649C114.031 70.3496 132.265 59.0141 136.539 40.7464Z" fill="url(#paint3_radial_100_657)"/>
<path style="mix-blend-mode:screen" d="M151.684 68.8291C155.958 50.5614 144.652 32.2791 126.433 27.9944C108.213 23.7098 89.9789 35.0453 85.7056 53.313C81.4322 71.5807 92.7378 89.863 110.957 94.1477C129.177 98.4324 147.411 87.0968 151.684 68.8291Z" fill="url(#paint4_radial_100_657)"/>
<path style="mix-blend-mode:screen" d="M133.777 129.076C156.945 129.076 175.726 110.245 175.726 87.0162C175.726 63.787 156.945 44.9561 133.777 44.9561C110.609 44.9561 91.8276 63.787 91.8276 87.0162C91.8276 110.245 110.609 129.076 133.777 129.076Z" fill="url(#paint5_radial_100_657)"/>
<path style="mix-blend-mode:screen" d="M65.6911 98.8164C89.5203 98.8164 108.838 87.6314 108.838 73.834C108.838 60.0366 89.5203 48.8516 65.6911 48.8516C41.862 48.8516 22.5446 60.0366 22.5446 73.834C22.5446 87.6314 41.862 98.8164 65.6911 98.8164Z" fill="url(#paint6_radial_100_657)"/>
<path style="mix-blend-mode:screen" d="M43.1465 108.646C66.9757 108.646 86.293 97.4615 86.293 83.6641C86.293 69.8667 66.9757 58.6816 43.1465 58.6816C19.3174 58.6816 0 69.8667 0 83.6641C0 97.4615 19.3174 108.646 43.1465 108.646Z" fill="url(#paint7_radial_100_657)"/>
<defs>
<linearGradient id="paint0_linear_100_657" x1="111.707" y1="155.259" x2="128.152" y2="155.259" gradientUnits="userSpaceOnUse">
<stop stop-color="#8B3DCE"/>
<stop offset="1" stop-color="#CB89F0"/>
</linearGradient>
<linearGradient id="paint1_linear_100_657" x1="21.0763" y1="130.639" x2="26.9956" y2="140.863" gradientUnits="userSpaceOnUse">
<stop offset="0.62" stop-color="#FFBFFF"/>
<stop offset="0.86" stop-color="#E09CFF"/>
<stop offset="1" stop-color="#CB89F0"/>
</linearGradient>
<linearGradient id="paint2_linear_100_657" x1="33.7266" y1="137.955" x2="39.6233" y2="148.179" gradientUnits="userSpaceOnUse">
<stop offset="0.62" stop-color="#FFBFFF"/>
<stop offset="0.86" stop-color="#E09CFF"/>
<stop offset="1" stop-color="#CB89F0"/>
</linearGradient>
<radialGradient id="paint3_radial_100_657" cx="0" cy="0" r="1" gradientUnits="userSpaceOnUse" gradientTransform="translate(103.538 32.9818) scale(33.8847 33.9743)">
<stop stop-color="#FF3DD5"/>
<stop offset="0.04" stop-color="#DB34B7"/>
<stop offset="0.1" stop-color="#AD2991"/>
<stop offset="0.16" stop-color="#841F6E"/>
<stop offset="0.23" stop-color="#601750"/>
<stop offset="0.31" stop-color="#420F37"/>
<stop offset="0.39" stop-color="#290A23"/>
<stop offset="0.48" stop-color="#170513"/>
<stop offset="0.59" stop-color="#090208"/>
<stop offset="0.73" stop-color="#020001"/>
<stop offset="1"/>
</radialGradient>
<radialGradient id="paint4_radial_100_657" cx="0" cy="0" r="1" gradientUnits="userSpaceOnUse" gradientTransform="translate(118.693 61.0671) scale(1.12949 1.13248)">
<stop stop-color="#FF3DD5"/>
<stop offset="0.04" stop-color="#DB34B7"/>
<stop offset="0.1" stop-color="#AD2991"/>
<stop offset="0.16" stop-color="#841F6E"/>
<stop offset="0.23" stop-color="#601750"/>
<stop offset="0.31" stop-color="#420F37"/>
<stop offset="0.39" stop-color="#290A23"/>
<stop offset="0.48" stop-color="#170513"/>
<stop offset="0.59" stop-color="#090208"/>
<stop offset="0.73" stop-color="#020001"/>
<stop offset="1"/>
</radialGradient>
<radialGradient id="paint5_radial_100_657" cx="0" cy="0" r="1" gradientUnits="userSpaceOnUse" gradientTransform="translate(133.777 87.0162) scale(41.9493 42.0602)">
<stop stop-color="#FF3DD5"/>
<stop offset="0.04" stop-color="#DB34B7"/>
<stop offset="0.1" stop-color="#AD2991"/>
<stop offset="0.16" stop-color="#841F6E"/>
<stop offset="0.23" stop-color="#601750"/>
<stop offset="0.31" stop-color="#420F37"/>
<stop offset="0.39" stop-color="#290A23"/>
<stop offset="0.48" stop-color="#170513"/>
<stop offset="0.59" stop-color="#090208"/>
<stop offset="0.73" stop-color="#020001"/>
<stop offset="1"/>
</radialGradient>
<radialGradient id="paint6_radial_100_657" cx="0" cy="0" r="1" gradientUnits="userSpaceOnUse" gradientTransform="translate(-29.9181 129.193) rotate(-30.0655) scale(35.0939 30.5566)">
<stop stop-color="#FFEC3D"/>
<stop offset="0.03" stop-color="#F8C26B"/>
<stop offset="0.07" stop-color="#F1939F"/>
<stop offset="0.1" stop-color="#EC6DC8"/>
<stop offset="0.14" stop-color="#E853E6"/>
<stop offset="0.16" stop-color="#E542F8"/>
<stop offset="0.18" stop-color="#E53DFF"/>
<stop offset="0.22" stop-color="#C033D6"/>
<stop offset="0.26" stop-color="#9828A9"/>
<stop offset="0.31" stop-color="#731E80"/>
<stop offset="0.37" stop-color="#54165D"/>
<stop offset="0.42" stop-color="#3A0F40"/>
<stop offset="0.49" stop-color="#240928"/>
<stop offset="0.56" stop-color="#140516"/>
<stop offset="0.65" stop-color="#080209"/>
<stop offset="0.76" stop-color="#010002"/>
<stop offset="1"/>
</radialGradient>
<radialGradient id="paint7_radial_100_657" cx="0" cy="0" r="1" gradientUnits="userSpaceOnUse" gradientTransform="translate(-50.9818 138.144) rotate(-30.0655) scale(35.0939 30.5566)">
<stop stop-color="#FFEC3D"/>
<stop offset="0.03" stop-color="#F8C26B"/>
<stop offset="0.07" stop-color="#F1939F"/>
<stop offset="0.1" stop-color="#EC6DC8"/>
<stop offset="0.14" stop-color="#E853E6"/>
<stop offset="0.16" stop-color="#E542F8"/>
<stop offset="0.18" stop-color="#E53DFF"/>
<stop offset="0.22" stop-color="#C033D6"/>
<stop offset="0.26" stop-color="#9828A9"/>
<stop offset="0.31" stop-color="#731E80"/>
<stop offset="0.37" stop-color="#54165D"/>
<stop offset="0.42" stop-color="#3A0F40"/>
<stop offset="0.49" stop-color="#240928"/>
<stop offset="0.56" stop-color="#140516"/>
<stop offset="0.65" stop-color="#080209"/>
<stop offset="0.76" stop-color="#010002"/>
<stop offset="1"/>
</radialGradient>
</defs>
</svg>
