<svg width="372" height="276" viewBox="0 0 372 276" fill="none" xmlns="http://www.w3.org/2000/svg">
<g style="mix-blend-mode:multiply" opacity="0.6">
<path d="M208.786 141.116L193.633 149.883C193.294 150.073 192.807 150.158 192.341 150.073C191.005 149.82 189.819 149.376 188.844 148.827C187.721 148.172 186.852 147.369 186.322 146.461C185.877 145.679 185.114 144.961 184.012 144.348C179.837 141.94 172.779 142.236 169.304 145.193C167.206 147.01 167.206 149.439 169.304 151.256C169.685 151.573 170.088 151.869 170.554 152.122C171.614 152.735 172.864 153.178 174.199 153.432C175.768 153.749 177.188 154.256 178.332 154.911C179.307 155.481 180.07 156.136 180.515 156.918C180.642 157.192 180.515 157.467 180.176 157.678L166.146 165.811L152.879 158.185C151.862 157.594 150.272 157.467 149.086 157.932C147.221 158.65 145.843 159.727 145.101 160.995C144.465 162.072 143.215 163.086 141.35 163.804C138.214 165.008 133.996 165.008 130.838 163.804C130.287 163.593 129.8 163.361 129.355 163.107C125.625 160.952 125.604 157.467 129.312 155.312C130.393 154.699 131.622 154.256 132.979 153.981C135.162 153.559 137.027 152.756 138.235 151.7C138.998 151.003 138.786 150.094 137.747 149.503L123.272 141.18L165.87 116.506L208.744 141.18L208.786 141.116ZM141.774 190.717C140.714 190.104 139.464 189.661 138.15 189.407C136.582 189.09 135.141 188.605 134.017 187.95C133.572 187.696 133.17 187.422 132.83 187.105C132.046 186.408 132.258 185.499 133.276 184.908L146.436 177.282L131.686 168.79C131.347 168.6 130.86 168.515 130.414 168.6C127.532 169.149 125.413 170.564 124.396 172.233C123.76 173.31 122.509 174.324 120.644 175.043C117.508 176.247 113.269 176.247 110.133 175.043C109.582 174.831 109.094 174.599 108.649 174.345C104.919 172.191 104.898 168.705 108.607 166.55C109.666 165.938 110.917 165.494 112.273 165.22C115.198 164.649 117.593 163.424 118.525 161.755C118.673 161.502 118.525 161.227 118.186 161.016L103.584 152.608L61.0071 177.282L103.881 201.955L118.271 193.632C119.267 193.062 120.878 192.914 122.064 193.379C122.594 193.59 123.103 193.822 123.548 194.076C124.671 194.71 125.519 195.512 126.049 196.4C126.494 197.181 127.257 197.921 128.338 198.533C132.513 200.941 139.591 200.667 143.067 197.667C145.186 195.871 145.165 193.421 143.067 191.604C142.685 191.287 142.283 190.992 141.816 190.738L141.774 190.717ZM230.297 153.474L215.907 161.797C214.89 162.389 213.301 162.516 212.093 162.072C211.563 161.861 211.054 161.628 210.609 161.375C209.486 160.741 208.638 159.917 208.108 159.03C207.642 158.248 206.879 157.53 205.798 156.896C201.623 154.488 194.566 154.784 191.111 157.763C188.992 159.558 188.992 162.009 191.111 163.825C191.493 164.142 191.896 164.438 192.362 164.691C193.421 165.304 194.693 165.748 196.007 166.001C197.575 166.297 198.974 166.804 200.097 167.438C200.542 167.691 200.966 167.987 201.305 168.283C202.111 168.98 201.92 169.888 200.881 170.48L187.699 178.106L201.835 186.239C202.174 186.429 202.683 186.513 203.128 186.429C206.01 185.88 208.129 184.464 209.126 182.795C209.783 181.697 211.054 180.704 212.898 179.986C216.035 178.782 220.252 178.782 223.41 179.986C223.94 180.197 224.427 180.429 224.872 180.683C228.623 182.838 228.666 186.344 224.957 188.499C223.876 189.112 222.626 189.555 221.29 189.809C218.366 190.379 215.971 191.625 215.038 193.273C214.911 193.548 215.038 193.822 215.378 194.034L230.594 202.8L273.192 178.127L230.34 153.453L230.297 153.474ZM196.283 205.948C195.265 205.378 195.053 204.448 195.816 203.751C197.046 202.674 198.889 201.892 201.051 201.448C202.407 201.174 203.679 200.751 204.739 200.118C208.447 197.963 208.426 194.477 204.675 192.323C204.23 192.069 203.743 191.837 203.192 191.604C200.055 190.379 195.837 190.379 192.701 191.583C190.836 192.323 189.564 193.315 188.95 194.414C188.187 195.66 186.83 196.759 184.987 197.456C183.779 197.921 182.189 197.794 181.172 197.202L167.905 189.576L153.875 197.709C153.557 197.899 153.388 198.174 153.536 198.449C153.981 199.209 154.744 199.885 155.719 200.456C156.863 201.11 158.305 201.617 159.873 201.934C161.187 202.188 162.437 202.631 163.497 203.244C163.942 203.497 164.366 203.793 164.747 204.11C166.867 205.927 166.867 208.377 164.747 210.173C161.293 213.151 154.214 213.426 150.039 211.018C148.98 210.405 148.195 209.666 147.729 208.905C147.199 208.018 146.33 207.194 145.228 206.561C144.232 205.99 143.046 205.547 141.71 205.293C141.265 205.209 140.757 205.293 140.418 205.504L125.286 214.271L168.138 238.945L210.715 214.271L196.24 205.948H196.283Z" fill="#3A0155"/>
</g>
<path d="M193.633 123.266C193.294 123.456 192.807 123.541 192.341 123.456C191.005 123.203 189.819 122.759 188.844 122.21C187.721 121.555 186.852 120.752 186.322 119.844C185.877 119.062 185.114 118.344 184.012 117.731C179.837 115.323 172.779 115.619 169.304 118.576C168.265 119.485 167.735 120.541 167.735 121.597V123.963C167.735 122.907 168.265 121.851 169.304 120.942C172.779 117.985 179.837 117.689 184.012 120.097C185.093 120.71 185.856 121.449 186.322 122.21C186.852 123.118 187.721 123.921 188.844 124.576C189.819 125.146 191.005 125.59 192.341 125.822C192.786 125.906 193.294 125.822 193.633 125.632L208.786 116.865V114.499L193.655 123.266H193.633Z" fill="url(#paint0_linear_108_1147)"/>
<path d="M137.79 122.822L123.315 114.499V116.865L137.79 125.188C138.404 125.547 138.722 126.012 138.722 126.477V124.111C138.722 123.646 138.404 123.181 137.79 122.822Z" fill="#962DCC"/>
<path d="M152.921 131.526C151.904 130.934 150.315 130.807 149.128 131.272C147.263 131.99 145.885 133.068 145.144 134.335C144.508 135.413 143.257 136.427 141.392 137.145C138.256 138.349 134.038 138.349 130.881 137.145C130.33 136.934 129.842 136.701 129.397 136.448C127.511 135.37 126.578 133.955 126.578 132.54V134.906C126.578 136.321 127.511 137.736 129.376 138.814C129.821 139.067 130.308 139.3 130.859 139.511C134.017 140.715 138.235 140.736 141.371 139.511C143.236 138.793 144.487 137.8 145.122 136.701C145.864 135.434 147.242 134.356 149.107 133.638C150.294 133.194 151.883 133.3 152.9 133.892L166.167 141.518V139.152L152.9 131.526H152.921Z" fill="#962DCC"/>
<path d="M180.218 131.04L166.188 139.173V141.539L180.218 133.406C180.472 133.258 180.6 133.068 180.6 132.878V130.512C180.6 130.702 180.472 130.913 180.218 131.061V131.04Z" fill="#DA73ED"/>
<path d="M165.913 89.8044L123.315 114.478L137.79 122.801C138.807 123.393 139.019 124.301 138.277 124.998C137.069 126.054 135.204 126.857 133.021 127.28C131.686 127.533 130.436 127.977 129.355 128.61C125.646 130.765 125.646 134.251 129.397 136.405C129.842 136.659 130.33 136.891 130.881 137.103C134.038 138.307 138.256 138.328 141.392 137.103C143.257 136.384 144.508 135.391 145.144 134.293C145.885 133.025 147.263 131.948 149.128 131.23C150.315 130.786 151.904 130.892 152.921 131.483L166.188 139.109L180.218 130.976C180.557 130.786 180.684 130.491 180.557 130.216C180.112 129.455 179.349 128.779 178.374 128.209C177.23 127.554 175.81 127.047 174.242 126.73C172.907 126.456 171.656 126.033 170.597 125.421C170.151 125.167 169.728 124.871 169.346 124.555C167.227 122.738 167.248 120.308 169.346 118.492C172.822 115.534 179.879 115.239 184.054 117.647C185.135 118.259 185.898 118.999 186.364 119.759C186.894 120.668 187.763 121.47 188.886 122.125C189.861 122.696 191.048 123.139 192.383 123.372C192.828 123.456 193.337 123.372 193.676 123.181L208.829 114.415L165.955 89.741L165.913 89.8044Z" fill="#FFBBFA"/>
<path d="M118.504 135.117C117.571 136.786 115.177 138.011 112.252 138.581C110.917 138.835 109.645 139.3 108.586 139.912C106.742 140.989 105.809 142.384 105.809 143.778V146.144C105.809 144.75 106.742 143.334 108.586 142.278C109.645 141.665 110.896 141.222 112.252 140.947C115.177 140.377 117.571 139.152 118.504 137.483C118.546 137.419 118.567 137.356 118.567 137.272V134.906C118.567 134.906 118.567 135.032 118.525 135.117H118.504Z" fill="#DA73ED"/>
<path d="M133.254 158.27C132.661 158.629 132.322 159.093 132.322 159.558V161.924C132.322 161.459 132.64 160.995 133.233 160.657L146.394 153.031V150.665L133.233 158.291L133.254 158.27Z" fill="#DA73ED"/>
<path d="M60.9647 150.665V153.031L103.817 177.704L103.838 175.317L60.9647 150.665Z" fill="#962DCC"/>
<path d="M143.024 171.029C139.549 174.007 132.47 174.303 128.295 171.895C127.235 171.282 126.473 170.543 126.006 169.761C125.476 168.874 124.608 168.071 123.505 167.438C123.06 167.184 122.552 166.931 122.022 166.741C120.835 166.297 119.224 166.424 118.228 166.994L103.838 175.317V177.683L118.207 169.36C119.203 168.79 120.814 168.642 122.001 169.106C122.531 169.318 123.039 169.55 123.484 169.804C124.608 170.437 125.455 171.24 125.985 172.127C126.43 172.909 127.193 173.648 128.274 174.261C132.449 176.669 139.527 176.395 143.003 173.395C144.042 172.508 144.571 171.451 144.571 170.395V168.029C144.571 169.085 144.042 170.142 143.003 171.029H143.024Z" fill="url(#paint1_linear_108_1147)"/>
<path d="M141.753 164.1C140.693 163.487 139.443 163.044 138.129 162.79C136.56 162.473 135.119 161.987 133.996 161.333C133.551 161.079 133.148 160.805 132.809 160.488C132.025 159.791 132.237 158.882 133.254 158.291L146.415 150.665L131.665 142.173C131.326 141.982 130.838 141.898 130.393 141.982C127.511 142.532 125.392 143.947 124.374 145.616C123.739 146.693 122.488 147.707 120.623 148.425C117.487 149.63 113.248 149.63 110.111 148.425C109.56 148.214 109.073 147.982 108.628 147.728C104.898 145.574 104.877 142.088 108.585 139.933C109.645 139.321 110.896 138.877 112.252 138.602C115.177 138.032 117.571 136.807 118.504 135.138C118.652 134.885 118.504 134.61 118.165 134.399L103.563 125.991L60.9858 150.665L103.859 175.338L118.25 167.015C119.246 166.445 120.856 166.297 122.043 166.762C122.573 166.973 123.082 167.205 123.527 167.459C124.65 168.093 125.498 168.895 126.027 169.782C126.472 170.564 127.235 171.303 128.316 171.916C132.491 174.324 139.57 174.05 143.045 171.05C145.165 169.254 145.144 166.804 143.045 164.987C142.664 164.67 142.261 164.375 141.795 164.121L141.753 164.1Z" fill="#FFBBFA"/>
<path d="M201.284 141.708C200.924 141.391 200.521 141.116 200.076 140.863C198.953 140.229 197.554 139.722 195.986 139.426C194.672 139.173 193.4 138.729 192.341 138.117C191.896 137.863 191.472 137.567 191.09 137.251C190.031 136.342 189.501 135.286 189.501 134.209V136.575C189.501 137.631 190.009 138.708 191.069 139.616C191.451 139.933 191.853 140.229 192.319 140.483C193.379 141.095 194.651 141.539 195.965 141.792C197.533 142.088 198.932 142.595 200.055 143.229C200.5 143.482 200.924 143.778 201.263 144.074C201.602 144.37 201.75 144.686 201.75 145.024V142.658C201.75 142.342 201.602 142.004 201.263 141.708H201.284Z" fill="#D68900"/>
<path d="M224.83 154.108C224.385 153.854 223.897 153.622 223.367 153.411C220.21 152.207 215.992 152.186 212.856 153.411C210.991 154.15 209.74 155.122 209.083 156.22C208.108 157.91 205.968 159.305 203.086 159.854C202.64 159.938 202.132 159.854 201.793 159.664L187.657 151.531V153.897L201.772 162.03C202.111 162.22 202.619 162.304 203.064 162.22C205.947 161.671 208.066 160.255 209.062 158.586C209.719 157.488 210.991 156.495 212.834 155.777C215.971 154.573 220.188 154.573 223.346 155.777C223.876 155.988 224.363 156.22 224.808 156.474C226.695 157.572 227.648 158.988 227.648 160.424V158.058C227.648 156.622 226.716 155.206 224.808 154.108H224.83Z" fill="#D68900"/>
<path d="M215.314 167.438C215.06 167.29 214.932 167.1 214.932 166.888V169.254C214.932 169.466 215.06 169.656 215.314 169.804L230.531 178.57V176.204L215.314 167.438Z" fill="#D68900"/>
<path d="M230.531 176.204V178.57L273.129 153.897L273.15 151.531L230.531 176.204Z" fill="#E5A300"/>
<path d="M230.276 126.857L215.886 135.18C214.869 135.772 213.279 135.898 212.071 135.455C211.541 135.244 211.033 135.011 210.588 134.758C209.465 134.124 208.617 133.3 208.087 132.413C207.621 131.631 206.858 130.913 205.777 130.279C201.602 127.871 194.545 128.167 191.09 131.145C188.971 132.941 188.971 135.391 191.09 137.208C191.472 137.525 191.874 137.821 192.341 138.074C193.4 138.687 194.672 139.131 195.986 139.384C197.554 139.68 198.953 140.187 200.076 140.821C200.521 141.074 200.945 141.37 201.284 141.666C202.089 142.363 201.899 143.271 200.86 143.862L187.678 151.489L201.814 159.622C202.153 159.812 202.662 159.896 203.107 159.812C205.989 159.262 208.108 157.847 209.104 156.178C209.761 155.08 211.033 154.087 212.877 153.369C216.013 152.164 220.231 152.164 223.388 153.369C223.918 153.58 224.406 153.812 224.851 154.066C228.602 156.22 228.644 159.727 224.935 161.882C223.855 162.494 222.604 162.938 221.269 163.192C218.344 163.762 215.95 165.008 215.017 166.656C214.89 166.931 215.017 167.205 215.356 167.417L230.573 176.183L273.171 151.51L230.319 126.836L230.276 126.857Z" fill="#FFD03B"/>
<path d="M204.717 173.522C203.637 174.134 202.386 174.578 201.03 174.852C198.868 175.275 197.024 176.078 195.795 177.155C195.477 177.43 195.329 177.746 195.329 178.063V180.429C195.329 180.112 195.477 179.796 195.795 179.521C197.024 178.444 198.868 177.662 201.03 177.218C202.386 176.944 203.658 176.521 204.717 175.887C206.561 174.831 207.472 173.437 207.494 172.022V169.656C207.494 171.05 206.582 172.444 204.739 173.522H204.717Z" fill="#DA73ED"/>
<path d="M164.726 177.514C164.345 177.197 163.942 176.901 163.476 176.648C162.416 176.035 161.166 175.613 159.852 175.338C158.262 175.021 156.821 174.514 155.698 173.86C154.723 173.289 153.96 172.613 153.515 171.853C153.473 171.789 153.451 171.726 153.451 171.641V174.007C153.451 174.007 153.451 174.134 153.494 174.219C153.939 174.979 154.702 175.655 155.677 176.225C156.821 176.88 158.262 177.387 159.83 177.704C161.144 177.958 162.395 178.401 163.454 179.014C163.9 179.267 164.323 179.563 164.684 179.88C165.743 180.788 166.273 181.866 166.273 182.943V180.577C166.273 179.5 165.743 178.422 164.684 177.514H164.726Z" fill="#962DCC"/>
<path d="M125.286 187.675V190.041L168.159 214.715V212.349L125.286 187.675Z" fill="#962DCC"/>
<path d="M168.159 212.349V214.715L210.736 190.041V187.675L168.159 212.349Z" fill="#DA73ED"/>
<path d="M196.261 179.331C195.244 178.76 195.032 177.831 195.795 177.134C197.024 176.057 198.868 175.275 201.03 174.831C202.386 174.557 203.658 174.134 204.717 173.5C208.426 171.346 208.405 167.86 204.654 165.705C204.209 165.452 203.721 165.22 203.17 164.987C200.034 163.762 195.816 163.762 192.68 164.966C190.815 165.705 189.543 166.698 188.929 167.797C188.166 169.043 186.809 170.142 184.965 170.839C183.757 171.303 182.168 171.177 181.151 170.585L167.884 162.959L153.854 171.092C153.536 171.282 153.367 171.557 153.515 171.832C153.96 172.592 154.723 173.268 155.698 173.838C156.842 174.493 158.283 175 159.852 175.317C161.166 175.571 162.416 176.014 163.476 176.627C163.921 176.88 164.345 177.176 164.726 177.493C166.845 179.31 166.845 181.76 164.726 183.556C161.272 186.534 154.193 186.809 150.018 184.401C148.958 183.788 148.174 183.049 147.708 182.288C147.178 181.401 146.309 180.577 145.207 179.943C144.211 179.373 143.024 178.929 141.689 178.676C141.244 178.591 140.735 178.676 140.396 178.887L125.265 187.654L168.117 212.328L210.694 187.654L196.219 179.331H196.261Z" fill="#FFBBFA"/>
<path style="mix-blend-mode:screen" d="M249.459 118.731C260.5 72.9596 232.225 26.933 186.306 15.9274C140.387 4.92179 94.2111 33.1049 83.1699 78.876C72.1287 124.647 100.403 170.674 146.322 181.679C192.242 192.685 238.417 164.502 249.459 118.731Z" fill="url(#paint2_radial_108_1147)"/>
<path style="mix-blend-mode:screen" d="M185.62 182.279C195.979 136.35 167.022 90.746 120.944 80.4207C74.8662 70.0953 29.1151 98.9581 18.7563 144.887C8.39746 190.817 37.3537 236.42 83.4318 246.746C129.51 257.071 175.261 228.208 185.62 182.279Z" fill="url(#paint3_radial_108_1147)"/>
<path style="mix-blend-mode:screen" d="M180.6 275.596C227.828 275.596 266.114 237.434 266.114 190.358C266.114 143.282 227.828 105.12 180.6 105.12C133.372 105.12 95.0856 143.282 95.0856 190.358C95.0856 237.434 133.372 275.596 180.6 275.596Z" fill="url(#paint4_radial_108_1147)"/>
<path style="mix-blend-mode:screen" d="M318.532 211.366C351.928 178.079 351.928 124.109 318.532 90.8214C285.137 57.5339 230.993 57.5339 197.597 90.8214C164.202 124.109 164.202 178.079 197.597 211.366C230.993 244.654 285.137 244.654 318.532 211.366Z" fill="url(#paint5_radial_108_1147)"/>
<defs>
<linearGradient id="paint0_linear_108_1147" x1="193.867" y1="120.161" x2="190.815" y2="120.161" gradientUnits="userSpaceOnUse">
<stop stop-color="#DA73ED"/>
<stop offset="0.64" stop-color="#AB42D6"/>
<stop offset="1" stop-color="#962DCC"/>
</linearGradient>
<linearGradient id="paint1_linear_108_1147" x1="137.853" y1="172.085" x2="116.427" y2="172.085" gradientUnits="userSpaceOnUse">
<stop stop-color="#DA73ED"/>
<stop offset="0.44" stop-color="#AB42D6"/>
<stop offset="0.68" stop-color="#962DCC"/>
<stop offset="0.75" stop-color="#9A31CE"/>
<stop offset="0.83" stop-color="#A73FD4"/>
<stop offset="0.92" stop-color="#BD55DF"/>
<stop offset="1" stop-color="#DA73ED"/>
</linearGradient>
<radialGradient id="paint2_radial_108_1147" cx="0" cy="0" r="1" gradientUnits="userSpaceOnUse" gradientTransform="translate(166.33 98.7949) scale(85.5141 85.2381)">
<stop stop-color="#DC3AF5"/>
<stop offset="0.05" stop-color="#B32FC7"/>
<stop offset="0.09" stop-color="#8C259C"/>
<stop offset="0.14" stop-color="#6A1C77"/>
<stop offset="0.2" stop-color="#4D1456"/>
<stop offset="0.25" stop-color="#350E3B"/>
<stop offset="0.32" stop-color="#210825"/>
<stop offset="0.4" stop-color="#120414"/>
<stop offset="0.49" stop-color="#070208"/>
<stop offset="0.63" stop-color="#010001"/>
<stop offset="1"/>
</radialGradient>
<radialGradient id="paint3_radial_108_1147" cx="0" cy="0" r="1" gradientUnits="userSpaceOnUse" gradientTransform="translate(102.193 163.565) scale(85.5141 85.2381)">
<stop stop-color="#DC3AF5"/>
<stop offset="0.05" stop-color="#B32FC7"/>
<stop offset="0.09" stop-color="#8C259C"/>
<stop offset="0.14" stop-color="#6A1C77"/>
<stop offset="0.2" stop-color="#4D1456"/>
<stop offset="0.25" stop-color="#350E3B"/>
<stop offset="0.32" stop-color="#210825"/>
<stop offset="0.4" stop-color="#120414"/>
<stop offset="0.49" stop-color="#070208"/>
<stop offset="0.63" stop-color="#010001"/>
<stop offset="1"/>
</radialGradient>
<radialGradient id="paint4_radial_108_1147" cx="0" cy="0" r="1" gradientUnits="userSpaceOnUse" gradientTransform="translate(180.6 190.358) scale(85.5141 85.2381)">
<stop stop-color="#DC3AF5"/>
<stop offset="0.05" stop-color="#B32FC7"/>
<stop offset="0.09" stop-color="#8C259C"/>
<stop offset="0.14" stop-color="#6A1C77"/>
<stop offset="0.2" stop-color="#4D1456"/>
<stop offset="0.25" stop-color="#350E3B"/>
<stop offset="0.32" stop-color="#210825"/>
<stop offset="0.4" stop-color="#120414"/>
<stop offset="0.49" stop-color="#070208"/>
<stop offset="0.63" stop-color="#010001"/>
<stop offset="1"/>
</radialGradient>
<radialGradient id="paint5_radial_108_1147" cx="0" cy="0" r="1" gradientUnits="userSpaceOnUse" gradientTransform="translate(258.063 151.102) scale(85.5141 85.2381)">
<stop stop-color="#F58E11"/>
<stop offset="0.05" stop-color="#C7740E"/>
<stop offset="0.09" stop-color="#9C5B0B"/>
<stop offset="0.14" stop-color="#774508"/>
<stop offset="0.2" stop-color="#563206"/>
<stop offset="0.25" stop-color="#3B2204"/>
<stop offset="0.32" stop-color="#251502"/>
<stop offset="0.4" stop-color="#140B01"/>
<stop offset="0.49" stop-color="#080500"/>
<stop offset="0.63" stop-color="#010100"/>
<stop offset="1"/>
</radialGradient>
</defs>
</svg>
