<svg width="308" height="308" viewBox="0 0 308 308" fill="none" xmlns="http://www.w3.org/2000/svg">
<rect width="308" height="308" fill="#1E1E1E"/>
<g clip-path="url(#clip0_0_1)">
<rect width="1440" height="1024" transform="translate(-994 -580)" fill="black"/>
<g filter="url(#filter0_d_0_1)">
<rect x="4" width="300" height="300" rx="20" fill="url(#paint0_linear_0_1)"/>
</g>
<g clip-path="url(#clip1_0_1)">
<g style="mix-blend-mode:multiply" opacity="0.6">
<path d="M197.425 177.157L194.924 178.586L197.974 180.325L179.912 190.757L176.862 189.018L174.383 190.448L224.209 219.006L226.687 217.577L218.919 213.123L236.981 202.69L244.749 207.144L247.251 205.715L197.425 177.157ZM182.271 192.115L200.333 181.682L205.241 184.493L187.179 194.925L182.271 192.115ZM189.61 196.331L207.672 185.898L212.58 188.709L194.518 199.141L189.61 196.331ZM196.949 200.523L215.011 190.09L219.92 192.901L201.858 203.333L196.949 200.523ZM204.288 204.715L222.35 194.282L227.259 197.093L209.197 207.525L204.288 204.715ZM216.536 211.741L211.627 208.931L229.689 198.498L234.598 201.309L216.536 211.741Z" fill="#3A0155"/>
<path d="M234.646 159.722L99.9194 237.465C96.774 239.275 91.6986 239.275 88.577 237.465L70.8248 227.223C67.6794 225.413 67.6794 222.483 70.8248 220.673L205.551 142.93C208.696 141.12 213.772 141.12 216.893 142.93L234.646 153.172C237.791 154.982 237.791 157.912 234.646 159.722Z" fill="#3A0155"/>
</g>
<path d="M209.53 27.8878C205.408 25.5059 199.808 25.7917 193.637 29.3645C192.565 29.9838 191.54 30.6745 190.515 31.4129L208.291 41.7262C209.316 40.964 223.184 35.8193 227.306 38.2011L209.53 27.8878Z" fill="url(#paint1_linear_0_1)"/>
<path d="M185.654 26.5778C180.841 23.791 174.312 24.1245 167.092 28.2927C165.019 29.4836 163.017 30.9603 161.087 32.6038L178.863 42.9171C180.793 41.2737 198.641 34.1043 203.43 36.9149L185.654 26.6016V26.5778Z" fill="url(#paint2_linear_0_1)"/>
<path d="M156.369 28.5069C150.293 24.9818 142.024 25.4105 132.898 30.6744C115.265 40.8448 100.92 65.33 99.7526 86.576L104.304 94.2693L117.529 96.8893L174.145 38.8202L156.369 28.5069Z" fill="url(#paint3_linear_0_1)"/>
<path d="M108.426 91.6017L99.7526 86.5761C96.6549 86.4808 93.1521 87.4335 89.411 89.5772C76.9487 96.7703 66.9408 114.539 67.0123 129.306C67.0599 136.761 69.681 142.025 73.8749 144.455L91.6509 154.768L117.505 96.8894L108.402 91.6017H108.426Z" fill="url(#paint4_linear_0_1)"/>
<path d="M211.413 39.6777C210.341 40.2969 209.316 40.9877 208.291 41.726C203.788 34.4376 194.971 32.7704 184.868 38.6058C182.795 39.7968 180.793 41.2735 178.863 42.917C172.835 35.4618 162.445 34.2233 150.674 41.0115C133.041 51.1819 118.696 75.6671 117.529 96.9131C114.431 96.8178 110.928 97.7705 107.187 99.9142C94.7248 107.107 84.7168 124.876 84.7883 139.643C84.8598 154.387 95.0346 160.508 107.473 153.339L211.699 93.3641C224.209 86.1472 234.288 68.2835 234.193 53.4923C234.145 46.0848 231.572 40.8448 227.449 38.3438C223.327 35.8429 217.656 36.1049 211.389 39.7253L211.413 39.6777Z" fill="#FDC8CA"/>
<path style="mix-blend-mode:screen" opacity="0.4" d="M227.473 38.2962C223.351 35.7953 217.68 36.0573 211.413 39.6777C210.341 40.2969 209.316 40.9877 208.291 41.726C203.788 34.4376 194.971 32.7704 184.868 38.6058C182.795 39.7968 180.793 41.2735 178.863 42.917C176.742 40.2969 174.097 38.4629 171.024 37.4626L155.559 125.59L211.723 93.3165C224.233 86.0996 234.312 68.2358 234.217 53.4446C234.169 46.0372 231.596 40.7971 227.473 38.2962Z" fill="url(#paint5_linear_0_1)"/>
<path style="mix-blend-mode:screen" d="M226.735 37.82C220.325 34.3902 213.962 37.2484 208.315 41.7262C211.46 40.0351 220.444 34.2472 227.473 38.2964C227.473 38.2964 227.211 38.1296 226.735 37.82Z" fill="url(#paint6_radial_0_1)"/>
<path style="mix-blend-mode:screen" d="M84.836 137.118C84.836 138.714 84.8121 139.619 84.8121 139.619C84.8121 139.619 84.8598 138.714 84.9789 137.118C87.0282 115.182 105.924 96.3653 117.552 96.8893C104.637 95.6031 86.0274 115.968 84.8598 137.118H84.836Z" fill="url(#paint7_radial_0_1)"/>
<path style="mix-blend-mode:screen" d="M175.885 39.9398C159.252 25.9347 120.936 54.2785 117.529 96.8894C122.128 55.779 158.299 26.7683 175.789 40.0351C176.862 40.8211 177.624 41.5595 178.101 42.1073C178.577 42.6313 178.839 42.9171 178.839 42.9171C178.839 42.9171 178.577 42.6313 178.124 42.0835C177.672 41.5357 176.909 40.7735 175.861 39.9398H175.885Z" fill="url(#paint8_radial_0_1)"/>
<path style="mix-blend-mode:screen" d="M178.863 42.917C187.68 35.7477 199.904 31.7224 207.434 40.5828C208.005 41.3212 208.315 41.7499 208.315 41.7499C208.315 41.7499 208.029 41.2974 207.553 40.5114C200.118 30.341 186.345 35.3666 178.887 42.917H178.863Z" fill="url(#paint9_radial_0_1)"/>
<path d="M244.773 205.81L242.318 205.263L237.124 183.088L239.578 183.636L244.773 205.81Z" fill="#B76716"/>
<path d="M238.887 180.611L236.433 180.063L232.239 162.152L234.693 162.723L238.887 180.611Z" fill="#B76716"/>
<path d="M220.825 191.043L218.347 190.495L236.433 180.063L238.887 180.611L220.825 191.043Z" fill="#D88121"/>
<path d="M234.002 159.698L231.548 159.15L227.354 141.215L229.808 141.763L234.002 159.698Z" fill="#B76716"/>
<path d="M215.916 170.13L213.462 169.583L231.548 159.15L234.002 159.698L215.916 170.13Z" fill="#D88121"/>
<path d="M229.094 138.762L226.639 138.214L222.445 120.303L224.9 120.851L229.094 138.762Z" fill="#B76716"/>
<path d="M211.032 149.194L208.577 148.647L226.639 138.214L229.094 138.762L211.032 149.194Z" fill="#D88121"/>
<path d="M224.209 117.849L221.754 117.302L217.561 99.3903L220.015 99.9381L224.209 117.849Z" fill="#B76716"/>
<path d="M206.147 128.282L203.692 127.71L221.754 117.302L224.209 117.849L206.147 128.282Z" fill="#D88121"/>
<path d="M219.324 96.937L216.87 96.3892L212.676 78.454L215.13 79.0018L219.324 96.937Z" fill="#B76716"/>
<path d="M214.415 75.9768L211.961 75.429L209.054 63.0435L211.508 63.5913L214.415 75.9768Z" fill="#B76716"/>
<path d="M211.508 63.5914L209.054 63.0436L211.556 61.5907L214.01 62.1385L211.508 63.5914Z" fill="#D88121"/>
<path d="M201.238 107.345L198.784 106.798L216.87 96.389L219.324 96.9369L201.238 107.345Z" fill="#D88121"/>
<path d="M196.353 86.4092L193.899 85.8614L211.961 75.429L214.415 75.9768L196.353 86.4092Z" fill="#D88121"/>
<path d="M190.968 75.4529L188.514 74.9051L190.992 73.476L193.446 74.0238L190.968 75.4529Z" fill="#D88121"/>
<path d="M224.233 217.672L221.778 217.124L188.514 74.9052L190.968 75.453L224.233 217.672Z" fill="#B76716"/>
<path d="M211.508 63.5913L214.01 62.1622L247.275 204.381L244.773 205.81L239.578 183.612L221.516 194.044L226.711 216.243L224.233 217.672L190.968 75.4529L193.446 74.0237L196.353 86.4093L214.415 75.9769L211.508 63.5913ZM233.978 159.698L229.785 141.763L211.723 152.195L215.916 170.131L233.978 159.698ZM219.3 96.9131L215.106 78.978L197.044 89.4104L201.238 107.346L219.3 96.9131ZM238.863 180.611L234.669 162.699L216.607 173.132L220.801 191.043L238.863 180.611ZM224.185 117.826L219.991 99.9143L201.929 110.347L206.123 128.258L224.185 117.826ZM229.07 138.738L224.876 120.827L206.814 131.259L211.008 149.171L229.07 138.738Z" fill="#FFAA3B"/>
<path style="mix-blend-mode:screen" d="M150.364 137.833C203.636 137.833 246.822 94.6659 246.822 41.4165C246.822 -11.8329 203.636 -55 150.364 -55C97.0922 -55 53.9066 -11.8329 53.9066 41.4165C53.9066 94.6659 97.0922 137.833 150.364 137.833Z" fill="url(#paint10_radial_0_1)"/>
<path style="mix-blend-mode:screen" d="M232.577 74.3948C253.943 53.0382 253.943 18.4124 232.577 -2.9441C211.212 -24.3006 176.571 -24.3006 155.205 -2.9441C133.84 18.4124 133.84 53.0382 155.205 74.3948C176.571 95.7513 211.212 95.7513 232.577 74.3948Z" fill="url(#paint11_radial_0_1)"/>
<path style="mix-blend-mode:screen" d="M137.058 146.349C158.423 124.992 158.423 90.3667 137.058 69.0101C115.692 47.6536 81.0516 47.6536 59.6859 69.0101C38.3203 90.3667 38.3203 124.992 59.686 146.349C81.0516 167.706 115.692 167.706 137.058 146.349Z" fill="url(#paint12_radial_0_1)"/>
<path style="mix-blend-mode:screen" d="M244.344 63.2803C258.629 49.0023 258.628 25.8531 244.344 11.5751C230.06 -2.70288 206.901 -2.70288 192.617 11.5751C178.333 25.8531 178.333 49.0023 192.617 63.2803C206.901 77.5583 230.06 77.5583 244.344 63.2803Z" fill="url(#paint13_radial_0_1)"/>
<path d="M61.8533 250.168C60.3013 250.168 58.8693 249.808 57.5573 249.088C56.2613 248.352 55.2293 247.336 54.4613 246.04C53.7093 244.728 53.3333 243.256 53.3333 241.624C53.3333 239.992 53.7093 238.528 54.4613 237.232C55.2293 235.936 56.2613 234.928 57.5573 234.208C58.8693 233.472 60.3013 233.104 61.8533 233.104C63.4213 233.104 64.8533 233.472 66.1493 234.208C67.4613 234.928 68.4933 235.936 69.2453 237.232C69.9973 238.528 70.3733 239.992 70.3733 241.624C70.3733 243.256 69.9973 244.728 69.2453 246.04C68.4933 247.336 67.4613 248.352 66.1493 249.088C64.8533 249.808 63.4213 250.168 61.8533 250.168ZM61.8533 247.792C62.9573 247.792 63.9413 247.544 64.8053 247.048C65.6693 246.536 66.3413 245.816 66.8213 244.888C67.3173 243.944 67.5653 242.856 67.5653 241.624C67.5653 240.392 67.3173 239.312 66.8213 238.384C66.3413 237.456 65.6693 236.744 64.8053 236.248C63.9413 235.752 62.9573 235.504 61.8533 235.504C60.7493 235.504 59.7653 235.752 58.9013 236.248C58.0373 236.744 57.3573 237.456 56.8613 238.384C56.3813 239.312 56.1413 240.392 56.1413 241.624C56.1413 242.856 56.3813 243.944 56.8613 244.888C57.3573 245.816 58.0373 246.536 58.9013 247.048C59.7653 247.544 60.7493 247.792 61.8533 247.792ZM76.2576 239.008V246.328C76.2576 246.824 76.3696 247.184 76.5936 247.408C76.8336 247.616 77.2336 247.72 77.7936 247.72H79.4736V250H77.3136C76.0816 250 75.1376 249.712 74.4816 249.136C73.8256 248.56 73.4976 247.624 73.4976 246.328V239.008H71.9376V236.776H73.4976V233.488H76.2576V236.776H79.4736V239.008H76.2576ZM83.3873 235.024C82.8913 235.024 82.4753 234.856 82.1393 234.52C81.8033 234.184 81.6353 233.768 81.6353 233.272C81.6353 232.776 81.8033 232.36 82.1393 232.024C82.4753 231.688 82.8913 231.52 83.3873 231.52C83.8673 231.52 84.2753 231.688 84.6113 232.024C84.9473 232.36 85.1153 232.776 85.1153 233.272C85.1153 233.768 84.9473 234.184 84.6113 234.52C84.2753 234.856 83.8673 235.024 83.3873 235.024ZM84.7313 236.776V250H81.9953V236.776H84.7313ZM104.331 236.56C105.371 236.56 106.299 236.776 107.115 237.208C107.947 237.64 108.595 238.28 109.059 239.128C109.539 239.976 109.779 241 109.779 242.2V250H107.067V242.608C107.067 241.424 106.771 240.52 106.179 239.896C105.587 239.256 104.779 238.936 103.755 238.936C102.731 238.936 101.915 239.256 101.307 239.896C100.715 240.52 100.419 241.424 100.419 242.608V250H97.7074V242.608C97.7074 241.424 97.4114 240.52 96.8194 239.896C96.2274 239.256 95.4194 238.936 94.3954 238.936C93.3714 238.936 92.5554 239.256 91.9474 239.896C91.3554 240.52 91.0594 241.424 91.0594 242.608V250H88.3234V236.776H91.0594V238.288C91.5074 237.744 92.0754 237.32 92.7634 237.016C93.4514 236.712 94.1874 236.56 94.9714 236.56C96.0274 236.56 96.9714 236.784 97.8034 237.232C98.6354 237.68 99.2754 238.328 99.7234 239.176C100.123 238.376 100.747 237.744 101.595 237.28C102.443 236.8 103.355 236.56 104.331 236.56ZM114.653 235.024C114.157 235.024 113.741 234.856 113.405 234.52C113.069 234.184 112.901 233.768 112.901 233.272C112.901 232.776 113.069 232.36 113.405 232.024C113.741 231.688 114.157 231.52 114.653 231.52C115.133 231.52 115.541 231.688 115.877 232.024C116.213 232.36 116.381 232.776 116.381 233.272C116.381 233.768 116.213 234.184 115.877 234.52C115.541 234.856 115.133 235.024 114.653 235.024ZM115.997 236.776V250H113.261V236.776H115.997ZM122.013 247.768H128.013V250H118.845V247.768L124.869 239.008H118.845V236.776H128.013V239.008L122.013 247.768ZM129.974 243.328C129.974 242 130.246 240.824 130.79 239.8C131.35 238.776 132.102 237.984 133.046 237.424C134.006 236.848 135.062 236.56 136.214 236.56C137.254 236.56 138.158 236.768 138.926 237.184C139.71 237.584 140.334 238.088 140.798 238.696V236.776H143.558V250H140.798V248.032C140.334 248.656 139.702 249.176 138.902 249.592C138.102 250.008 137.19 250.216 136.166 250.216C135.03 250.216 133.99 249.928 133.046 249.352C132.102 248.76 131.35 247.944 130.79 246.904C130.246 245.848 129.974 244.656 129.974 243.328ZM140.798 243.376C140.798 242.464 140.606 241.672 140.222 241C139.854 240.328 139.366 239.816 138.758 239.464C138.15 239.112 137.494 238.936 136.79 238.936C136.086 238.936 135.43 239.112 134.822 239.464C134.214 239.8 133.718 240.304 133.334 240.976C132.966 241.632 132.782 242.416 132.782 243.328C132.782 244.24 132.966 245.04 133.334 245.728C133.718 246.416 134.214 246.944 134.822 247.312C135.446 247.664 136.102 247.84 136.79 247.84C137.494 247.84 138.15 247.664 138.758 247.312C139.366 246.96 139.854 246.448 140.222 245.776C140.606 245.088 140.798 244.288 140.798 243.376ZM152.72 247.912C154.304 247.912 155.352 247.216 155.864 245.824H158.816C158.464 247.04 157.832 248.04 156.92 248.824C156.024 249.592 154.896 250.04 153.536 250.168V251.152C154.464 251.152 155.216 251.368 155.792 251.8C156.368 252.248 156.656 252.872 156.656 253.672C156.656 254.472 156.368 255.104 155.792 255.568C155.216 256.048 154.488 256.288 153.608 256.288H150.44V254.56H153.056C153.504 254.56 153.84 254.496 154.064 254.368C154.288 254.24 154.4 254.008 154.4 253.672C154.4 253.336 154.288 253.104 154.064 252.976C153.84 252.848 153.504 252.784 153.056 252.784H151.736V250.144C150.648 250.016 149.688 249.656 148.856 249.064C148.024 248.456 147.376 247.672 146.912 246.712C146.464 245.736 146.24 244.624 146.24 243.376C146.24 242.016 146.512 240.824 147.056 239.8C147.616 238.76 148.384 237.96 149.36 237.4C150.336 236.84 151.456 236.56 152.72 236.56C154.32 236.56 155.64 236.944 156.68 237.712C157.736 238.464 158.448 239.544 158.816 240.952H155.864C155.624 240.296 155.24 239.784 154.712 239.416C154.184 239.048 153.52 238.864 152.72 238.864C151.6 238.864 150.704 239.264 150.032 240.064C149.376 240.848 149.048 241.952 149.048 243.376C149.048 244.8 149.376 245.912 150.032 246.712C150.704 247.512 151.6 247.912 152.72 247.912ZM160.63 243.328C160.63 242 160.902 240.824 161.446 239.8C162.006 238.776 162.758 237.984 163.702 237.424C164.662 236.848 165.718 236.56 166.87 236.56C167.91 236.56 168.814 236.768 169.582 237.184C170.366 237.584 170.99 238.088 171.454 238.696V236.776H174.214V250H171.454V248.032C170.99 248.656 170.358 249.176 169.558 249.592C168.758 250.008 167.846 250.216 166.822 250.216C165.686 250.216 164.646 249.928 163.702 249.352C162.758 248.76 162.006 247.944 161.446 246.904C160.902 245.848 160.63 244.656 160.63 243.328ZM171.454 243.376C171.454 242.464 171.262 241.672 170.878 241C170.51 240.328 170.022 239.816 169.414 239.464C168.806 239.112 168.15 238.936 167.446 238.936C166.742 238.936 166.086 239.112 165.478 239.464C164.87 239.8 164.374 240.304 163.99 240.976C163.622 241.632 163.438 242.416 163.438 243.328C163.438 244.24 163.622 245.04 163.99 245.728C164.374 246.416 164.87 246.944 165.478 247.312C166.102 247.664 166.758 247.84 167.446 247.84C168.15 247.84 168.806 247.664 169.414 247.312C170.022 246.96 170.51 246.448 170.878 245.776C171.262 245.088 171.454 244.288 171.454 243.376ZM163.966 235.408C164.094 234.48 164.398 233.784 164.878 233.32C165.358 232.84 165.958 232.6 166.678 232.6C166.982 232.6 167.246 232.648 167.47 232.744C167.694 232.84 167.966 232.984 168.286 233.176C168.526 233.336 168.726 233.456 168.886 233.536C169.062 233.616 169.254 233.656 169.462 233.656C169.734 233.656 169.958 233.576 170.134 233.416C170.326 233.24 170.446 232.984 170.494 232.648H172.03C171.902 233.576 171.598 234.28 171.118 234.76C170.638 235.224 170.038 235.456 169.318 235.456C169.014 235.456 168.742 235.408 168.502 235.312C168.262 235.2 167.998 235.048 167.71 234.856C167.422 234.68 167.198 234.56 167.038 234.496C166.894 234.416 166.726 234.376 166.534 234.376C166.262 234.376 166.03 234.464 165.838 234.64C165.662 234.816 165.55 235.072 165.502 235.408H163.966ZM183.544 250.216C182.296 250.216 181.168 249.936 180.16 249.376C179.152 248.8 178.36 248 177.784 246.976C177.208 245.936 176.92 244.736 176.92 243.376C176.92 242.032 177.216 240.84 177.808 239.8C178.4 238.76 179.208 237.96 180.232 237.4C181.256 236.84 182.4 236.56 183.664 236.56C184.928 236.56 186.072 236.84 187.096 237.4C188.12 237.96 188.928 238.76 189.52 239.8C190.112 240.84 190.408 242.032 190.408 243.376C190.408 244.72 190.104 245.912 189.496 246.952C188.888 247.992 188.056 248.8 187 249.376C185.96 249.936 184.808 250.216 183.544 250.216ZM183.544 247.84C184.248 247.84 184.904 247.672 185.512 247.336C186.136 247 186.64 246.496 187.024 245.824C187.408 245.152 187.6 244.336 187.6 243.376C187.6 242.416 187.416 241.608 187.048 240.952C186.68 240.28 186.192 239.776 185.584 239.44C184.976 239.104 184.32 238.936 183.616 238.936C182.912 238.936 182.256 239.104 181.648 239.44C181.056 239.776 180.584 240.28 180.232 240.952C179.88 241.608 179.704 242.416 179.704 243.376C179.704 244.8 180.064 245.904 180.784 246.688C181.52 247.456 182.44 247.84 183.544 247.84ZM202.083 238.72C202.547 238.112 203.179 237.6 203.979 237.184C204.779 236.768 205.683 236.56 206.691 236.56C207.843 236.56 208.891 236.848 209.835 237.424C210.795 237.984 211.547 238.776 212.091 239.8C212.635 240.824 212.907 242 212.907 243.328C212.907 244.656 212.635 245.848 212.091 246.904C211.547 247.944 210.795 248.76 209.835 249.352C208.891 249.928 207.843 250.216 206.691 250.216C205.683 250.216 204.787 250.016 204.003 249.616C203.219 249.2 202.579 248.688 202.083 248.08V256.288H199.347V236.776H202.083V238.72ZM210.123 243.328C210.123 242.416 209.931 241.632 209.547 240.976C209.179 240.304 208.683 239.8 208.059 239.464C207.451 239.112 206.795 238.936 206.091 238.936C205.403 238.936 204.747 239.112 204.123 239.464C203.515 239.816 203.019 240.328 202.635 241C202.267 241.672 202.083 242.464 202.083 243.376C202.083 244.288 202.267 245.088 202.635 245.776C203.019 246.448 203.515 246.96 204.123 247.312C204.747 247.664 205.403 247.84 206.091 247.84C206.795 247.84 207.451 247.664 208.059 247.312C208.683 246.944 209.179 246.416 209.547 245.728C209.931 245.04 210.123 244.24 210.123 243.328ZM214.701 243.328C214.701 242 214.973 240.824 215.517 239.8C216.077 238.776 216.829 237.984 217.773 237.424C218.733 236.848 219.789 236.56 220.941 236.56C221.981 236.56 222.885 236.768 223.653 237.184C224.437 237.584 225.061 238.088 225.525 238.696V236.776H228.285V250H225.525V248.032C225.061 248.656 224.429 249.176 223.629 249.592C222.829 250.008 221.917 250.216 220.893 250.216C219.757 250.216 218.717 249.928 217.773 249.352C216.829 248.76 216.077 247.944 215.517 246.904C214.973 245.848 214.701 244.656 214.701 243.328ZM225.525 243.376C225.525 242.464 225.333 241.672 224.949 241C224.581 240.328 224.093 239.816 223.485 239.464C222.877 239.112 222.221 238.936 221.517 238.936C220.813 238.936 220.157 239.112 219.549 239.464C218.941 239.8 218.445 240.304 218.061 240.976C217.693 241.632 217.509 242.416 217.509 243.328C217.509 244.24 217.693 245.04 218.061 245.728C218.445 246.416 218.941 246.944 219.549 247.312C220.173 247.664 220.829 247.84 221.517 247.84C222.221 247.84 222.877 247.664 223.485 247.312C224.093 246.96 224.581 246.448 224.949 245.776C225.333 245.088 225.525 244.288 225.525 243.376ZM234.614 238.696C235.014 238.024 235.542 237.504 236.198 237.136C236.87 236.752 237.662 236.56 238.574 236.56V239.392H237.878C236.806 239.392 235.99 239.664 235.43 240.208C234.886 240.752 234.614 241.696 234.614 243.04V250H231.878V236.776H234.614V238.696ZM240.177 243.328C240.177 242 240.449 240.824 240.993 239.8C241.553 238.776 242.305 237.984 243.249 237.424C244.209 236.848 245.265 236.56 246.417 236.56C247.457 236.56 248.361 236.768 249.129 237.184C249.913 237.584 250.537 238.088 251.001 238.696V236.776H253.761V250H251.001V248.032C250.537 248.656 249.905 249.176 249.105 249.592C248.305 250.008 247.393 250.216 246.369 250.216C245.233 250.216 244.193 249.928 243.249 249.352C242.305 248.76 241.553 247.944 240.993 246.904C240.449 245.848 240.177 244.656 240.177 243.328ZM251.001 243.376C251.001 242.464 250.809 241.672 250.425 241C250.057 240.328 249.569 239.816 248.961 239.464C248.353 239.112 247.697 238.936 246.993 238.936C246.289 238.936 245.633 239.112 245.025 239.464C244.417 239.8 243.921 240.304 243.537 240.976C243.169 241.632 242.985 242.416 242.985 243.328C242.985 244.24 243.169 245.04 243.537 245.728C243.921 246.416 244.417 246.944 245.025 247.312C245.649 247.664 246.305 247.84 246.993 247.84C247.697 247.84 248.353 247.664 248.961 247.312C249.569 246.96 250.057 246.448 250.425 245.776C250.809 245.088 251.001 244.288 251.001 243.376ZM124.583 263.12C124.151 262.288 123.551 261.664 122.783 261.248C122.015 260.816 121.127 260.6 120.119 260.6C119.015 260.6 118.031 260.848 117.167 261.344C116.303 261.84 115.623 262.544 115.127 263.456C114.647 264.368 114.407 265.424 114.407 266.624C114.407 267.824 114.647 268.888 115.127 269.816C115.623 270.728 116.303 271.432 117.167 271.928C118.031 272.424 119.015 272.672 120.119 272.672C121.607 272.672 122.815 272.256 123.743 271.424C124.671 270.592 125.239 269.464 125.447 268.04H119.183V265.856H128.375V267.992C128.199 269.288 127.735 270.48 126.983 271.568C126.247 272.656 125.279 273.528 124.079 274.184C122.895 274.824 121.575 275.144 120.119 275.144C118.551 275.144 117.119 274.784 115.823 274.064C114.527 273.328 113.495 272.312 112.727 271.016C111.975 269.72 111.599 268.256 111.599 266.624C111.599 264.992 111.975 263.528 112.727 262.232C113.495 260.936 114.527 259.928 115.823 259.208C117.135 258.472 118.567 258.104 120.119 258.104C121.895 258.104 123.471 258.544 124.847 259.424C126.239 260.288 127.247 261.52 127.871 263.12H124.583ZM136.809 275.216C135.561 275.216 134.433 274.936 133.425 274.376C132.417 273.8 131.625 273 131.049 271.976C130.473 270.936 130.185 269.736 130.185 268.376C130.185 267.032 130.481 265.84 131.073 264.8C131.665 263.76 132.473 262.96 133.497 262.4C134.521 261.84 135.665 261.56 136.929 261.56C138.193 261.56 139.337 261.84 140.361 262.4C141.385 262.96 142.193 263.76 142.785 264.8C143.377 265.84 143.673 267.032 143.673 268.376C143.673 269.72 143.369 270.912 142.761 271.952C142.153 272.992 141.321 273.8 140.265 274.376C139.225 274.936 138.073 275.216 136.809 275.216ZM136.809 272.84C137.513 272.84 138.169 272.672 138.777 272.336C139.401 272 139.905 271.496 140.289 270.824C140.673 270.152 140.865 269.336 140.865 268.376C140.865 267.416 140.681 266.608 140.313 265.952C139.945 265.28 139.457 264.776 138.849 264.44C138.241 264.104 137.585 263.936 136.881 263.936C136.177 263.936 135.521 264.104 134.913 264.44C134.321 264.776 133.849 265.28 133.497 265.952C133.145 266.608 132.969 267.416 132.969 268.376C132.969 269.8 133.329 270.904 134.049 271.688C134.785 272.456 135.705 272.84 136.809 272.84ZM152.114 275.216C150.866 275.216 149.738 274.936 148.73 274.376C147.722 273.8 146.93 273 146.354 271.976C145.778 270.936 145.49 269.736 145.49 268.376C145.49 267.032 145.786 265.84 146.378 264.8C146.97 263.76 147.778 262.96 148.802 262.4C149.826 261.84 150.97 261.56 152.234 261.56C153.498 261.56 154.642 261.84 155.666 262.4C156.69 262.96 157.498 263.76 158.09 264.8C158.682 265.84 158.978 267.032 158.978 268.376C158.978 269.72 158.674 270.912 158.066 271.952C157.458 272.992 156.626 273.8 155.57 274.376C154.53 274.936 153.378 275.216 152.114 275.216ZM152.114 272.84C152.818 272.84 153.474 272.672 154.082 272.336C154.706 272 155.21 271.496 155.594 270.824C155.978 270.152 156.17 269.336 156.17 268.376C156.17 267.416 155.986 266.608 155.618 265.952C155.25 265.28 154.762 264.776 154.154 264.44C153.546 264.104 152.89 263.936 152.186 263.936C151.482 263.936 150.826 264.104 150.218 264.44C149.626 264.776 149.154 265.28 148.802 265.952C148.45 266.608 148.274 267.416 148.274 268.376C148.274 269.8 148.634 270.904 149.354 271.688C150.09 272.456 151.01 272.84 152.114 272.84ZM167.011 261.56C168.035 261.56 168.939 261.768 169.723 262.184C170.523 262.584 171.147 263.088 171.595 263.696V261.776H174.355V275.216C174.355 276.432 174.099 277.512 173.587 278.456C173.075 279.416 172.331 280.168 171.355 280.712C170.395 281.256 169.243 281.528 167.899 281.528C166.107 281.528 164.619 281.104 163.435 280.256C162.251 279.424 161.579 278.288 161.419 276.848H164.131C164.339 277.536 164.779 278.088 165.451 278.504C166.139 278.936 166.955 279.152 167.899 279.152C169.003 279.152 169.891 278.816 170.563 278.144C171.251 277.472 171.595 276.496 171.595 275.216V273.008C171.131 273.632 170.499 274.16 169.699 274.592C168.915 275.008 168.019 275.216 167.011 275.216C165.859 275.216 164.803 274.928 163.843 274.352C162.899 273.76 162.147 272.944 161.587 271.904C161.043 270.848 160.771 269.656 160.771 268.328C160.771 267 161.043 265.824 161.587 264.8C162.147 263.776 162.899 262.984 163.843 262.424C164.803 261.848 165.859 261.56 167.011 261.56ZM171.595 268.376C171.595 267.464 171.403 266.672 171.019 266C170.651 265.328 170.163 264.816 169.555 264.464C168.947 264.112 168.291 263.936 167.587 263.936C166.883 263.936 166.227 264.112 165.619 264.464C165.011 264.8 164.515 265.304 164.131 265.976C163.763 266.632 163.579 267.416 163.579 268.328C163.579 269.24 163.763 270.04 164.131 270.728C164.515 271.416 165.011 271.944 165.619 272.312C166.243 272.664 166.899 272.84 167.587 272.84C168.291 272.84 168.947 272.664 169.555 272.312C170.163 271.96 170.651 271.448 171.019 270.776C171.403 270.088 171.595 269.288 171.595 268.376ZM180.684 257.24V275H177.948V257.24H180.684ZM196.397 268.064C196.397 268.56 196.365 269.008 196.301 269.408H186.197C186.277 270.464 186.669 271.312 187.373 271.952C188.077 272.592 188.941 272.912 189.965 272.912C191.437 272.912 192.477 272.296 193.085 271.064H196.037C195.637 272.28 194.909 273.28 193.853 274.064C192.813 274.832 191.517 275.216 189.965 275.216C188.701 275.216 187.565 274.936 186.557 274.376C185.565 273.8 184.781 273 184.205 271.976C183.645 270.936 183.365 269.736 183.365 268.376C183.365 267.016 183.637 265.824 184.181 264.8C184.741 263.76 185.517 262.96 186.509 262.4C187.517 261.84 188.669 261.56 189.965 261.56C191.213 261.56 192.325 261.832 193.301 262.376C194.277 262.92 195.037 263.688 195.581 264.68C196.125 265.656 196.397 266.784 196.397 268.064ZM193.541 267.2C193.525 266.192 193.165 265.384 192.461 264.776C191.757 264.168 190.885 263.864 189.845 263.864C188.901 263.864 188.093 264.168 187.421 264.776C186.749 265.368 186.349 266.176 186.221 267.2H193.541Z" fill="white"/>
</g>
</g>
<defs>
<filter id="filter0_d_0_1" x="0" y="0" width="308" height="308" filterUnits="userSpaceOnUse" color-interpolation-filters="sRGB">
<feFlood flood-opacity="0" result="BackgroundImageFix"/>
<feColorMatrix in="SourceAlpha" type="matrix" values="0 0 0 0 0 0 0 0 0 0 0 0 0 0 0 0 0 0 127 0" result="hardAlpha"/>
<feOffset dy="4"/>
<feGaussianBlur stdDeviation="2"/>
<feComposite in2="hardAlpha" operator="out"/>
<feColorMatrix type="matrix" values="0 0 0 0 0 0 0 0 0 0 0 0 0 0 0 0 0 0 0.25 0"/>
<feBlend mode="normal" in2="BackgroundImageFix" result="effect1_dropShadow_0_1"/>
<feBlend mode="normal" in="SourceGraphic" in2="effect1_dropShadow_0_1" result="shape"/>
</filter>
<linearGradient id="paint0_linear_0_1" x1="24.25" y1="38.25" x2="352" y2="396.75" gradientUnits="userSpaceOnUse">
<stop/>
<stop offset="1" stop-color="#1C1C1C"/>
</linearGradient>
<linearGradient id="paint1_linear_0_1" x1="212.08" y1="29.3407" x2="205.77" y2="40.2756" gradientUnits="userSpaceOnUse">
<stop stop-color="#FAA9E3"/>
<stop offset="1" stop-color="#ED9AD5"/>
</linearGradient>
<linearGradient id="paint2_linear_0_1" x1="186.655" y1="27.1494" x2="177.892" y2="42.3487" gradientUnits="userSpaceOnUse">
<stop stop-color="#FAA9E3"/>
<stop offset="1" stop-color="#ED9AD5"/>
</linearGradient>
<linearGradient id="paint3_linear_0_1" x1="153.581" y1="26.8873" x2="112.098" y2="98.7624" gradientUnits="userSpaceOnUse">
<stop stop-color="#FAA9E3"/>
<stop offset="1" stop-color="#ED9AD5"/>
</linearGradient>
<linearGradient id="paint4_linear_0_1" x1="105.996" y1="90.1726" x2="74.4431" y2="144.847" gradientUnits="userSpaceOnUse">
<stop stop-color="#FAA9E3"/>
<stop offset="1" stop-color="#ED9AD5"/>
</linearGradient>
<linearGradient id="paint5_linear_0_1" x1="162.779" y1="42.5835" x2="243.68" y2="151.49" gradientUnits="userSpaceOnUse">
<stop stop-color="#F5E33A"/>
<stop offset="0.05" stop-color="#C7B92F"/>
<stop offset="0.09" stop-color="#9C9125"/>
<stop offset="0.14" stop-color="#776E1C"/>
<stop offset="0.2" stop-color="#565014"/>
<stop offset="0.25" stop-color="#3B360E"/>
<stop offset="0.32" stop-color="#252208"/>
<stop offset="0.4" stop-color="#141204"/>
<stop offset="0.49" stop-color="#080802"/>
<stop offset="0.63" stop-color="#010100"/>
<stop offset="1"/>
</linearGradient>
<radialGradient id="paint6_radial_0_1" cx="0" cy="0" r="1" gradientUnits="userSpaceOnUse" gradientTransform="translate(217.227 36.8911) scale(19.8253 19.8168)">
<stop stop-color="#FDC8CA"/>
<stop offset="0.08" stop-color="#D7AAAC"/>
<stop offset="0.22" stop-color="#9F7D7F"/>
<stop offset="0.36" stop-color="#6E5758"/>
<stop offset="0.5" stop-color="#463738"/>
<stop offset="0.63" stop-color="#271F1F"/>
<stop offset="0.76" stop-color="#110E0E"/>
<stop offset="0.89" stop-color="#040303"/>
<stop offset="1"/>
</radialGradient>
<radialGradient id="paint7_radial_0_1" cx="0" cy="0" r="1" gradientUnits="userSpaceOnUse" gradientTransform="translate(96.6787 109.132) scale(58.4512 58.4263)">
<stop stop-color="#FDC8CA"/>
<stop offset="0.08" stop-color="#D7AAAC"/>
<stop offset="0.22" stop-color="#9F7D7F"/>
<stop offset="0.36" stop-color="#6E5758"/>
<stop offset="0.5" stop-color="#463738"/>
<stop offset="0.63" stop-color="#271F1F"/>
<stop offset="0.76" stop-color="#110E0E"/>
<stop offset="0.89" stop-color="#040303"/>
<stop offset="1"/>
</radialGradient>
<radialGradient id="paint8_radial_0_1" cx="0" cy="0" r="1" gradientUnits="userSpaceOnUse" gradientTransform="translate(146.123 44.1795) scale(60.5958 60.57)">
<stop stop-color="#FDC8CA"/>
<stop offset="0.08" stop-color="#D7AAAC"/>
<stop offset="0.22" stop-color="#9F7D7F"/>
<stop offset="0.36" stop-color="#6E5758"/>
<stop offset="0.5" stop-color="#463738"/>
<stop offset="0.63" stop-color="#271F1F"/>
<stop offset="0.76" stop-color="#110E0E"/>
<stop offset="0.89" stop-color="#040303"/>
<stop offset="1"/>
</radialGradient>
<radialGradient id="paint9_radial_0_1" cx="0" cy="0" r="1" gradientUnits="userSpaceOnUse" gradientTransform="translate(195.948 35.319) scale(45.8221 45.8026)">
<stop stop-color="#FDC8CA"/>
<stop offset="0.08" stop-color="#D7AAAC"/>
<stop offset="0.22" stop-color="#9F7D7F"/>
<stop offset="0.36" stop-color="#6E5758"/>
<stop offset="0.5" stop-color="#463738"/>
<stop offset="0.63" stop-color="#271F1F"/>
<stop offset="0.76" stop-color="#110E0E"/>
<stop offset="0.89" stop-color="#040303"/>
<stop offset="1"/>
</radialGradient>
<radialGradient id="paint10_radial_0_1" cx="0" cy="0" r="1" gradientUnits="userSpaceOnUse" gradientTransform="translate(150.364 41.4165) scale(96.4577 96.4165)">
<stop stop-color="#FFEC3D"/>
<stop offset="0.09" stop-color="#E53DFF"/>
<stop offset="0.1" stop-color="#DC3AF5"/>
<stop offset="0.14" stop-color="#B32FC7"/>
<stop offset="0.18" stop-color="#8C259C"/>
<stop offset="0.22" stop-color="#6A1C77"/>
<stop offset="0.27" stop-color="#4D1456"/>
<stop offset="0.32" stop-color="#350E3B"/>
<stop offset="0.38" stop-color="#210825"/>
<stop offset="0.45" stop-color="#120414"/>
<stop offset="0.54" stop-color="#070208"/>
<stop offset="0.66" stop-color="#010001"/>
<stop offset="1"/>
</radialGradient>
<radialGradient id="paint11_radial_0_1" cx="0" cy="0" r="1" gradientUnits="userSpaceOnUse" gradientTransform="translate(193.902 35.7378) scale(54.7102 54.6869)">
<stop stop-color="#FFEC3D"/>
<stop offset="0.09" stop-color="#E53DFF"/>
<stop offset="0.1" stop-color="#DC3AF5"/>
<stop offset="0.14" stop-color="#B32FC7"/>
<stop offset="0.18" stop-color="#8C259C"/>
<stop offset="0.22" stop-color="#6A1C77"/>
<stop offset="0.27" stop-color="#4D1456"/>
<stop offset="0.32" stop-color="#350E3B"/>
<stop offset="0.38" stop-color="#210825"/>
<stop offset="0.45" stop-color="#120414"/>
<stop offset="0.54" stop-color="#070208"/>
<stop offset="0.66" stop-color="#010001"/>
<stop offset="1"/>
</radialGradient>
<radialGradient id="paint12_radial_0_1" cx="0" cy="0" r="1" gradientUnits="userSpaceOnUse" gradientTransform="translate(98.3725 107.681) scale(54.7102 54.6869)">
<stop stop-color="#FFEC3D"/>
<stop offset="0.09" stop-color="#E53DFF"/>
<stop offset="0.1" stop-color="#DC3AF5"/>
<stop offset="0.14" stop-color="#B32FC7"/>
<stop offset="0.18" stop-color="#8C259C"/>
<stop offset="0.22" stop-color="#6A1C77"/>
<stop offset="0.27" stop-color="#4D1456"/>
<stop offset="0.32" stop-color="#350E3B"/>
<stop offset="0.38" stop-color="#210825"/>
<stop offset="0.45" stop-color="#120414"/>
<stop offset="0.54" stop-color="#070208"/>
<stop offset="0.66" stop-color="#010001"/>
<stop offset="1"/>
</radialGradient>
<radialGradient id="paint13_radial_0_1" cx="0" cy="0" r="1" gradientUnits="userSpaceOnUse" gradientTransform="translate(218.482 37.4134) scale(36.5767 36.5611)">
<stop stop-color="#FFEC3D"/>
<stop offset="0.09" stop-color="#E53DFF"/>
<stop offset="0.1" stop-color="#DC3AF5"/>
<stop offset="0.14" stop-color="#B32FC7"/>
<stop offset="0.18" stop-color="#8C259C"/>
<stop offset="0.22" stop-color="#6A1C77"/>
<stop offset="0.27" stop-color="#4D1456"/>
<stop offset="0.32" stop-color="#350E3B"/>
<stop offset="0.38" stop-color="#210825"/>
<stop offset="0.45" stop-color="#120414"/>
<stop offset="0.54" stop-color="#070208"/>
<stop offset="0.66" stop-color="#010001"/>
<stop offset="1"/>
</radialGradient>
<clipPath id="clip0_0_1">
<rect width="1440" height="1024" fill="white" transform="translate(-994 -580)"/>
</clipPath>
<clipPath id="clip1_0_1">
<rect width="259" height="360" fill="white" transform="translate(0 -39)"/>
</clipPath>
</defs>
</svg>
