<svg width="308" height="308" viewBox="0 0 308 308" fill="none" xmlns="http://www.w3.org/2000/svg">
<rect width="308" height="308" fill="#1E1E1E"/>
<g clip-path="url(#clip0_0_1)">
<rect width="1440" height="1024" transform="translate(-664 -580)" fill="black"/>
<g filter="url(#filter0_d_0_1)">
<rect x="4" width="300" height="300" rx="20" fill="url(#paint0_linear_0_1)"/>
</g>
<path d="M111.224 161.943V171.828C111.182 173.069 112.001 174.309 113.64 175.235L156.04 199.736C159.276 201.608 164.507 201.608 167.722 199.736L210.122 175.046C211.719 174.12 212.517 172.9 212.517 171.681V161.796L111.203 161.922L111.224 161.943Z" fill="url(#paint1_linear_0_1)"/>
<path d="M210.143 158.41L167.743 133.909C164.508 132.037 159.255 132.037 156.061 133.909L113.662 158.599C110.447 160.471 110.447 163.499 113.704 165.392L156.103 189.893C159.339 191.765 164.571 191.765 167.785 189.893L210.185 165.203C213.4 163.331 213.379 160.303 210.143 158.431V158.41Z" fill="#3B223A"/>
<path d="M149.548 190.041C149.548 190.041 149.443 189.851 149.38 189.767C149.317 189.704 149.254 189.641 149.191 189.599L144.169 186.697C144.043 186.613 143.917 186.613 143.854 186.655L140.03 188.884C141.269 191.471 143.118 193.7 145.682 195.488L149.506 193.258C149.506 193.258 149.632 193.111 149.632 192.964V190.377C149.632 190.272 149.611 190.146 149.569 190.041H149.548Z" fill="url(#paint2_linear_0_1)"/>
<path d="M145.346 191.828L140.324 188.926C140.072 188.779 139.862 188.905 139.862 189.178V191.765C139.862 192.06 140.051 192.396 140.303 192.543L145.325 195.446C145.577 195.593 145.766 195.467 145.787 195.193V192.607C145.787 192.312 145.598 191.955 145.346 191.828Z" fill="#2A182A"/>
<path d="M235.65 206.866L207.811 190.777C206.319 189.914 204.449 189.914 202.936 190.777L163.184 213.764C162.238 214.311 161.062 214.311 160.095 213.764L137.635 200.788C137.635 200.788 137.509 200.661 137.509 200.556V197.612C137.509 197.296 137.677 197.023 137.95 196.855L143.202 193.826C144.442 193.111 142.992 190.503 141.711 191.239L136.458 194.268C135.26 194.962 134.525 196.224 134.525 197.612V200.703C134.525 201.776 135.092 202.764 136.017 203.29L158.603 216.33C159.549 216.876 160.578 217.15 161.629 217.15C162.679 217.15 163.73 216.876 164.654 216.33L204.428 193.343C205.016 193.006 205.731 193.006 206.298 193.343L234.137 209.431C234.852 209.852 235.755 209.6 236.175 208.885C236.595 208.169 236.343 207.265 235.629 206.845L235.65 206.866Z" fill="#351D35"/>
<g style="mix-blend-mode:screen">
<path d="M138.664 194.52C139.231 194.184 141.248 193.027 141.984 192.606C142.173 192.501 142.95 192.186 142.572 191.87C142.32 191.66 142.068 191.87 141.837 191.997C141.48 192.207 138.265 194.058 137.845 194.31C137.551 194.478 136.92 194.794 137.109 195.067C137.34 195.383 138.139 194.857 138.664 194.541V194.52Z" fill="#351D35"/>
</g>
<g style="mix-blend-mode:screen">
<path d="M235.02 207.139L207.18 191.05C206.046 190.398 204.638 190.398 203.503 191.05L163.856 213.848C162.196 214.815 161.167 214.584 159.969 214.037C153.855 211.24 139.273 202.092 137.34 201.166C137.172 201.082 136.71 201.271 136.752 201.461C136.752 201.566 157.238 213.575 159.36 214.626C161.062 215.467 162.7 215.32 164.045 214.542L203.819 191.555C204.764 191.008 205.962 191.008 206.886 191.555L234.725 207.644C234.725 207.644 234.831 207.686 234.873 207.686C234.915 207.686 235.062 207.686 235.125 207.539C235.209 207.391 235.167 207.202 235.02 207.139Z" fill="#351D35"/>
</g>
<path d="M174.13 157.443L190.75 147.831L186.106 145.139L169.739 154.603C164.949 152.647 158.582 152.584 153.708 154.393L137.677 145.139L133.033 147.831L149.149 157.148C146.249 159.945 146.459 163.499 149.737 166.191L133.054 175.845L137.698 178.537L154.695 168.715C159.129 170.103 164.507 170.04 168.857 168.547L186.149 178.537L190.792 175.845L173.626 165.918C176.484 163.352 176.673 160.113 174.172 157.464L174.13 157.443Z" fill="#2A182A"/>
<path d="M180.329 145.581L177.744 144.088L179.719 149.976L182.304 151.47L180.329 145.581Z" fill="#D068E8"/>
<path d="M171.609 115.927L169.025 114.413V149.114L171.609 150.628V115.927Z" fill="#5C3B53"/>
<path d="M189.72 147.2L184.216 127.221L171.609 115.927V150.628L180.329 145.581L182.304 151.47L189.72 147.2Z" fill="#D068E8"/>
<path d="M143.455 145.581L146.039 144.088L144.064 149.976L141.48 151.47L143.455 145.581Z" fill="#D068E8"/>
<path d="M152.153 115.927L154.758 114.413V149.114L152.153 150.628V115.927Z" fill="#5C3B53"/>
<path d="M134.063 147.2L139.568 127.221L152.153 115.927V150.628L143.455 145.581L141.48 151.47L134.063 147.2Z" fill="#962DCC"/>
<path d="M149.085 158.115L151.88 161.775C152.384 162.427 153.078 163.058 154.002 163.604C158.204 166.128 165.159 166.212 169.529 163.752C170.601 163.163 171.42 162.469 171.987 161.712L174.761 158.052L149.106 158.115H149.085Z" fill="#351D35"/>
<path d="M175.853 52.5602L147.804 52.6443L147.888 154.856C147.888 156.875 149.191 158.894 151.796 160.471C157.154 163.71 166.041 163.794 171.63 160.681C174.509 159.083 175.958 156.938 175.937 154.793L175.853 52.5812V52.5602Z" fill="url(#paint3_linear_0_1)"/>
<path d="M165.054 23.5581C164.718 23.3478 163.94 22.9692 163.373 22.7589C161.923 22.2331 160.641 22.3173 158.771 23.3688C150.115 28.227 148.014 41.9814 147.804 52.6442C147.804 54.6632 149.106 56.6822 151.712 58.2595C157.07 61.4983 165.957 61.5824 171.546 58.4698C174.424 56.8714 175.874 54.7263 175.853 52.5811C175.748 38.343 171.924 28.0377 165.075 23.5791L165.054 23.5581Z" fill="url(#paint4_linear_0_1)"/>
<path d="M181.568 151.47L184.152 149.976L189.72 176.35L187.136 177.864L181.568 151.47Z" fill="#D068E8"/>
<path d="M169.067 125.706L171.651 124.192L184.152 149.976L181.568 151.47L169.067 125.706Z" fill="#FFA1FB"/>
<path d="M181.568 151.47L187.136 177.864L179.719 173.573L177.786 165.434L169.067 160.387V125.707L181.568 151.47Z" fill="#962DCC"/>
<path d="M142.215 151.47L139.631 149.976L134.063 176.35L136.647 177.864L142.215 151.47Z" fill="#962DCC"/>
<path d="M154.716 125.706L152.111 124.192L139.631 149.976L142.215 151.47L154.716 125.706Z" fill="#BD46F2"/>
<path d="M142.215 151.47L136.647 177.864L144.064 173.573L145.997 165.434L154.716 160.387V125.707L142.215 151.47Z" fill="#D068E8"/>
<path d="M167.281 26.7758C171.231 31.3606 173.101 37.5227 171.672 43.4114C170.264 49.195 166.777 50.9406 164.045 33.6109C162.448 23.537 163.541 22.4223 167.281 26.7758Z" fill="url(#paint5_linear_0_1)"/>
<path opacity="0.5" d="M150.031 42.0866C149.716 47.113 151.46 47.9122 156.376 31.4238C160.347 18.1111 150.577 33.2535 150.031 42.0866Z" fill="url(#paint6_linear_0_1)"/>
<path d="M171.63 120.301C170.895 120.701 170.117 121.059 169.277 121.353V69.2589C170.096 68.9645 170.895 68.6069 171.63 68.2073C174.509 66.609 175.895 64.4638 175.895 62.3186V61.7297C175.895 63.8749 174.509 65.9991 171.63 67.6185C166.041 70.7311 157.175 70.6469 151.796 67.4081C149.191 65.8308 147.846 63.8118 147.846 61.7928V62.4027C147.846 64.4217 149.212 66.4407 151.796 68.0181C156.313 70.7521 163.331 71.2148 168.794 69.4271V121.521C163.352 123.309 156.334 122.825 151.796 120.112C149.191 118.535 147.846 116.516 147.846 114.497V115.107C147.846 117.126 149.212 119.145 151.796 120.722C157.154 123.961 166.041 124.045 171.63 120.932C174.509 119.334 175.895 117.189 175.895 115.044V114.455C175.895 116.6 174.509 118.724 171.63 120.344V120.301Z" fill="url(#paint7_linear_0_1)"/>
<path d="M159.717 77.377V77.2298C159.717 77.2298 159.78 77.0826 159.927 77.0826H160.746C160.873 77.0826 160.957 77.1247 160.957 77.2298C160.957 77.4822 160.999 77.6084 161.104 77.6715C161.209 77.7346 161.377 77.7766 161.629 77.7766H162.091C162.343 77.7766 162.511 77.7346 162.616 77.6715C162.721 77.6084 162.763 77.4611 162.763 77.2508C162.763 77.0195 162.679 76.9143 162.532 76.8302C162.385 76.7461 162.196 76.704 161.965 76.683C161.734 76.683 161.503 76.6409 161.23 76.5989C160.957 76.5568 160.725 76.4937 160.494 76.4306C160.263 76.3675 160.074 76.2413 159.927 76.031C159.78 75.8207 159.696 75.5894 159.696 75.2739V75.0215C159.696 74.643 159.843 74.3485 160.116 74.1382C160.41 73.9279 160.788 73.8228 161.293 73.8228H162.259C162.763 73.8228 163.163 73.9279 163.457 74.1382C163.751 74.3485 163.877 74.643 163.877 75.0215V75.1688C163.877 75.1688 163.814 75.316 163.667 75.316H162.848C162.721 75.316 162.637 75.2739 162.637 75.1688C162.637 74.9374 162.595 74.8112 162.49 74.7271C162.385 74.664 162.217 74.6219 161.965 74.6219H161.587C161.314 74.6219 161.146 74.664 161.041 74.7271C160.936 74.8112 160.894 74.9584 160.894 75.1688V75.316C160.894 75.5473 161.167 75.6735 161.692 75.7156C162.238 75.7576 162.742 75.8417 163.163 75.9679C163.394 76.031 163.583 76.1782 163.73 76.3675C163.877 76.5568 163.961 76.8092 163.961 77.1036V77.356C163.961 77.7345 163.814 78.029 163.541 78.2393C163.247 78.4496 162.869 78.5548 162.364 78.5548H161.314C160.809 78.5548 160.41 78.4496 160.137 78.2393C159.843 78.029 159.717 77.7345 159.717 77.356V77.377Z" fill="#DD3131"/>
<path d="M162.974 80.4895H163.793C163.94 80.4895 164.003 80.5316 164.003 80.6367V84.0227C164.003 84.4013 163.856 84.6957 163.583 84.906C163.31 85.1164 162.911 85.2215 162.406 85.2215H161.335C160.831 85.2215 160.431 85.1164 160.158 84.906C159.885 84.6957 159.738 84.4013 159.738 84.0227V80.6367C159.738 80.6367 159.801 80.4895 159.948 80.4895H160.767C160.894 80.4895 160.978 80.5316 160.978 80.6367V83.9807C160.978 84.1279 161.02 84.2541 161.104 84.3172C161.188 84.3803 161.335 84.4223 161.545 84.4223H162.217C162.427 84.4223 162.574 84.3803 162.658 84.3172C162.742 84.2541 162.785 84.1279 162.785 83.9807V80.6367C162.785 80.6367 162.848 80.4895 162.995 80.4895H162.974Z" fill="#DD3131"/>
<path d="M162.448 91.8884H161.398C160.894 91.8884 160.494 91.7832 160.221 91.5729C159.948 91.3626 159.801 91.0682 159.801 90.6896V88.3552C159.801 87.9766 159.948 87.6611 160.221 87.4718C160.494 87.2615 160.894 87.1564 161.398 87.1564H162.448C162.953 87.1564 163.352 87.2615 163.625 87.4718C163.898 87.6822 164.045 87.9766 164.045 88.3552V88.7127C164.045 88.8178 163.982 88.8809 163.835 88.8809H163.016C162.89 88.8809 162.806 88.8178 162.806 88.7127V88.4182C162.806 88.271 162.763 88.1448 162.679 88.0817C162.595 88.0187 162.448 87.9766 162.238 87.9766H161.587C161.377 87.9766 161.251 88.0187 161.146 88.0817C161.062 88.1448 161.02 88.271 161.02 88.4182V90.6686C161.02 90.8158 161.062 90.942 161.146 91.0051C161.23 91.0682 161.377 91.1102 161.587 91.1102H162.238C162.448 91.1102 162.595 91.0682 162.679 91.0051C162.763 90.942 162.806 90.8158 162.806 90.6686V90.3741C162.806 90.269 162.869 90.2059 163.016 90.2059H163.835C163.982 90.2059 164.045 90.269 164.045 90.3741V90.7317C164.045 91.1102 163.898 91.4047 163.625 91.615C163.352 91.8253 162.953 91.9304 162.448 91.9304V91.8884Z" fill="#DD3131"/>
<path d="M162.448 98.5344H161.398C160.894 98.5344 160.494 98.4292 160.221 98.2189C159.948 98.0086 159.801 97.7142 159.801 97.3356V95.0012C159.801 94.6226 159.948 94.3071 160.221 94.1178C160.494 93.9075 160.894 93.8024 161.398 93.8024H162.448C162.953 93.8024 163.352 93.9075 163.625 94.1178C163.898 94.3282 164.045 94.6226 164.045 95.0012V95.3587C164.045 95.4638 163.982 95.5269 163.835 95.5269H163.016C162.89 95.5269 162.806 95.4638 162.806 95.3587V95.0642C162.806 94.917 162.763 94.7908 162.679 94.7277C162.595 94.6647 162.448 94.6226 162.238 94.6226H161.587C161.377 94.6226 161.251 94.6647 161.146 94.7277C161.062 94.7908 161.02 94.917 161.02 95.0642V97.3146C161.02 97.4618 161.062 97.588 161.146 97.6511C161.23 97.7142 161.377 97.7562 161.587 97.7562H162.238C162.448 97.7562 162.595 97.7142 162.679 97.6511C162.763 97.588 162.806 97.4618 162.806 97.3146V97.0201C162.806 96.915 162.869 96.8519 163.016 96.8519H163.835C163.982 96.8519 164.045 96.915 164.045 97.0201V97.3777C164.045 97.7562 163.898 98.0507 163.625 98.261C163.352 98.4713 162.953 98.5764 162.448 98.5764V98.5344Z" fill="#DD3131"/>
<path d="M163.541 105.159H160.368C160.242 105.159 160.158 105.117 160.158 105.012V100.574C160.158 100.574 160.221 100.427 160.368 100.427H163.541C163.667 100.427 163.73 100.469 163.73 100.574V101.079C163.73 101.079 163.667 101.226 163.541 101.226H161.503C161.503 101.226 161.377 101.247 161.377 101.31V102.278C161.377 102.278 161.419 102.362 161.503 102.362H163.163C163.289 102.362 163.373 102.425 163.373 102.509V103.014C163.373 103.014 163.31 103.161 163.163 103.161H161.503C161.503 103.161 161.377 103.182 161.377 103.245V104.276C161.377 104.276 161.419 104.36 161.503 104.36H163.541C163.667 104.36 163.73 104.402 163.73 104.507V105.012C163.73 105.012 163.667 105.159 163.541 105.159Z" fill="#DD3131"/>
<path d="M159.717 110.606V110.459C159.717 110.459 159.78 110.312 159.927 110.312H160.746C160.873 110.312 160.957 110.354 160.957 110.459C160.957 110.711 160.999 110.837 161.104 110.9C161.209 110.964 161.377 111.006 161.629 111.006H162.091C162.343 111.006 162.511 110.964 162.616 110.9C162.721 110.837 162.764 110.69 162.764 110.48C162.764 110.248 162.679 110.143 162.532 110.059C162.385 109.975 162.196 109.933 161.965 109.912C161.734 109.912 161.503 109.87 161.23 109.828C160.957 109.786 160.725 109.723 160.494 109.66C160.263 109.597 160.074 109.47 159.927 109.26C159.78 109.071 159.696 108.818 159.696 108.503V108.251C159.696 107.872 159.843 107.578 160.116 107.367C160.41 107.157 160.788 107.052 161.293 107.052H162.259C162.764 107.052 163.163 107.157 163.457 107.367C163.751 107.578 163.877 107.872 163.877 108.251V108.398C163.877 108.398 163.814 108.545 163.667 108.545H162.848C162.721 108.545 162.637 108.503 162.637 108.398C162.637 108.166 162.595 108.04 162.49 107.956C162.385 107.893 162.217 107.851 161.965 107.851H161.587C161.314 107.851 161.146 107.893 161.041 107.956C160.936 108.04 160.894 108.187 160.894 108.398V108.545C160.894 108.776 161.167 108.903 161.692 108.945C162.238 108.987 162.742 109.071 163.163 109.197C163.394 109.26 163.583 109.407 163.73 109.597C163.877 109.786 163.961 110.038 163.961 110.333V110.585C163.961 110.964 163.814 111.258 163.541 111.468C163.247 111.679 162.869 111.784 162.364 111.784H161.314C160.809 111.784 160.41 111.679 160.137 111.468C159.843 111.258 159.717 110.964 159.717 110.585V110.606Z" fill="#DD3131"/>
<path d="M159.717 117.252V117.105C159.717 117.105 159.78 116.957 159.927 116.957H160.746C160.873 116.957 160.957 117 160.957 117.105C160.957 117.357 160.999 117.483 161.104 117.546C161.209 117.609 161.377 117.651 161.629 117.651H162.091C162.343 117.651 162.511 117.609 162.616 117.546C162.721 117.483 162.764 117.336 162.764 117.126C162.764 116.894 162.679 116.789 162.532 116.705C162.385 116.621 162.196 116.579 161.965 116.558C161.734 116.558 161.503 116.516 161.23 116.474C160.957 116.432 160.725 116.369 160.494 116.306C160.263 116.242 160.074 116.116 159.927 115.906C159.78 115.696 159.696 115.464 159.696 115.149V114.896C159.696 114.518 159.843 114.223 160.116 114.013C160.41 113.803 160.788 113.698 161.293 113.698H162.259C162.764 113.698 163.163 113.803 163.457 114.013C163.751 114.223 163.877 114.518 163.877 114.896V115.044C163.877 115.044 163.814 115.191 163.667 115.191H162.848C162.721 115.191 162.637 115.149 162.637 115.044C162.637 114.812 162.595 114.686 162.49 114.602C162.385 114.539 162.217 114.497 161.965 114.497H161.587C161.314 114.497 161.146 114.539 161.041 114.602C160.936 114.686 160.894 114.833 160.894 115.044V115.191C160.894 115.422 161.167 115.548 161.692 115.59C162.238 115.633 162.742 115.717 163.163 115.843C163.394 115.906 163.583 116.053 163.73 116.242C163.877 116.432 163.961 116.684 163.961 116.979V117.231C163.961 117.609 163.814 117.904 163.541 118.114C163.247 118.324 162.869 118.43 162.364 118.43H161.314C160.809 118.43 160.41 118.324 160.137 118.114C159.843 117.904 159.717 117.609 159.717 117.231V117.252Z" fill="#DD3131"/>
<path style="mix-blend-mode:screen" d="M166.167 97.1462C203.451 97.1462 233.675 66.8927 233.675 29.5731C233.675 -7.7465 203.451 -38 166.167 -38C128.884 -38 98.6596 -7.7465 98.6596 29.5731C98.6596 66.8927 128.884 97.1462 166.167 97.1462Z" fill="url(#paint8_radial_0_1)"/>
<path style="mix-blend-mode:screen" d="M234.666 201.728C263.507 172.858 263.507 126.052 234.666 97.1826C205.824 68.3133 159.063 68.3133 130.222 97.1826C101.381 126.052 101.381 172.858 130.222 201.728C159.063 230.597 205.824 230.597 234.666 201.728Z" fill="url(#paint9_radial_0_1)"/>
<path d="M83.301 233.32L77.037 250H73.869L67.581 233.32H70.509L75.453 247.192L80.421 233.32H83.301ZM97.7091 243.064C97.7091 243.56 97.6771 244.008 97.6131 244.408H87.5091C87.5891 245.464 87.9811 246.312 88.6851 246.952C89.3891 247.592 90.2531 247.912 91.2771 247.912C92.7491 247.912 93.7891 247.296 94.3971 246.064H97.3491C96.9491 247.28 96.2211 248.28 95.1651 249.064C94.1251 249.832 92.8291 250.216 91.2771 250.216C90.0131 250.216 88.8771 249.936 87.8691 249.376C86.8771 248.8 86.0931 248 85.5171 246.976C84.9571 245.936 84.6771 244.736 84.6771 243.376C84.6771 242.016 84.9491 240.824 85.4931 239.8C86.0531 238.76 86.8291 237.96 87.8211 237.4C88.8291 236.84 89.9811 236.56 91.2771 236.56C92.5251 236.56 93.6371 236.832 94.6131 237.376C95.5891 237.92 96.3491 238.688 96.8931 239.68C97.4371 240.656 97.7091 241.784 97.7091 243.064ZM94.8531 242.2C94.8371 241.192 94.4771 240.384 93.7731 239.776C93.0691 239.168 92.1971 238.864 91.1571 238.864C90.2131 238.864 89.4051 239.168 88.7331 239.776C88.0611 240.368 87.6611 241.176 87.5331 242.2H94.8531ZM103.138 232.24V250H100.402V232.24H103.138ZM112.466 250.216C111.218 250.216 110.09 249.936 109.082 249.376C108.074 248.8 107.282 248 106.706 246.976C106.13 245.936 105.842 244.736 105.842 243.376C105.842 242.032 106.138 240.84 106.73 239.8C107.322 238.76 108.13 237.96 109.154 237.4C110.178 236.84 111.322 236.56 112.586 236.56C113.85 236.56 114.994 236.84 116.018 237.4C117.042 237.96 117.85 238.76 118.442 239.8C119.034 240.84 119.33 242.032 119.33 243.376C119.33 244.72 119.026 245.912 118.418 246.952C117.81 247.992 116.978 248.8 115.922 249.376C114.882 249.936 113.73 250.216 112.466 250.216ZM112.466 247.84C113.17 247.84 113.826 247.672 114.434 247.336C115.058 247 115.562 246.496 115.946 245.824C116.33 245.152 116.522 244.336 116.522 243.376C116.522 242.416 116.338 241.608 115.97 240.952C115.602 240.28 115.114 239.776 114.506 239.44C113.898 239.104 113.242 238.936 112.538 238.936C111.834 238.936 111.178 239.104 110.57 239.44C109.978 239.776 109.506 240.28 109.154 240.952C108.802 241.608 108.626 242.416 108.626 243.376C108.626 244.8 108.986 245.904 109.706 246.688C110.442 247.456 111.362 247.84 112.466 247.84ZM121.122 243.376C121.122 242.016 121.394 240.824 121.938 239.8C122.498 238.76 123.266 237.96 124.242 237.4C125.218 236.84 126.338 236.56 127.602 236.56C129.202 236.56 130.522 236.944 131.562 237.712C132.618 238.464 133.33 239.544 133.698 240.952H130.746C130.506 240.296 130.122 239.784 129.594 239.416C129.066 239.048 128.402 238.864 127.602 238.864C126.482 238.864 125.586 239.264 124.914 240.064C124.258 240.848 123.93 241.952 123.93 243.376C123.93 244.8 124.258 245.912 124.914 246.712C125.586 247.512 126.482 247.912 127.602 247.912C129.186 247.912 130.234 247.216 130.746 245.824H133.698C133.314 247.168 132.594 248.24 131.538 249.04C130.482 249.824 129.17 250.216 127.602 250.216C126.338 250.216 125.218 249.936 124.242 249.376C123.266 248.8 122.498 248 121.938 246.976C121.394 245.936 121.122 244.736 121.122 243.376ZM137.817 235.024C137.321 235.024 136.905 234.856 136.569 234.52C136.233 234.184 136.065 233.768 136.065 233.272C136.065 232.776 136.233 232.36 136.569 232.024C136.905 231.688 137.321 231.52 137.817 231.52C138.297 231.52 138.705 231.688 139.041 232.024C139.377 232.36 139.545 232.776 139.545 233.272C139.545 233.768 139.377 234.184 139.041 234.52C138.705 234.856 138.297 235.024 137.817 235.024ZM139.161 236.776V250H136.425V236.776H139.161ZM141.841 243.328C141.841 242 142.113 240.824 142.657 239.8C143.217 238.776 143.969 237.984 144.913 237.424C145.873 236.848 146.937 236.56 148.105 236.56C148.969 236.56 149.817 236.752 150.649 237.136C151.497 237.504 152.169 238 152.665 238.624V232.24H155.425V250H152.665V248.008C152.217 248.648 151.593 249.176 150.793 249.592C150.009 250.008 149.105 250.216 148.081 250.216C146.929 250.216 145.873 249.928 144.913 249.352C143.969 248.76 143.217 247.944 142.657 246.904C142.113 245.848 141.841 244.656 141.841 243.328ZM152.665 243.376C152.665 242.464 152.473 241.672 152.089 241C151.721 240.328 151.233 239.816 150.625 239.464C150.017 239.112 149.361 238.936 148.657 238.936C147.953 238.936 147.297 239.112 146.689 239.464C146.081 239.8 145.585 240.304 145.201 240.976C144.833 241.632 144.649 242.416 144.649 243.328C144.649 244.24 144.833 245.04 145.201 245.728C145.585 246.416 146.081 246.944 146.689 247.312C147.313 247.664 147.969 247.84 148.657 247.84C149.361 247.84 150.017 247.664 150.625 247.312C151.233 246.96 151.721 246.448 152.089 245.776C152.473 245.088 152.665 244.288 152.665 243.376ZM158.107 243.328C158.107 242 158.379 240.824 158.923 239.8C159.483 238.776 160.235 237.984 161.179 237.424C162.139 236.848 163.195 236.56 164.347 236.56C165.387 236.56 166.291 236.768 167.059 237.184C167.843 237.584 168.467 238.088 168.931 238.696V236.776H171.691V250H168.931V248.032C168.467 248.656 167.835 249.176 167.035 249.592C166.235 250.008 165.323 250.216 164.299 250.216C163.163 250.216 162.123 249.928 161.179 249.352C160.235 248.76 159.483 247.944 158.923 246.904C158.379 245.848 158.107 244.656 158.107 243.328ZM168.931 243.376C168.931 242.464 168.739 241.672 168.355 241C167.987 240.328 167.499 239.816 166.891 239.464C166.283 239.112 165.627 238.936 164.923 238.936C164.219 238.936 163.563 239.112 162.955 239.464C162.347 239.8 161.851 240.304 161.467 240.976C161.099 241.632 160.915 242.416 160.915 243.328C160.915 244.24 161.099 245.04 161.467 245.728C161.851 246.416 162.347 246.944 162.955 247.312C163.579 247.664 164.235 247.84 164.923 247.84C165.627 247.84 166.283 247.664 166.891 247.312C167.499 246.96 167.987 246.448 168.355 245.776C168.739 245.088 168.931 244.288 168.931 243.376ZM174.372 243.328C174.372 242 174.644 240.824 175.188 239.8C175.748 238.776 176.5 237.984 177.444 237.424C178.404 236.848 179.468 236.56 180.636 236.56C181.5 236.56 182.348 236.752 183.18 237.136C184.028 237.504 184.7 238 185.196 238.624V232.24H187.956V250H185.196V248.008C184.748 248.648 184.124 249.176 183.324 249.592C182.54 250.008 181.636 250.216 180.612 250.216C179.46 250.216 178.404 249.928 177.444 249.352C176.5 248.76 175.748 247.944 175.188 246.904C174.644 245.848 174.372 244.656 174.372 243.328ZM185.196 243.376C185.196 242.464 185.004 241.672 184.62 241C184.252 240.328 183.764 239.816 183.156 239.464C182.548 239.112 181.892 238.936 181.188 238.936C180.484 238.936 179.828 239.112 179.22 239.464C178.612 239.8 178.116 240.304 177.732 240.976C177.364 241.632 177.18 242.416 177.18 243.328C177.18 244.24 177.364 245.04 177.732 245.728C178.116 246.416 178.612 246.944 179.22 247.312C179.844 247.664 180.5 247.84 181.188 247.84C181.892 247.84 182.548 247.664 183.156 247.312C183.764 246.96 184.252 246.448 184.62 245.776C185.004 245.088 185.196 244.288 185.196 243.376ZM203.67 243.064C203.67 243.56 203.638 244.008 203.574 244.408H193.47C193.55 245.464 193.942 246.312 194.646 246.952C195.35 247.592 196.214 247.912 197.238 247.912C198.71 247.912 199.75 247.296 200.358 246.064H203.31C202.91 247.28 202.182 248.28 201.126 249.064C200.086 249.832 198.79 250.216 197.238 250.216C195.974 250.216 194.838 249.936 193.83 249.376C192.838 248.8 192.054 248 191.478 246.976C190.918 245.936 190.638 244.736 190.638 243.376C190.638 242.016 190.91 240.824 191.454 239.8C192.014 238.76 192.79 237.96 193.782 237.4C194.79 236.84 195.942 236.56 197.238 236.56C198.486 236.56 199.598 236.832 200.574 237.376C201.55 237.92 202.31 238.688 202.854 239.68C203.398 240.656 203.67 241.784 203.67 243.064ZM200.814 242.2C200.798 241.192 200.438 240.384 199.734 239.776C199.03 239.168 198.158 238.864 197.118 238.864C196.174 238.864 195.366 239.168 194.694 239.776C194.022 240.368 193.622 241.176 193.494 242.2H200.814ZM211.685 243.328C211.685 242 211.957 240.824 212.501 239.8C213.061 238.776 213.813 237.984 214.757 237.424C215.717 236.848 216.781 236.56 217.949 236.56C218.813 236.56 219.661 236.752 220.493 237.136C221.341 237.504 222.013 238 222.509 238.624V232.24H225.269V250H222.509V248.008C222.061 248.648 221.437 249.176 220.637 249.592C219.853 250.008 218.949 250.216 217.925 250.216C216.773 250.216 215.717 249.928 214.757 249.352C213.813 248.76 213.061 247.944 212.501 246.904C211.957 245.848 211.685 244.656 211.685 243.328ZM222.509 243.376C222.509 242.464 222.317 241.672 221.933 241C221.565 240.328 221.077 239.816 220.469 239.464C219.861 239.112 219.205 238.936 218.501 238.936C217.797 238.936 217.141 239.112 216.533 239.464C215.925 239.8 215.429 240.304 215.045 240.976C214.677 241.632 214.493 242.416 214.493 243.328C214.493 244.24 214.677 245.04 215.045 245.728C215.429 246.416 215.925 246.944 216.533 247.312C217.157 247.664 217.813 247.84 218.501 247.84C219.205 247.84 219.861 247.664 220.469 247.312C221.077 246.96 221.565 246.448 221.933 245.776C222.317 245.088 222.509 244.288 222.509 243.376ZM240.983 243.064C240.983 243.56 240.951 244.008 240.887 244.408H230.783C230.863 245.464 231.255 246.312 231.959 246.952C232.663 247.592 233.527 247.912 234.551 247.912C236.023 247.912 237.063 247.296 237.671 246.064H240.622C240.223 247.28 239.495 248.28 238.439 249.064C237.399 249.832 236.103 250.216 234.551 250.216C233.287 250.216 232.151 249.936 231.143 249.376C230.151 248.8 229.367 248 228.791 246.976C228.231 245.936 227.951 244.736 227.951 243.376C227.951 242.016 228.223 240.824 228.767 239.8C229.327 238.76 230.103 237.96 231.095 237.4C232.103 236.84 233.255 236.56 234.551 236.56C235.799 236.56 236.911 236.832 237.887 237.376C238.863 237.92 239.623 238.688 240.167 239.68C240.711 240.656 240.983 241.784 240.983 243.064ZM238.127 242.2C238.111 241.192 237.751 240.384 237.047 239.776C236.343 239.168 235.471 238.864 234.431 238.864C233.487 238.864 232.679 239.168 232.007 239.776C231.335 240.368 230.935 241.176 230.807 242.2H238.127ZM65.306 266.624C65.306 264.992 65.682 263.528 66.434 262.232C67.202 260.936 68.234 259.928 69.53 259.208C70.842 258.472 72.274 258.104 73.826 258.104C75.602 258.104 77.178 258.544 78.554 259.424C79.946 260.288 80.954 261.52 81.578 263.12H78.29C77.858 262.24 77.258 261.584 76.49 261.152C75.722 260.72 74.834 260.504 73.826 260.504C72.722 260.504 71.738 260.752 70.874 261.248C70.01 261.744 69.33 262.456 68.834 263.384C68.354 264.312 68.114 265.392 68.114 266.624C68.114 267.856 68.354 268.936 68.834 269.864C69.33 270.792 70.01 271.512 70.874 272.024C71.738 272.52 72.722 272.768 73.826 272.768C74.834 272.768 75.722 272.552 76.49 272.12C77.258 271.688 77.858 271.032 78.29 270.152H81.578C80.954 271.752 79.946 272.984 78.554 273.848C77.178 274.712 75.602 275.144 73.826 275.144C72.258 275.144 70.826 274.784 69.53 274.064C68.234 273.328 67.202 272.312 66.434 271.016C65.682 269.72 65.306 268.256 65.306 266.624ZM83.8685 268.328C83.8685 267 84.1405 265.824 84.6845 264.8C85.2445 263.776 85.9965 262.984 86.9405 262.424C87.9005 261.848 88.9565 261.56 90.1085 261.56C91.1485 261.56 92.0525 261.768 92.8205 262.184C93.6045 262.584 94.2285 263.088 94.6925 263.696V261.776H97.4525V275H94.6925V273.032C94.2285 273.656 93.5965 274.176 92.7965 274.592C91.9965 275.008 91.0845 275.216 90.0605 275.216C88.9245 275.216 87.8845 274.928 86.9405 274.352C85.9965 273.76 85.2445 272.944 84.6845 271.904C84.1405 270.848 83.8685 269.656 83.8685 268.328ZM94.6925 268.376C94.6925 267.464 94.5005 266.672 94.1165 266C93.7485 265.328 93.2605 264.816 92.6525 264.464C92.0445 264.112 91.3885 263.936 90.6845 263.936C89.9805 263.936 89.3245 264.112 88.7165 264.464C88.1085 264.8 87.6125 265.304 87.2285 265.976C86.8605 266.632 86.6765 267.416 86.6765 268.328C86.6765 269.24 86.8605 270.04 87.2285 270.728C87.6125 271.416 88.1085 271.944 88.7165 272.312C89.3405 272.664 89.9965 272.84 90.6845 272.84C91.3885 272.84 92.0445 272.664 92.6525 272.312C93.2605 271.96 93.7485 271.448 94.1165 270.776C94.5005 270.088 94.6925 269.288 94.6925 268.376ZM103.782 263.696C104.182 263.024 104.71 262.504 105.366 262.136C106.038 261.752 106.83 261.56 107.742 261.56V264.392H107.046C105.974 264.392 105.158 264.664 104.598 265.208C104.054 265.752 103.782 266.696 103.782 268.04V275H101.046V261.776H103.782V263.696ZM112.993 263.696C113.393 263.024 113.921 262.504 114.577 262.136C115.249 261.752 116.041 261.56 116.953 261.56V264.392H116.257C115.185 264.392 114.369 264.664 113.809 265.208C113.265 265.752 112.993 266.696 112.993 268.04V275H110.257V261.776H112.993V263.696ZM131.588 268.064C131.588 268.56 131.556 269.008 131.492 269.408H121.388C121.468 270.464 121.86 271.312 122.564 271.952C123.268 272.592 124.132 272.912 125.156 272.912C126.628 272.912 127.668 272.296 128.276 271.064H131.228C130.828 272.28 130.1 273.28 129.044 274.064C128.004 274.832 126.708 275.216 125.156 275.216C123.892 275.216 122.756 274.936 121.748 274.376C120.756 273.8 119.972 273 119.396 271.976C118.836 270.936 118.556 269.736 118.556 268.376C118.556 267.016 118.828 265.824 119.372 264.8C119.932 263.76 120.708 262.96 121.7 262.4C122.708 261.84 123.86 261.56 125.156 261.56C126.404 261.56 127.516 261.832 128.492 262.376C129.468 262.92 130.228 263.688 130.772 264.68C131.316 265.656 131.588 266.784 131.588 268.064ZM128.732 267.2C128.716 266.192 128.356 265.384 127.652 264.776C126.948 264.168 126.076 263.864 125.036 263.864C124.092 263.864 123.284 264.168 122.612 264.776C121.94 265.368 121.54 266.176 121.412 267.2H128.732ZM139.608 261.56C140.632 261.56 141.536 261.768 142.32 262.184C143.12 262.584 143.744 263.088 144.192 263.696V261.776H146.952V275.216C146.952 276.432 146.696 277.512 146.184 278.456C145.672 279.416 144.928 280.168 143.952 280.712C142.992 281.256 141.84 281.528 140.496 281.528C138.704 281.528 137.216 281.104 136.032 280.256C134.848 279.424 134.176 278.288 134.016 276.848H136.728C136.936 277.536 137.376 278.088 138.048 278.504C138.736 278.936 139.552 279.152 140.496 279.152C141.6 279.152 142.488 278.816 143.16 278.144C143.848 277.472 144.192 276.496 144.192 275.216V273.008C143.728 273.632 143.096 274.16 142.296 274.592C141.512 275.008 140.616 275.216 139.608 275.216C138.456 275.216 137.4 274.928 136.44 274.352C135.496 273.76 134.744 272.944 134.184 271.904C133.64 270.848 133.368 269.656 133.368 268.328C133.368 267 133.64 265.824 134.184 264.8C134.744 263.776 135.496 262.984 136.44 262.424C137.4 261.848 138.456 261.56 139.608 261.56ZM144.192 268.376C144.192 267.464 144 266.672 143.616 266C143.248 265.328 142.76 264.816 142.152 264.464C141.544 264.112 140.888 263.936 140.184 263.936C139.48 263.936 138.824 264.112 138.216 264.464C137.608 264.8 137.112 265.304 136.728 265.976C136.36 266.632 136.176 267.416 136.176 268.328C136.176 269.24 136.36 270.04 136.728 270.728C137.112 271.416 137.608 271.944 138.216 272.312C138.84 272.664 139.496 272.84 140.184 272.84C140.888 272.84 141.544 272.664 142.152 272.312C142.76 271.96 143.248 271.448 143.616 270.776C144 270.088 144.192 269.288 144.192 268.376ZM149.634 268.328C149.634 267 149.906 265.824 150.45 264.8C151.01 263.776 151.762 262.984 152.706 262.424C153.666 261.848 154.722 261.56 155.874 261.56C156.914 261.56 157.818 261.768 158.586 262.184C159.37 262.584 159.994 263.088 160.458 263.696V261.776H163.218V275H160.458V273.032C159.994 273.656 159.362 274.176 158.562 274.592C157.762 275.008 156.85 275.216 155.826 275.216C154.69 275.216 153.65 274.928 152.706 274.352C151.762 273.76 151.01 272.944 150.45 271.904C149.906 270.848 149.634 269.656 149.634 268.328ZM160.458 268.376C160.458 267.464 160.266 266.672 159.882 266C159.514 265.328 159.026 264.816 158.418 264.464C157.81 264.112 157.154 263.936 156.45 263.936C155.746 263.936 155.09 264.112 154.482 264.464C153.874 264.8 153.378 265.304 152.994 265.976C152.626 266.632 152.442 267.416 152.442 268.328C152.442 269.24 152.626 270.04 152.994 270.728C153.378 271.416 153.874 271.944 154.482 272.312C155.106 272.664 155.762 272.84 156.45 272.84C157.154 272.84 157.81 272.664 158.418 272.312C159.026 271.96 159.514 271.448 159.882 270.776C160.266 270.088 160.458 269.288 160.458 268.376ZM182.82 261.56C183.86 261.56 184.788 261.776 185.604 262.208C186.436 262.64 187.084 263.28 187.548 264.128C188.028 264.976 188.268 266 188.268 267.2V275H185.556V267.608C185.556 266.424 185.26 265.52 184.668 264.896C184.076 264.256 183.268 263.936 182.244 263.936C181.22 263.936 180.404 264.256 179.796 264.896C179.204 265.52 178.908 266.424 178.908 267.608V275H176.196V267.608C176.196 266.424 175.9 265.52 175.308 264.896C174.716 264.256 173.908 263.936 172.884 263.936C171.86 263.936 171.044 264.256 170.436 264.896C169.844 265.52 169.548 266.424 169.548 267.608V275H166.812V261.776H169.548V263.288C169.996 262.744 170.564 262.32 171.252 262.016C171.94 261.712 172.676 261.56 173.46 261.56C174.516 261.56 175.46 261.784 176.292 262.232C177.124 262.68 177.764 263.328 178.212 264.176C178.612 263.376 179.236 262.744 180.084 262.28C180.932 261.8 181.844 261.56 182.82 261.56ZM203.869 268.064C203.869 268.56 203.837 269.008 203.773 269.408H193.669C193.749 270.464 194.141 271.312 194.845 271.952C195.549 272.592 196.413 272.912 197.437 272.912C198.909 272.912 199.949 272.296 200.557 271.064H203.509C203.109 272.28 202.381 273.28 201.325 274.064C200.285 274.832 198.989 275.216 197.437 275.216C196.173 275.216 195.037 274.936 194.029 274.376C193.037 273.8 192.253 273 191.677 271.976C191.117 270.936 190.837 269.736 190.837 268.376C190.837 267.016 191.109 265.824 191.653 264.8C192.213 263.76 192.989 262.96 193.981 262.4C194.989 261.84 196.141 261.56 197.437 261.56C198.685 261.56 199.797 261.832 200.773 262.376C201.749 262.92 202.509 263.688 203.053 264.68C203.597 265.656 203.869 266.784 203.869 268.064ZM201.013 267.2C200.997 266.192 200.637 265.384 199.933 264.776C199.229 264.168 198.357 263.864 197.317 263.864C196.373 263.864 195.565 264.168 194.893 264.776C194.221 265.368 193.821 266.176 193.693 267.2H201.013ZM213.234 261.56C214.274 261.56 215.202 261.776 216.018 262.208C216.85 262.64 217.498 263.28 217.962 264.128C218.426 264.976 218.658 266 218.658 267.2V275H215.946V267.608C215.946 266.424 215.65 265.52 215.058 264.896C214.466 264.256 213.658 263.936 212.634 263.936C211.61 263.936 210.794 264.256 210.186 264.896C209.594 265.52 209.298 266.424 209.298 267.608V275H206.562V261.776H209.298V263.288C209.746 262.744 210.314 262.32 211.002 262.016C211.706 261.712 212.45 261.56 213.234 261.56ZM225.34 264.008V271.328C225.34 271.824 225.452 272.184 225.676 272.408C225.916 272.616 226.316 272.72 226.876 272.72H228.556V275H226.396C225.164 275 224.22 274.712 223.564 274.136C222.908 273.56 222.58 272.624 222.58 271.328V264.008H221.02V261.776H222.58V258.488H225.34V261.776H228.556V264.008H225.34ZM236.813 275.216C235.565 275.216 234.437 274.936 233.429 274.376C232.421 273.8 231.629 273 231.053 271.976C230.477 270.936 230.189 269.736 230.189 268.376C230.189 267.032 230.485 265.84 231.077 264.8C231.669 263.76 232.477 262.96 233.501 262.4C234.525 261.84 235.669 261.56 236.933 261.56C238.197 261.56 239.341 261.84 240.365 262.4C241.389 262.96 242.197 263.76 242.789 264.8C243.381 265.84 243.677 267.032 243.677 268.376C243.677 269.72 243.373 270.912 242.765 271.952C242.157 272.992 241.325 273.8 240.269 274.376C239.229 274.936 238.077 275.216 236.813 275.216ZM236.813 272.84C237.517 272.84 238.173 272.672 238.781 272.336C239.405 272 239.909 271.496 240.293 270.824C240.677 270.152 240.869 269.336 240.869 268.376C240.869 267.416 240.685 266.608 240.317 265.952C239.949 265.28 239.461 264.776 238.853 264.44C238.245 264.104 237.589 263.936 236.885 263.936C236.181 263.936 235.525 264.104 234.917 264.44C234.325 264.776 233.853 265.28 233.501 265.952C233.149 266.608 232.973 267.416 232.973 268.376C232.973 269.8 233.333 270.904 234.053 271.688C234.789 272.456 235.709 272.84 236.813 272.84Z" fill="white"/>
</g>
<defs>
<filter id="filter0_d_0_1" x="0" y="0" width="308" height="308" filterUnits="userSpaceOnUse" color-interpolation-filters="sRGB">
<feFlood flood-opacity="0" result="BackgroundImageFix"/>
<feColorMatrix in="SourceAlpha" type="matrix" values="0 0 0 0 0 0 0 0 0 0 0 0 0 0 0 0 0 0 127 0" result="hardAlpha"/>
<feOffset dy="4"/>
<feGaussianBlur stdDeviation="2"/>
<feComposite in2="hardAlpha" operator="out"/>
<feColorMatrix type="matrix" values="0 0 0 0 0 0 0 0 0 0 0 0 0 0 0 0 0 0 0.25 0"/>
<feBlend mode="normal" in2="BackgroundImageFix" result="effect1_dropShadow_0_1"/>
<feBlend mode="normal" in="SourceGraphic" in2="effect1_dropShadow_0_1" result="shape"/>
</filter>
<linearGradient id="paint0_linear_0_1" x1="24.25" y1="38.25" x2="352" y2="396.75" gradientUnits="userSpaceOnUse">
<stop/>
<stop offset="1" stop-color="#1C1C1C"/>
</linearGradient>
<linearGradient id="paint1_linear_0_1" x1="151.081" y1="181.481" x2="165.558" y2="181.481" gradientUnits="userSpaceOnUse">
<stop stop-color="#ED9AD5"/>
<stop offset="0.26" stop-color="#EFA1D2"/>
<stop offset="0.63" stop-color="#F5B4CC"/>
<stop offset="1" stop-color="#FECFC4"/>
</linearGradient>
<linearGradient id="paint2_linear_0_1" x1="146.039" y1="191.702" x2="146.628" y2="192.711" gradientUnits="userSpaceOnUse">
<stop stop-color="#40243F"/>
<stop offset="0.19" stop-color="#3D223C"/>
<stop offset="1" stop-color="#351D35"/>
</linearGradient>
<linearGradient id="paint3_linear_0_1" x1="147.804" y1="107.746" x2="175.937" y2="107.746" gradientUnits="userSpaceOnUse">
<stop stop-color="#ED9AD5"/>
<stop offset="0.59" stop-color="#F7BCCA"/>
<stop offset="1" stop-color="#FECFC4"/>
</linearGradient>
<linearGradient id="paint4_linear_0_1" x1="147.804" y1="41.5818" x2="175.853" y2="41.5818" gradientUnits="userSpaceOnUse">
<stop stop-color="#962DCC"/>
<stop offset="0.24" stop-color="#9D34CF"/>
<stop offset="0.59" stop-color="#B048D8"/>
<stop offset="1" stop-color="#D068E8"/>
</linearGradient>
<linearGradient id="paint5_linear_0_1" x1="162.28" y1="49.0478" x2="169.331" y2="29.6614" gradientUnits="userSpaceOnUse">
<stop stop-color="#C55DE3"/>
<stop offset="0.13" stop-color="#CF6AE3"/>
<stop offset="0.49" stop-color="#E98AE4"/>
<stop offset="0.79" stop-color="#F99EE4"/>
<stop offset="1" stop-color="#FFA6E5"/>
</linearGradient>
<linearGradient id="paint6_linear_0_1" x1="78.6206" y1="85.7561" x2="68.7434" y2="79.2107" gradientUnits="userSpaceOnUse">
<stop stop-color="#C55DE3"/>
<stop offset="0.13" stop-color="#CF6AE3"/>
<stop offset="0.49" stop-color="#E98AE4"/>
<stop offset="0.79" stop-color="#F99EE4"/>
<stop offset="1" stop-color="#FFA6E5"/>
</linearGradient>
<linearGradient id="paint7_linear_0_1" x1="147.846" y1="92.4562" x2="175.874" y2="92.4562" gradientUnits="userSpaceOnUse">
<stop stop-color="#CD76B4"/>
<stop offset="1" stop-color="#E596CF"/>
</linearGradient>
<radialGradient id="paint8_radial_0_1" cx="0" cy="0" r="1" gradientUnits="userSpaceOnUse" gradientTransform="translate(166.167 29.5731) scale(67.5077 67.5731)">
<stop stop-color="#DC3AF5"/>
<stop offset="0.05" stop-color="#B32FC7"/>
<stop offset="0.09" stop-color="#8C259C"/>
<stop offset="0.14" stop-color="#6A1C77"/>
<stop offset="0.2" stop-color="#4D1456"/>
<stop offset="0.25" stop-color="#350E3B"/>
<stop offset="0.32" stop-color="#210825"/>
<stop offset="0.4" stop-color="#120414"/>
<stop offset="0.49" stop-color="#070208"/>
<stop offset="0.63" stop-color="#010001"/>
<stop offset="1"/>
</radialGradient>
<radialGradient id="paint9_radial_0_1" cx="0" cy="0" r="1" gradientUnits="userSpaceOnUse" gradientTransform="translate(182.436 149.453) scale(73.8529 73.9245)">
<stop stop-color="#DC3AF5"/>
<stop offset="0.05" stop-color="#B32FC7"/>
<stop offset="0.09" stop-color="#8C259C"/>
<stop offset="0.14" stop-color="#6A1C77"/>
<stop offset="0.2" stop-color="#4D1456"/>
<stop offset="0.25" stop-color="#350E3B"/>
<stop offset="0.32" stop-color="#210825"/>
<stop offset="0.4" stop-color="#120414"/>
<stop offset="0.49" stop-color="#070208"/>
<stop offset="0.63" stop-color="#010001"/>
<stop offset="1"/>
</radialGradient>
<clipPath id="clip0_0_1">
<rect width="1440" height="1024" fill="white" transform="translate(-664 -580)"/>
</clipPath>
</defs>
</svg>
