<svg width="145" height="159" viewBox="0 0 145 159" fill="none" xmlns="http://www.w3.org/2000/svg">
<path d="M90.714 0.592773L63.0214 17.9322L91.7981 96.1829L90.714 0.592773Z" fill="#A839DA"/>
<path d="M37.497 51.1289L34.9988 37.9773L5.42069 49.1291L0 144.131L25.7836 159L37.497 51.1289Z" fill="#962DCC"/>
<path d="M5.4207 49.1291L0.306396 144.296L18.3832 137.426L24.9823 47.6704L5.4207 49.1291Z" fill="#A839DA"/>
<path d="M22.3898 58.8928L25.4301 158.788L25.7836 159L26.42 61.6455L22.3898 58.8928Z" fill="#BB3FF1"/>
<path d="M107.707 10.4036L23.2383 59.4103L25.7836 159L112.373 108.77L107.707 10.4036Z" fill="url(#paint0_linear_221_248)"/>
<path d="M5.42069 49.1289L0 144.131L0.306387 144.296L6.19844 49.5759L6.41055 49.1289H5.42069Z" fill="#BB3FF1"/>
<path d="M89.9127 0.122314L5.42068 49.129L6.19844 49.576L24.9823 47.6703L22.3898 58.8927L23.2382 59.4103L73.2971 30.3545L107.707 10.4036L106.811 9.88601L89.4649 10.6154L90.714 0.592856L89.9127 0.122314Z" fill="url(#paint1_linear_221_248)"/>
<path d="M25.7129 47.0351L6.81122 48.9643L90.1248 0.639893L88.805 11.2035L106.41 10.5212L22.9319 58.9398L25.7129 47.0351Z" fill="#962DCC"/>
<g style="mix-blend-mode:screen" opacity="0.5">
<path d="M18.3832 137.426L0.306396 144.296L25.4301 158.788L18.3832 137.426Z" fill="#A839DA"/>
</g>
<path d="M88.805 11.2035L90.1955 19.9085L106.41 10.5212L88.805 11.2035Z" fill="#A839DA"/>
<path d="M22.9319 58.9398L24.723 57.8811L25.7129 47.0352L22.9319 58.9398Z" fill="#A839DA"/>
<path opacity="0.6" d="M79.4248 37.8831C79.2599 37.389 78.7414 37.1302 78.2464 37.3184C77.7515 37.5066 77.4922 38.0713 77.6572 38.5889C77.7044 38.7536 82.9601 57.6222 71.6238 66.3978C70.3511 67.3859 69.0548 68.0211 67.8057 68.2799C58.2135 70.3738 55.1025 52.4227 55.0789 52.2581C54.9846 51.7405 54.4897 51.4111 53.9947 51.5522C53.4998 51.6699 53.1699 52.211 53.2641 52.7286C53.382 53.4109 56.328 70.3503 65.8731 70.4209C66.5802 70.4209 67.3108 70.3503 68.0885 70.1856C69.5969 69.8562 71.1288 69.1034 72.6372 67.9505C85.1283 58.3045 79.4484 38.0713 79.4013 37.8831H79.4248Z" fill="#962DCC"/>
<path d="M80.014 37.295C80.3204 38.189 79.8962 39.3183 79.0949 39.8124C78.2936 40.33 77.3744 40.0241 77.068 39.1301C76.7616 38.2361 77.1858 37.1068 77.9872 36.6127C78.7885 36.0951 79.7076 36.401 80.014 37.295Z" fill="#A839DA"/>
<path d="M55.8095 51.2464C56.1159 52.1405 55.6917 53.2698 54.8903 53.7638C54.089 54.2814 53.1699 53.9756 52.8635 53.0815C52.5571 52.1875 52.9813 51.0582 53.7826 50.5642C54.584 50.0701 55.5031 50.3524 55.8095 51.2464Z" fill="#A839DA"/>
<path d="M79.4248 37.8597C79.2363 37.3656 78.6706 37.1304 78.1993 37.3186C77.7043 37.5068 77.4687 38.0479 77.6572 38.542C77.7279 38.7067 83.9735 54.9403 72.8022 63.4806C71.5295 64.4452 70.2568 65.0804 69.0077 65.3392C59.2976 67.4331 55.2674 52.07 55.2439 51.9288C55.126 51.4348 54.6075 51.1054 54.089 51.2466C53.5941 51.3642 53.2877 51.8818 53.4055 52.3994C53.5705 53.0581 57.365 67.4331 67.1458 67.4331C67.8764 67.4331 68.6306 67.3625 69.4083 67.1979C70.9403 66.8685 72.4722 66.1391 73.957 64.9863C86.2596 55.5991 79.4955 38.0479 79.4248 37.8597Z" fill="#FFC5FF"/>
<path style="mix-blend-mode:screen" d="M23.2383 59.4104C23.2383 59.4104 28.494 56.3048 36.3657 51.6229C44.2611 46.9881 54.7961 40.824 65.3311 34.66C75.9132 28.5665 86.4953 22.4965 94.4378 17.9088C102.404 13.3916 107.707 10.3801 107.707 10.3801C107.707 10.3801 102.451 13.4857 94.5792 18.1676C86.6838 22.8024 76.1489 28.9664 65.6139 35.1305C55.0318 41.224 44.4496 47.294 36.5071 51.8817C28.5411 56.3989 23.2383 59.4104 23.2383 59.4104Z" fill="url(#paint2_radial_221_248)"/>
<g style="mix-blend-mode:multiply" opacity="0.3">
<path d="M91.7981 120.698L96.8653 64.9863L57.9542 87.384L56.6108 141.12L91.7981 120.698Z" fill="#A839DA"/>
</g>
<path d="M127.363 35.7185L105.656 49.3171L128.235 110.652L127.363 35.7185Z" fill="#A839DA"/>
<path d="M114.259 58.8691L112.302 48.5408L89.1114 57.2928L84.8691 131.756L105.067 143.402L114.259 58.8691Z" fill="#962DCC"/>
<path d="M89.1114 57.2929L85.1048 131.873L99.2693 126.486L104.454 56.1636L89.1114 57.2929Z" fill="#A839DA"/>
<path d="M102.404 64.9392L104.808 143.237L105.067 143.402L105.562 67.1037L102.404 64.9392Z" fill="#BB3FF1"/>
<path d="M140.702 43.4119L121.588 54.5637L103.087 65.339L105.067 143.402L144.332 120.51L140.702 43.4119Z" fill="url(#paint3_linear_221_248)"/>
<path d="M89.1114 57.293L84.8691 131.756L85.1048 131.873L89.7241 57.6459L89.8891 57.293H89.1114Z" fill="#BB3FF1"/>
<path d="M126.75 35.3657L89.1114 57.2929L89.7241 57.6458L104.454 56.1636L102.404 64.9391L103.087 65.3391L140.702 43.4119L139.995 43.012L126.373 43.5766L127.363 35.7186L126.75 35.3657Z" fill="url(#paint4_linear_221_248)"/>
<path d="M105.02 55.6459L90.2191 57.1752L126.915 35.7656L125.878 44.0471L139.665 43.506L102.852 64.9861L105.02 55.6459Z" fill="#962DCC"/>
<g style="mix-blend-mode:screen" opacity="0.5">
<path d="M99.2693 126.486L85.1048 131.874L104.808 143.237L99.2693 126.486Z" fill="#A839DA"/>
</g>
<path d="M125.878 44.0472L126.962 50.8701L139.665 43.5061L125.878 44.0472Z" fill="#A839DA"/>
<path d="M102.852 64.9862L104.242 64.1628L105.02 55.646L102.852 64.9862Z" fill="#A839DA"/>
<path opacity="0.6" d="M133.302 56.046C133.16 55.6225 132.713 55.4107 132.312 55.5754C131.888 55.7401 131.676 56.2107 131.793 56.6341C131.84 56.7753 136.224 72.3502 126.42 79.7376C125.312 80.5611 124.204 81.1022 123.144 81.3375C114.919 83.1491 113.104 67.9271 113.08 67.7859C113.01 67.3389 112.585 67.0801 112.161 67.1978C111.737 67.3154 111.454 67.7624 111.525 68.1859C111.619 68.7505 113.316 83.149 121.47 83.149C122.083 83.149 122.72 83.0785 123.38 82.9373C124.676 82.655 125.996 82.0198 127.315 81.0316C138.086 72.8913 133.349 56.1871 133.302 56.046Z" fill="#962DCC"/>
<path d="M133.844 55.5518C134.103 56.2812 133.75 57.2458 133.066 57.6693C132.383 58.0927 131.628 57.8339 131.369 57.1046C131.11 56.3753 131.463 55.4107 132.147 54.9872C132.83 54.5637 133.585 54.8225 133.844 55.5518Z" fill="#A839DA"/>
<path d="M113.599 67.2213C113.858 67.9506 113.504 68.9152 112.821 69.3387C112.137 69.7622 111.383 69.5034 111.124 68.774C110.865 68.0447 111.218 67.0801 111.902 66.6566C112.585 66.2331 113.339 66.4919 113.599 67.2213Z" fill="#A839DA"/>
<path d="M133.349 56.0459C133.184 55.646 132.713 55.4342 132.335 55.5989C131.935 55.7636 131.723 56.2106 131.888 56.6106C131.935 56.7517 137.167 70.3268 127.834 77.4555C126.773 78.2554 125.713 78.773 124.652 79.0083C116.521 80.7728 113.175 67.9271 113.127 67.7859C113.01 67.3624 112.585 67.1036 112.161 67.2213C111.737 67.3389 111.478 67.7624 111.595 68.1859C111.737 68.727 114.895 80.7728 123.073 80.7728C123.686 80.7728 124.299 80.7022 124.959 80.561C126.255 80.2787 127.528 79.667 128.777 78.7259C139.052 70.8679 133.396 56.1871 133.349 56.0459Z" fill="#FFC5FF"/>
<path style="mix-blend-mode:screen" d="M140.702 43.4119C140.702 43.4119 138.392 44.8235 134.904 46.9644C131.393 49.0583 126.726 51.8345 122.036 54.6107C117.322 57.3163 112.585 60.0219 109.05 62.0452C105.491 64.0215 103.111 65.339 103.111 65.339C103.111 65.339 105.421 63.9274 108.909 61.7864C112.42 59.6925 117.087 56.9164 121.777 54.1402C126.491 51.4346 131.228 48.729 134.763 46.7056C138.322 44.7294 140.702 43.4119 140.702 43.4119Z" fill="url(#paint5_radial_221_248)"/>
<defs>
<linearGradient id="paint0_linear_221_248" x1="23.2383" y1="84.7018" x2="112.373" y2="84.7018" gradientUnits="userSpaceOnUse">
<stop stop-color="#D271F0"/>
<stop offset="1" stop-color="#DA7CF4"/>
</linearGradient>
<linearGradient id="paint1_linear_221_248" x1="5.42068" y1="29.7663" x2="107.707" y2="29.7663" gradientUnits="userSpaceOnUse">
<stop stop-color="#FF98FF"/>
<stop offset="1" stop-color="#FFAFF5"/>
</linearGradient>
<radialGradient id="paint2_radial_221_248" cx="0" cy="0" r="1" gradientUnits="userSpaceOnUse" gradientTransform="translate(65.4725 34.8952) scale(65.6374 65.5226)">
<stop stop-color="#FFEC3D"/>
<stop offset="0.22" stop-color="#E53DFF"/>
<stop offset="0.26" stop-color="#C735DD"/>
<stop offset="0.34" stop-color="#9928AA"/>
<stop offset="0.42" stop-color="#701D7C"/>
<stop offset="0.51" stop-color="#4D1456"/>
<stop offset="0.59" stop-color="#310D37"/>
<stop offset="0.68" stop-color="#1B071E"/>
<stop offset="0.78" stop-color="#0C030D"/>
<stop offset="0.88" stop-color="#020003"/>
<stop offset="1"/>
</radialGradient>
<linearGradient id="paint3_linear_221_248" x1="103.087" y1="93.4067" x2="144.332" y2="93.4067" gradientUnits="userSpaceOnUse">
<stop stop-color="#D271F0"/>
<stop offset="1" stop-color="#DA7CF4"/>
</linearGradient>
<linearGradient id="paint4_linear_221_248" x1="89.1114" y1="50.3524" x2="140.702" y2="50.3524" gradientUnits="userSpaceOnUse">
<stop stop-color="#FF98FF"/>
<stop offset="1" stop-color="#FFAFF5"/>
</linearGradient>
<radialGradient id="paint5_radial_221_248" cx="0" cy="0" r="1" gradientUnits="userSpaceOnUse" gradientTransform="translate(121.895 54.3754) scale(28.7061 28.6559)">
<stop stop-color="#FFEC3D"/>
<stop offset="0.22" stop-color="#E53DFF"/>
<stop offset="0.26" stop-color="#C735DD"/>
<stop offset="0.34" stop-color="#9928AA"/>
<stop offset="0.42" stop-color="#701D7C"/>
<stop offset="0.51" stop-color="#4D1456"/>
<stop offset="0.59" stop-color="#310D37"/>
<stop offset="0.68" stop-color="#1B071E"/>
<stop offset="0.78" stop-color="#0C030D"/>
<stop offset="0.88" stop-color="#020003"/>
<stop offset="1"/>
</radialGradient>
</defs>
</svg>
