<svg width="289" height="192" viewBox="0 0 289 192" fill="none" xmlns="http://www.w3.org/2000/svg">
<g clip-path="url(#clip0_100_808)" filter="url(#filter0_d_100_808)">
<path style="mix-blend-mode:screen" d="M209.863 177.671C251.36 177.671 285 158.238 285 134.267C285 110.296 251.36 90.863 209.863 90.863C168.367 90.863 134.727 110.296 134.727 134.267C134.727 158.238 168.367 177.671 209.863 177.671Z" fill="url(#paint0_radial_100_808)"/>
<g style="mix-blend-mode:multiply" opacity="0.7">
<path d="M230.147 134.595L163.3 98.0732L110.268 128.716L84.9904 103.768L4 149.486L6.35378 150.838H85.3179L142.136 183.672C142.914 184.123 147.499 184.123 148.276 183.672L230.147 136.377C230.822 135.988 230.822 134.984 230.147 134.595Z" fill="#52017B"/>
</g>
<path d="M151.51 24.0266C151.183 23.9652 150.814 24.0266 150.446 24.2315L69.742 70.8716L70.3356 70.9945L151.039 24.3544C151.387 24.1495 151.756 24.0881 152.104 24.1495L151.51 24.0266Z" fill="url(#paint1_linear_100_808)"/>
<path d="M86.8529 146.413L69.128 74.2718L68.5344 74.1489L86.2594 146.291C86.4641 147.089 86.9553 147.601 87.5488 147.724L88.1424 147.847C87.5488 147.724 87.0576 147.212 86.8529 146.413Z" fill="#8B3DCE"/>
<path d="M70.356 70.974L69.7625 70.8511C68.78 71.4246 68.2274 72.8994 68.5344 74.1489L69.128 74.2718C68.821 73.0223 69.3736 71.5475 70.356 70.974Z" fill="url(#paint2_linear_100_808)"/>
<path d="M171.118 97.725L153.393 25.5834C153.086 24.3339 152.042 23.7809 151.06 24.3339L70.356 70.974C69.3736 71.5475 68.821 73.0223 69.128 74.2718L86.8529 146.413C87.16 147.663 88.2038 148.216 89.1863 147.663L169.89 101.023C170.873 100.449 171.425 98.9744 171.118 97.725Z" fill="#291B2A"/>
<path d="M167.639 92.1945L151.51 26.4846L70.9087 73.0428L87.0781 138.753L167.639 92.1945Z" fill="#101014"/>
<path d="M88.3676 146.7V148.933C88.3676 149.301 88.6132 149.691 89.1044 149.977L145.779 182.73C146.762 183.303 148.358 183.303 149.341 182.73L229.512 136.09C230.004 135.803 230.249 135.434 230.249 135.066V132.833L88.3676 146.7Z" fill="url(#paint3_linear_100_808)"/>
<path d="M229.533 131.788L172.858 99.0359C171.875 98.4623 170.279 98.4623 169.297 99.0359L89.1249 145.676C88.1424 146.249 88.1424 147.171 89.1249 147.745L145.8 180.497C146.782 181.071 148.379 181.071 149.361 180.497L229.533 133.857C230.515 133.284 230.495 132.362 229.533 131.788Z" fill="url(#paint4_linear_100_808)"/>
<path d="M164.016 108.991C164.016 108.991 164.016 108.909 164.016 108.868C164.016 108.827 164.016 108.786 164.016 108.745C163.975 108.581 164.057 108.417 164.261 108.294L168.007 106.123C168.375 105.918 168.969 105.918 169.337 106.123L172.489 107.946C172.694 108.069 172.776 108.233 172.735 108.397C172.735 108.438 172.735 108.479 172.735 108.52C172.735 108.561 172.735 108.602 172.735 108.642C172.776 108.806 172.694 108.97 172.489 109.093L168.744 111.264C168.375 111.469 167.782 111.469 167.413 111.264L164.261 109.441C164.057 109.318 163.975 109.155 164.016 108.991ZM170.32 105.939L173.472 107.762C173.84 107.967 174.434 107.967 174.802 107.762L178.548 105.59C178.753 105.468 178.834 105.304 178.793 105.14C178.793 105.099 178.793 105.058 178.793 105.017C178.793 104.976 178.793 104.935 178.793 104.894C178.834 104.73 178.753 104.566 178.548 104.443L175.396 102.62C175.027 102.416 174.434 102.416 174.065 102.62L170.32 104.792C170.115 104.915 170.033 105.078 170.074 105.242C170.074 105.283 170.074 105.324 170.074 105.365C170.074 105.406 170.074 105.447 170.074 105.488C170.033 105.652 170.115 105.816 170.32 105.939ZM158.203 112.944L161.355 114.767C161.723 114.972 162.317 114.972 162.685 114.767L166.431 112.596C166.636 112.473 166.718 112.309 166.677 112.145C166.677 112.104 166.677 112.063 166.677 112.022C166.677 111.981 166.677 111.94 166.677 111.899C166.718 111.735 166.636 111.572 166.431 111.449L163.279 109.626C162.911 109.421 162.317 109.421 161.969 109.626L158.224 111.797C158.019 111.92 157.937 112.084 157.978 112.247C157.978 112.288 157.978 112.329 157.978 112.37C157.978 112.411 157.978 112.452 157.978 112.493C157.937 112.657 158.019 112.821 158.224 112.944H158.203ZM112.622 151.964L115.774 153.787C116.142 153.992 116.736 153.992 117.104 153.787L120.85 151.616C121.054 151.493 121.136 151.329 121.095 151.165C121.095 151.124 121.095 151.084 121.095 151.043C121.095 151.002 121.095 150.961 121.095 150.92C121.136 150.756 121.054 150.592 120.85 150.469L117.698 148.646C117.329 148.441 116.736 148.441 116.367 148.646L112.622 150.817C112.417 150.94 112.335 151.104 112.376 151.268C112.376 151.309 112.376 151.35 112.376 151.391C112.376 151.432 112.376 151.473 112.376 151.514C112.335 151.678 112.417 151.841 112.622 151.964ZM125.844 131.604L128.996 133.427C129.364 133.632 129.958 133.632 130.326 133.427L134.072 131.256C134.276 131.133 134.358 130.969 134.317 130.805C134.317 130.764 134.317 130.723 134.317 130.682C134.317 130.641 134.317 130.6 134.317 130.559C134.358 130.396 134.276 130.232 134.072 130.109L130.92 128.286C130.551 128.081 129.958 128.081 129.589 128.286L125.844 130.457C125.639 130.58 125.557 130.744 125.598 130.908C125.598 130.949 125.598 130.99 125.598 131.031C125.598 131.071 125.598 131.112 125.598 131.153C125.557 131.317 125.639 131.481 125.844 131.604ZM137.961 124.599L141.113 126.422C141.481 126.627 142.075 126.627 142.443 126.422L146.189 124.251C146.393 124.128 146.475 123.964 146.434 123.8C146.434 123.759 146.434 123.718 146.434 123.677C146.434 123.636 146.434 123.595 146.434 123.554C146.475 123.39 146.393 123.226 146.189 123.104L143.037 121.281C142.668 121.076 142.075 121.076 141.706 121.281L137.961 123.452C137.756 123.575 137.674 123.739 137.715 123.902C137.715 123.943 137.715 123.984 137.715 124.025C137.715 124.066 137.715 124.107 137.715 124.148C137.674 124.312 137.756 124.476 137.961 124.599ZM150.077 117.594L153.229 119.417C153.598 119.621 154.191 119.621 154.539 119.417L160.25 116.119C160.454 115.996 160.536 115.832 160.495 115.668C160.495 115.627 160.495 115.586 160.495 115.545C160.495 115.504 160.495 115.463 160.495 115.422C160.536 115.259 160.454 115.095 160.25 114.972L157.098 113.149C156.729 112.944 156.136 112.944 155.767 113.149L150.057 116.447C149.852 116.569 149.77 116.733 149.811 116.897C149.811 116.938 149.811 116.979 149.811 117.02C149.811 117.061 149.811 117.102 149.811 117.143C149.77 117.307 149.852 117.471 150.057 117.594H150.077ZM144.019 121.096L147.171 122.919C147.539 123.124 148.133 123.124 148.501 122.919L152.247 120.748C152.452 120.625 152.534 120.461 152.493 120.297C152.493 120.256 152.493 120.215 152.493 120.174C152.493 120.133 152.493 120.093 152.493 120.052C152.534 119.888 152.452 119.724 152.247 119.601L149.095 117.778C148.727 117.573 148.133 117.573 147.785 117.778L144.039 119.949C143.835 120.072 143.753 120.236 143.794 120.4C143.794 120.441 143.794 120.482 143.794 120.523C143.794 120.564 143.794 120.605 143.794 120.646C143.753 120.809 143.835 120.973 144.039 121.096H144.019ZM131.902 128.101L135.054 129.924C135.423 130.129 136.016 130.129 136.364 129.924L140.11 127.753C140.314 127.63 140.396 127.466 140.355 127.303C140.355 127.262 140.355 127.221 140.355 127.18C140.355 127.139 140.355 127.098 140.355 127.057C140.396 126.893 140.314 126.729 140.11 126.606L136.958 124.783C136.589 124.578 135.996 124.578 135.648 124.783L131.902 126.954C131.697 127.077 131.616 127.241 131.657 127.405C131.657 127.446 131.657 127.487 131.657 127.528C131.657 127.569 131.657 127.61 131.657 127.651C131.616 127.815 131.697 127.979 131.902 128.101ZM157.671 119.642L160.823 121.465C161.191 121.67 161.785 121.67 162.153 121.465L165.899 119.294C166.104 119.171 166.185 119.007 166.145 118.843C166.145 118.802 166.145 118.761 166.145 118.72C166.145 118.679 166.145 118.638 166.145 118.597C166.185 118.433 166.104 118.27 165.899 118.147L162.747 116.324C162.378 116.119 161.785 116.119 161.416 116.324L157.671 118.495C157.466 118.618 157.384 118.782 157.425 118.945C157.425 118.986 157.425 119.027 157.425 119.068C157.425 119.109 157.425 119.15 157.425 119.191C157.384 119.355 157.466 119.519 157.671 119.642ZM109.204 147.642L112.356 149.465C112.724 149.67 113.318 149.67 113.686 149.465L117.432 147.294C117.636 147.171 117.718 147.007 117.677 146.844C117.677 146.803 117.677 146.762 117.677 146.721C117.677 146.68 117.677 146.639 117.677 146.598C117.718 146.434 117.636 146.27 117.432 146.147L114.28 144.324C113.911 144.119 113.318 144.119 112.949 144.324L109.204 146.495C108.999 146.618 108.917 146.782 108.958 146.946C108.958 146.987 108.958 147.028 108.958 147.069C108.958 147.11 108.958 147.151 108.958 147.192C108.917 147.356 108.999 147.519 109.204 147.642ZM151.612 123.145L154.765 124.968C155.133 125.172 155.726 125.172 156.074 124.968L159.82 122.796C160.025 122.673 160.107 122.51 160.066 122.346C160.066 122.305 160.066 122.264 160.066 122.223C160.066 122.182 160.066 122.141 160.066 122.1C160.107 121.936 160.025 121.772 159.82 121.649L156.668 119.826C156.3 119.621 155.706 119.621 155.338 119.826L151.592 121.997C151.387 122.12 151.305 122.284 151.346 122.448C151.346 122.489 151.346 122.53 151.346 122.571C151.346 122.612 151.346 122.653 151.346 122.694C151.305 122.858 151.387 123.022 151.592 123.145H151.612ZM145.554 126.647L148.706 128.47C149.074 128.675 149.668 128.675 150.016 128.47L153.762 126.299C153.966 126.176 154.048 126.012 154.007 125.848C154.007 125.807 154.007 125.766 154.007 125.725C154.007 125.684 154.007 125.643 154.007 125.602C154.048 125.439 153.966 125.275 153.762 125.152L150.61 123.329C150.241 123.124 149.648 123.124 149.279 123.329L145.534 125.5C145.329 125.623 145.247 125.787 145.288 125.951C145.288 125.992 145.288 126.033 145.288 126.074C145.288 126.115 145.288 126.156 145.288 126.197C145.247 126.36 145.329 126.524 145.534 126.647H145.554ZM139.496 130.15L142.648 131.973C143.016 132.178 143.61 132.178 143.978 131.973L147.724 129.802C147.928 129.679 148.01 129.515 147.969 129.351C147.969 129.31 147.969 129.269 147.969 129.228C147.969 129.187 147.969 129.146 147.969 129.105C148.01 128.941 147.928 128.777 147.724 128.654L144.572 126.831C144.203 126.627 143.61 126.627 143.241 126.831L139.496 129.003C139.291 129.126 139.209 129.289 139.25 129.453C139.25 129.494 139.25 129.535 139.25 129.576C139.25 129.617 139.25 129.658 139.25 129.699C139.209 129.863 139.291 130.027 139.496 130.15ZM115.262 144.16L118.414 145.983C118.782 146.188 119.376 146.188 119.744 145.983L123.49 143.812C123.695 143.689 123.777 143.525 123.736 143.361C123.736 143.32 123.736 143.279 123.736 143.238C123.736 143.198 123.736 143.157 123.736 143.116C123.777 142.952 123.695 142.788 123.49 142.665L120.338 140.842C119.97 140.637 119.376 140.637 119.028 140.842L115.282 143.013C115.078 143.136 114.996 143.3 115.037 143.464C115.037 143.505 115.037 143.546 115.037 143.587C115.037 143.628 115.037 143.669 115.037 143.71C114.996 143.873 115.078 144.037 115.282 144.16H115.262ZM121.32 140.658L124.472 142.481C124.841 142.685 125.434 142.685 125.803 142.481L129.548 140.309C129.753 140.186 129.835 140.023 129.794 139.859C129.794 139.818 129.794 139.777 129.794 139.736C129.794 139.695 129.794 139.654 129.794 139.613C129.835 139.449 129.753 139.285 129.548 139.162C124.902 136.479 126.478 136.52 121.32 139.511C121.116 139.633 121.034 139.797 121.075 139.961C121.075 140.002 121.075 140.043 121.075 140.084C121.075 140.125 121.075 140.166 121.075 140.207C121.034 140.371 121.116 140.535 121.32 140.658ZM127.379 137.155L130.531 138.978C130.899 139.183 131.493 139.183 131.861 138.978L135.607 136.807C135.811 136.684 135.893 136.52 135.852 136.356C135.852 136.315 135.852 136.274 135.852 136.233C135.852 136.192 135.852 136.151 135.852 136.11C135.893 135.946 135.811 135.783 135.607 135.66L132.455 133.837C132.086 133.632 131.493 133.632 131.124 133.837L127.379 136.008C127.174 136.131 127.092 136.295 127.133 136.459C127.133 136.5 127.133 136.54 127.133 136.581C127.133 136.622 127.133 136.663 127.133 136.704C127.092 136.868 127.174 137.032 127.379 137.155ZM133.437 133.652C136.528 135.434 137.08 135.967 137.92 135.475L141.665 133.304C141.87 133.181 141.952 133.017 141.911 132.854C141.911 132.813 141.911 132.772 141.911 132.731C141.911 132.69 141.911 132.649 141.911 132.608C141.952 132.444 141.87 132.28 141.665 132.157L138.513 130.334C138.145 130.129 137.551 130.129 137.203 130.334L133.458 132.505C133.253 132.628 133.171 132.792 133.212 132.956C133.212 132.997 133.212 133.038 133.212 133.079C133.212 133.12 133.212 133.161 133.212 133.202C133.171 133.366 133.253 133.529 133.458 133.652H133.437ZM122.63 156.737C122.63 156.737 122.63 156.655 122.63 156.614C122.63 156.573 122.63 156.532 122.63 156.491C122.671 156.327 122.589 156.163 122.385 156.04L119.233 154.217C118.864 154.013 118.271 154.013 117.902 154.217L112.192 157.515C111.987 157.638 111.905 157.802 111.946 157.966C111.946 158.007 111.946 158.048 111.946 158.089C111.946 158.13 111.946 158.171 111.946 158.212C111.905 158.376 111.987 158.539 112.192 158.662L115.344 160.485C115.712 160.69 116.306 160.69 116.654 160.485L122.364 157.187C122.569 157.065 122.651 156.901 122.61 156.737H122.63ZM115.037 154.709C115.037 154.709 115.037 154.627 115.037 154.586C115.037 154.545 115.037 154.504 115.037 154.463C115.078 154.299 114.996 154.136 114.791 154.013L111.639 152.19C111.271 151.985 110.677 151.985 110.329 152.19L106.584 154.361C106.379 154.484 106.297 154.648 106.338 154.811C106.338 154.852 106.338 154.893 106.338 154.934C106.338 154.975 106.338 155.016 106.338 155.057C106.297 155.221 106.379 155.385 106.584 155.508L109.736 157.331C110.104 157.536 110.698 157.536 111.046 157.331L114.791 155.16C114.996 155.037 115.078 154.873 115.037 154.709ZM119.785 135.127C124.329 137.749 122.753 137.81 128.013 134.779C128.218 134.656 128.3 134.492 128.259 134.328C128.259 134.287 128.259 134.246 128.259 134.205C128.259 134.164 128.259 134.123 128.259 134.083C128.3 133.919 128.218 133.755 128.013 133.632L124.861 131.809C124.493 131.604 123.899 131.604 123.531 131.809L119.785 133.98C119.581 134.103 119.499 134.267 119.54 134.431C119.54 134.472 119.54 134.513 119.54 134.554C119.54 134.595 119.54 134.636 119.54 134.677C119.499 134.84 119.581 135.004 119.785 135.127ZM183.276 121.752C183.276 121.752 183.276 121.67 183.276 121.629C183.276 121.588 183.276 121.547 183.276 121.506C183.317 121.342 183.235 121.178 183.03 121.055L179.878 119.232C179.51 119.027 178.916 119.027 178.548 119.232L174.802 121.403C174.598 121.526 174.516 121.69 174.557 121.854C174.557 121.895 174.557 121.936 174.557 121.977C174.557 122.018 174.557 122.059 174.557 122.1C174.516 122.264 174.598 122.428 174.802 122.551L177.954 124.374C178.323 124.578 178.916 124.578 179.264 124.374L183.01 122.202C183.215 122.079 183.296 121.916 183.255 121.752H183.276ZM111.639 150.367C111.639 150.367 111.639 150.285 111.639 150.244C111.639 150.203 111.639 150.162 111.639 150.121C111.68 149.957 111.598 149.793 111.394 149.67L108.242 147.847C107.873 147.642 107.28 147.642 106.932 147.847L101.221 151.145C101.017 151.268 100.935 151.432 100.976 151.596C100.976 151.637 100.976 151.678 100.976 151.718C100.976 151.759 100.976 151.8 100.976 151.841C100.935 152.005 101.017 152.169 101.221 152.292L104.373 154.115C104.742 154.32 105.335 154.32 105.704 154.115L111.414 150.817C111.619 150.694 111.701 150.53 111.66 150.367H111.639ZM113.747 138.609L116.899 140.432C117.268 140.637 117.861 140.637 118.23 140.432L121.975 138.261C122.18 138.138 122.262 137.974 122.221 137.81C122.221 137.769 122.221 137.729 122.221 137.688C122.221 137.647 122.221 137.606 122.221 137.565C122.262 137.401 122.18 137.237 121.975 137.114L118.823 135.291C118.455 135.086 117.861 135.086 117.493 135.291L113.747 137.462C113.543 137.585 113.461 137.749 113.502 137.913C113.502 137.954 113.502 137.995 113.502 138.036C113.502 138.077 113.502 138.118 113.502 138.159C113.461 138.323 113.543 138.486 113.747 138.609ZM107.689 142.112L110.841 143.935C111.209 144.14 111.803 144.14 112.171 143.935L115.917 141.764C116.122 141.641 116.203 141.477 116.163 141.313C116.163 141.272 116.163 141.231 116.163 141.19C116.163 141.149 116.163 141.108 116.163 141.067C116.203 140.903 116.122 140.74 115.917 140.617L112.765 138.794C112.397 138.589 111.803 138.589 111.435 138.794L107.689 140.965C107.484 141.088 107.402 141.252 107.443 141.415C107.443 141.456 107.443 141.497 107.443 141.538C107.443 141.579 107.443 141.62 107.443 141.661C107.402 141.825 107.484 141.989 107.689 142.112ZM104.046 148.318C104.046 148.318 104.046 148.236 104.046 148.195C104.046 148.154 104.046 148.113 104.046 148.073C104.087 147.909 104.005 147.745 103.8 147.622L100.648 145.799C100.28 145.594 99.6861 145.594 99.3177 145.799L95.5721 147.97C95.3675 148.093 95.2856 148.257 95.3265 148.421C95.3265 148.462 95.3265 148.503 95.3265 148.544C95.3265 148.585 95.3265 148.626 95.3265 148.667C95.2856 148.83 95.3675 148.994 95.5721 149.117L98.7241 150.94C99.0926 151.145 99.6861 151.145 100.055 150.94L103.8 148.769C104.005 148.646 104.087 148.482 104.046 148.318ZM101.631 145.615L104.783 147.438C105.151 147.642 105.745 147.642 106.092 147.438L109.838 145.266C110.043 145.143 110.125 144.98 110.084 144.816C110.084 144.775 110.084 144.734 110.084 144.693C110.084 144.652 110.084 144.611 110.084 144.57C110.125 144.406 110.043 144.242 109.838 144.119L106.686 142.296C106.318 142.091 105.724 142.091 105.376 142.296L101.631 144.467C101.426 144.59 101.344 144.754 101.385 144.918C101.385 144.959 101.385 145 101.385 145.041C101.385 145.082 101.385 145.123 101.385 145.164C101.344 145.328 101.426 145.492 101.631 145.615ZM200.96 117.676C201.001 117.512 200.919 117.348 200.714 117.225L197.562 115.402C197.194 115.197 196.6 115.197 196.232 115.402L192.486 117.573C192.282 117.696 192.2 117.86 192.241 118.024C192.241 118.065 192.241 118.106 192.241 118.147C192.241 118.188 192.241 118.229 192.241 118.27C192.2 118.433 192.282 118.597 192.486 118.72L195.638 120.543C196.007 120.748 196.6 120.748 196.969 120.543L200.714 118.372C200.919 118.249 201.001 118.085 200.96 117.921C200.96 117.88 200.96 117.839 200.96 117.798C200.96 117.757 200.96 117.716 200.96 117.676ZM176.951 124.496L173.799 122.673C173.431 122.469 172.837 122.469 172.489 122.673L168.744 124.845C168.539 124.968 168.457 125.131 168.498 125.295C168.498 125.336 168.498 125.377 168.498 125.418C168.498 125.459 168.498 125.5 168.498 125.541C168.457 125.705 168.539 125.869 168.744 125.992L171.896 127.815C172.264 128.02 172.858 128.02 173.206 127.815L176.951 125.643C177.156 125.521 177.238 125.357 177.197 125.193C177.197 125.152 177.197 125.111 177.197 125.07C177.197 125.029 177.197 124.988 177.197 124.947C177.238 124.783 177.156 124.619 176.951 124.496ZM189.109 117.512L185.957 115.689C185.589 115.484 184.995 115.484 184.627 115.689L180.881 117.86C180.677 117.983 180.595 118.147 180.636 118.311C180.636 118.351 180.636 118.392 180.636 118.433C180.636 118.474 180.636 118.515 180.636 118.556C180.595 118.72 180.677 118.884 180.881 119.007L184.033 120.83C184.402 121.035 184.995 121.035 185.364 120.83L189.109 118.659C189.314 118.536 189.396 118.372 189.355 118.208C189.355 118.167 189.355 118.126 189.355 118.085C189.355 118.044 189.355 118.003 189.355 117.962C189.396 117.798 189.314 117.635 189.109 117.512ZM164.835 131.481L161.683 129.658C161.314 129.453 160.721 129.453 160.352 129.658L156.607 131.829C156.402 131.952 156.32 132.116 156.361 132.28C156.361 132.321 156.361 132.362 156.361 132.403C156.361 132.444 156.361 132.485 156.361 132.526C156.32 132.69 156.402 132.854 156.607 132.976L159.759 134.799C160.127 135.004 160.721 135.004 161.069 134.799L164.814 132.628C165.019 132.505 165.101 132.341 165.06 132.178C165.06 132.137 165.06 132.096 165.06 132.055C165.06 132.014 165.06 131.973 165.06 131.932C165.101 131.768 165.019 131.604 164.814 131.481H164.835ZM186.694 114.787C186.694 114.787 186.694 114.869 186.694 114.91C186.694 114.951 186.694 114.992 186.694 115.033C186.653 115.197 186.735 115.361 186.94 115.484L190.092 117.307C190.46 117.512 191.054 117.512 191.422 117.307L195.168 115.136C195.372 115.013 195.454 114.849 195.413 114.685C195.413 114.644 195.413 114.603 195.413 114.562C195.413 114.521 195.413 114.48 195.413 114.439C195.454 114.275 195.372 114.111 195.168 113.989L192.016 112.166C191.647 111.961 191.054 111.961 190.685 112.166L186.94 114.337C186.735 114.46 186.653 114.624 186.694 114.787ZM140.601 145.471L137.449 143.648C137.08 143.443 136.487 143.443 136.118 143.648L132.373 145.819C132.168 145.942 132.086 146.106 132.127 146.27C132.127 146.311 132.127 146.352 132.127 146.393C132.127 146.434 132.127 146.475 132.127 146.516C132.086 146.68 132.168 146.844 132.373 146.966L135.525 148.789C135.893 148.994 136.487 148.994 136.855 148.789L140.601 146.618C140.806 146.495 140.887 146.331 140.847 146.168C140.847 146.127 140.847 146.086 140.847 146.045C140.847 146.004 140.847 145.963 140.847 145.922C140.887 145.758 140.806 145.594 140.601 145.471ZM152.718 138.466L149.566 136.643C149.197 136.438 148.604 136.438 148.235 136.643L144.49 138.814C144.285 138.937 144.203 139.101 144.244 139.265C144.244 139.306 144.244 139.347 144.244 139.388C144.244 139.429 144.244 139.47 144.244 139.511C144.203 139.674 144.285 139.838 144.49 139.961L147.642 141.784C148.01 141.989 148.604 141.989 148.972 141.784L152.718 139.613C152.922 139.49 153.004 139.326 152.963 139.162C152.963 139.121 152.963 139.08 152.963 139.039C152.963 138.998 152.963 138.958 152.963 138.917C153.004 138.753 152.922 138.589 152.718 138.466ZM146.659 141.969L143.507 140.146C143.139 139.941 142.545 139.941 142.197 140.146L138.452 142.317C138.247 142.44 138.165 142.603 138.206 142.767C138.206 142.808 138.206 142.849 138.206 142.89C138.206 142.931 138.206 142.972 138.206 143.013C138.165 143.177 138.247 143.341 138.452 143.464L141.604 145.287C141.972 145.492 142.566 145.492 142.914 145.287L146.659 143.116C146.864 142.993 146.946 142.829 146.905 142.665C146.905 142.624 146.905 142.583 146.905 142.542C146.905 142.501 146.905 142.46 146.905 142.419C146.946 142.255 146.864 142.091 146.659 141.969ZM134.542 148.974L131.39 147.151C131.022 146.946 130.428 146.946 130.06 147.151L126.315 149.322C126.11 149.445 126.028 149.609 126.069 149.773C126.069 149.814 126.069 149.855 126.069 149.896C126.069 149.936 126.069 149.977 126.069 150.018C126.028 150.182 126.11 150.346 126.315 150.469L129.467 152.292C129.835 152.497 130.428 152.497 130.797 152.292L134.542 150.121C134.747 149.998 134.829 149.834 134.788 149.67C134.788 149.629 134.788 149.588 134.788 149.547C134.788 149.506 134.788 149.465 134.788 149.424C134.829 149.261 134.747 149.097 134.542 148.974ZM128.484 152.476L125.332 150.653C124.964 150.449 124.37 150.449 124.002 150.653L120.256 152.825C120.051 152.947 119.97 153.111 120.01 153.275C120.01 153.316 120.01 153.357 120.01 153.398C120.01 153.439 120.01 153.48 120.01 153.521C119.97 153.685 120.051 153.849 120.256 153.972L123.408 155.795C123.777 155.999 124.37 155.999 124.739 155.795L128.484 153.623C128.689 153.501 128.771 153.337 128.73 153.173C128.73 153.132 128.73 153.091 128.73 153.05C128.73 153.009 128.73 152.968 128.73 152.927C128.771 152.763 128.689 152.599 128.484 152.476ZM158.776 134.963L155.624 133.14C155.256 132.935 154.662 132.935 154.314 133.14L150.569 135.312C150.364 135.434 150.282 135.598 150.323 135.762C150.323 135.803 150.323 135.844 150.323 135.885C150.323 135.926 150.323 135.967 150.323 136.008C150.282 136.172 150.364 136.336 150.569 136.459L153.721 138.282C154.089 138.486 154.683 138.486 155.031 138.282L158.776 136.11C158.981 135.987 159.063 135.824 159.022 135.66C159.022 135.619 159.022 135.578 159.022 135.537C159.022 135.496 159.022 135.455 159.022 135.414C159.063 135.25 158.981 135.086 158.776 134.963ZM170.893 127.958L167.741 126.135C167.373 125.93 166.779 125.93 166.411 126.135L162.665 128.306C162.46 128.429 162.378 128.593 162.419 128.757C162.419 128.798 162.419 128.839 162.419 128.88C162.419 128.921 162.419 128.962 162.419 129.003C162.378 129.167 162.46 129.33 162.665 129.453L165.817 131.276C166.185 131.481 166.779 131.481 167.147 131.276L170.893 129.105C171.098 128.982 171.18 128.818 171.139 128.654C171.139 128.614 171.139 128.573 171.139 128.532C171.139 128.491 171.139 128.45 171.139 128.409C171.18 128.245 171.098 128.081 170.893 127.958ZM137.94 153.275L134.788 151.452C134.42 151.247 133.826 151.247 133.458 151.452L129.712 153.623C129.507 153.746 129.426 153.91 129.467 154.074C129.467 154.115 129.467 154.156 129.467 154.197C129.467 154.238 129.467 154.279 129.467 154.32C129.426 154.484 129.507 154.648 129.712 154.77L132.864 156.593C133.233 156.798 133.826 156.798 134.174 156.593L137.92 154.422C138.124 154.299 138.206 154.136 138.165 153.972C138.165 153.931 138.165 153.89 138.165 153.849C138.165 153.808 138.165 153.767 138.165 153.726C138.206 153.562 138.124 153.398 137.92 153.275H137.94ZM143.999 149.773L140.847 147.95C140.478 147.745 139.885 147.745 139.516 147.95L135.771 150.121C135.566 150.244 135.484 150.408 135.525 150.571C135.525 150.612 135.525 150.653 135.525 150.694C135.525 150.735 135.525 150.776 135.525 150.817C135.484 150.981 135.566 151.145 135.771 151.268L138.923 153.091C139.291 153.296 139.885 153.296 140.232 153.091L143.978 150.92C144.183 150.797 144.265 150.633 144.224 150.469C144.224 150.428 144.224 150.387 144.224 150.346C144.224 150.305 144.224 150.264 144.224 150.223C144.265 150.059 144.183 149.896 143.978 149.773H143.999ZM131.882 156.778L128.73 154.955C128.361 154.75 127.768 154.75 127.399 154.955L123.654 157.126C123.449 157.249 123.367 157.413 123.408 157.577C123.408 157.618 123.408 157.659 123.408 157.7C123.408 157.741 123.408 157.782 123.408 157.822C123.367 157.986 123.449 158.15 123.654 158.273L126.806 160.096C127.174 160.301 127.768 160.301 128.136 160.096L131.882 157.925C132.086 157.802 132.168 157.638 132.127 157.474C132.127 157.433 132.127 157.392 132.127 157.351C132.127 157.31 132.127 157.269 132.127 157.228C132.168 157.065 132.086 156.901 131.882 156.778ZM125.823 160.28L122.671 158.457C122.303 158.253 121.709 158.253 121.361 158.457L117.616 160.629C117.411 160.752 117.329 160.915 117.37 161.079C117.37 161.12 117.37 161.161 117.37 161.202C117.37 161.243 117.37 161.284 117.37 161.325C117.329 161.489 117.411 161.653 117.616 161.776L120.768 163.599C121.136 163.804 121.73 163.804 122.078 163.599L125.823 161.427C126.028 161.305 126.11 161.141 126.069 160.977C126.069 160.936 126.069 160.895 126.069 160.854C126.069 160.813 126.069 160.772 126.069 160.731C126.11 160.567 126.028 160.403 125.823 160.28ZM171.323 121.301L168.171 119.478C167.802 119.273 167.209 119.273 166.84 119.478L161.13 122.776C160.925 122.899 160.843 123.063 160.884 123.226C160.884 123.267 160.884 123.308 160.884 123.349C160.884 123.39 160.884 123.431 160.884 123.472C160.843 123.636 160.925 123.8 161.13 123.923L164.282 125.746C164.65 125.951 165.244 125.951 165.612 125.746L171.323 122.448C171.527 122.325 171.609 122.161 171.568 121.997C171.568 121.957 171.568 121.916 171.568 121.875C171.568 121.834 171.568 121.793 171.568 121.752C171.609 121.588 171.527 121.424 171.323 121.301ZM182.273 127.671L179.121 125.848C178.753 125.643 178.159 125.643 177.791 125.848L172.08 129.146C171.875 129.269 171.794 129.433 171.835 129.597C171.835 129.638 171.835 129.679 171.835 129.72C171.835 129.761 171.835 129.802 171.835 129.843C171.794 130.006 171.875 130.17 172.08 130.293L175.232 132.116C175.601 132.321 176.194 132.321 176.563 132.116L182.273 128.818C182.478 128.695 182.56 128.532 182.519 128.368C182.519 128.327 182.519 128.286 182.519 128.245C182.519 128.204 182.519 128.163 182.519 128.122C182.56 127.958 182.478 127.794 182.273 127.671ZM194.676 120.687L191.524 118.864C191.156 118.659 190.562 118.659 190.194 118.864L186.448 121.035C186.244 121.158 186.162 121.322 186.203 121.485C186.203 121.526 186.203 121.567 186.203 121.608C186.203 121.649 186.203 121.69 186.203 121.731C186.162 121.895 186.244 122.059 186.448 122.182L189.6 124.005C189.969 124.21 190.562 124.21 190.931 124.005L194.676 121.834C194.881 121.711 194.963 121.547 194.922 121.383C194.922 121.342 194.922 121.301 194.922 121.26C194.922 121.219 194.922 121.178 194.922 121.137C194.963 120.973 194.881 120.809 194.676 120.687ZM188.618 124.189L185.466 122.366C185.098 122.161 184.504 122.161 184.156 122.366L180.41 124.537C180.206 124.66 180.124 124.824 180.165 124.988C180.165 125.029 180.165 125.07 180.165 125.111C180.165 125.152 180.165 125.193 180.165 125.234C180.124 125.398 180.206 125.562 180.41 125.684L183.562 127.507C183.931 127.712 184.524 127.712 184.893 127.507L188.638 125.336C188.843 125.213 188.925 125.049 188.884 124.886C188.884 124.845 188.884 124.804 188.884 124.763C188.884 124.722 188.884 124.681 188.884 124.64C188.925 124.476 188.843 124.312 188.638 124.189H188.618ZM174.413 132.28L171.261 130.457C170.893 130.252 170.299 130.252 169.931 130.457L141.87 146.68C141.665 146.803 141.583 146.966 141.624 147.13C141.624 147.171 141.624 147.212 141.624 147.253C141.624 147.294 141.624 147.335 141.624 147.376C141.583 147.54 141.665 147.704 141.87 147.827L145.022 149.65C145.39 149.855 145.984 149.855 146.332 149.65L174.393 133.427C174.598 133.304 174.68 133.14 174.639 132.976C174.639 132.935 174.639 132.894 174.639 132.854C174.639 132.813 174.639 132.772 174.639 132.731C174.68 132.567 174.598 132.403 174.393 132.28H174.413ZM151.203 132.935L148.051 131.112C147.683 130.908 147.089 130.908 146.721 131.112L142.975 133.284C142.77 133.407 142.689 133.57 142.73 133.734C142.73 133.775 142.73 133.816 142.73 133.857C142.73 133.898 142.73 133.939 142.73 133.98C142.689 134.144 142.77 134.308 142.975 134.431L146.127 136.254C146.496 136.459 147.089 136.459 147.458 136.254L151.203 134.083C151.408 133.96 151.49 133.796 151.449 133.632C151.449 133.591 151.449 133.55 151.449 133.509C151.449 133.468 151.449 133.427 151.449 133.386C151.49 133.222 151.408 133.058 151.203 132.935ZM145.145 136.438L141.993 134.615C141.624 134.41 141.031 134.41 140.683 134.615L136.937 136.786C136.733 136.909 136.651 137.073 136.692 137.237C136.692 137.278 136.692 137.319 136.692 137.36C136.692 137.401 136.692 137.442 136.692 137.483C136.651 137.647 136.733 137.81 136.937 137.933L140.089 139.756C140.458 139.961 141.051 139.961 141.399 139.756L145.145 137.585C145.349 137.462 145.431 137.298 145.39 137.134C145.39 137.094 145.39 137.053 145.39 137.012C145.39 136.971 145.39 136.93 145.39 136.889C145.431 136.725 145.349 136.561 145.145 136.438ZM157.262 129.433L154.11 127.61C153.741 127.405 153.148 127.405 152.8 127.61L149.054 129.781C148.849 129.904 148.767 130.068 148.808 130.232C148.808 130.273 148.808 130.314 148.808 130.355C148.808 130.396 148.808 130.437 148.808 130.477C148.767 130.641 148.849 130.805 149.054 130.928L152.206 132.751C152.574 132.956 153.168 132.956 153.536 132.751L157.282 130.58C157.487 130.457 157.569 130.293 157.528 130.129C157.528 130.088 157.528 130.047 157.528 130.006C157.528 129.965 157.528 129.924 157.528 129.883C157.569 129.72 157.487 129.556 157.282 129.433H157.262ZM175.662 108.397C175.662 108.397 175.662 108.479 175.662 108.52C175.662 108.561 175.662 108.602 175.662 108.642C175.621 108.806 175.703 108.97 175.908 109.093L179.06 110.916C179.428 111.121 180.022 111.121 180.39 110.916L184.136 108.745C184.34 108.622 184.422 108.458 184.381 108.294C184.381 108.253 184.381 108.212 184.381 108.171C184.381 108.13 184.381 108.089 184.381 108.048C184.422 107.885 184.34 107.721 184.136 107.598L180.984 105.775C180.615 105.57 180.022 105.57 179.653 105.775L175.908 107.946C175.703 108.069 175.621 108.233 175.662 108.397ZM163.32 125.93L160.168 124.107C159.8 123.902 159.206 123.902 158.858 124.107L155.112 126.278C154.908 126.401 154.826 126.565 154.867 126.729C154.867 126.77 154.867 126.811 154.867 126.852C154.867 126.893 154.867 126.934 154.867 126.975C154.826 127.139 154.908 127.303 155.112 127.425L158.264 129.248C158.633 129.453 159.226 129.453 159.574 129.248L163.32 127.077C163.525 126.954 163.607 126.791 163.566 126.627C163.566 126.586 163.566 126.545 163.566 126.504C163.566 126.463 163.566 126.422 163.566 126.381C163.607 126.217 163.525 126.053 163.32 125.93ZM139.086 139.941L135.934 138.118C135.566 137.913 134.972 137.913 134.604 138.118L130.858 140.289C130.654 140.412 130.572 140.576 130.613 140.74C130.613 140.781 130.613 140.821 130.613 140.862C130.613 140.903 130.613 140.944 130.613 140.985C130.572 141.149 130.654 141.313 130.858 141.436L134.01 143.259C134.379 143.464 134.972 143.464 135.341 143.259L139.086 141.088C139.291 140.965 139.373 140.801 139.332 140.637C139.332 140.596 139.332 140.555 139.332 140.514C139.332 140.473 139.332 140.432 139.332 140.391C139.373 140.227 139.291 140.064 139.086 139.941ZM126.969 146.946L123.817 145.123C123.449 144.918 122.855 144.918 122.508 145.123L118.762 147.294C118.557 147.417 118.475 147.581 118.516 147.745C118.516 147.786 118.516 147.827 118.516 147.868C118.516 147.909 118.516 147.95 118.516 147.991C118.475 148.154 118.557 148.318 118.762 148.441L121.914 150.264C122.282 150.469 122.876 150.469 123.224 150.264L126.969 148.093C127.174 147.97 127.256 147.806 127.215 147.642C127.215 147.601 127.215 147.56 127.215 147.519C127.215 147.478 127.215 147.438 127.215 147.397C127.256 147.233 127.174 147.069 126.969 146.946ZM133.028 143.443L129.876 141.62C129.507 141.415 128.914 141.415 128.545 141.62L124.8 143.792C124.595 143.914 124.513 144.078 124.554 144.242C124.554 144.283 124.554 144.324 124.554 144.365C124.554 144.406 124.554 144.447 124.554 144.488C124.513 144.652 124.595 144.816 124.8 144.939L127.952 146.762C128.32 146.966 128.914 146.966 129.262 146.762L133.007 144.59C133.212 144.467 133.294 144.304 133.253 144.14C133.253 144.099 133.253 144.058 133.253 144.017C133.253 143.976 133.253 143.935 133.253 143.894C133.294 143.73 133.212 143.566 133.007 143.443H133.028Z" fill="#291B2A"/>
<path d="M103.78 148.216L100.034 150.387C99.6657 150.592 99.0721 150.592 98.7037 150.387L95.5517 148.564C95.1833 148.359 95.1833 148.011 95.5517 147.806L99.2973 145.635C99.6657 145.43 100.259 145.43 100.628 145.635L103.78 147.458C104.148 147.663 104.148 148.011 103.78 148.216ZM109.838 143.955L106.686 142.132C106.318 141.928 105.724 141.928 105.376 142.132L101.631 144.304C101.262 144.508 101.262 144.857 101.631 145.061L104.783 146.884C105.151 147.089 105.745 147.089 106.093 146.884L109.838 144.713C110.206 144.508 110.206 144.16 109.838 143.955ZM115.896 140.453L112.744 138.63C112.376 138.425 111.782 138.425 111.414 138.63L107.669 140.801C107.3 141.006 107.3 141.354 107.669 141.559L110.821 143.382C111.189 143.587 111.783 143.587 112.151 143.382L115.896 141.211C116.265 141.006 116.265 140.658 115.896 140.453ZM121.955 136.95L118.803 135.127C118.434 134.922 117.841 134.922 117.472 135.127L113.727 137.298C113.359 137.503 113.359 137.851 113.727 138.056L116.879 139.879C117.247 140.084 117.841 140.084 118.209 139.879L121.955 137.708C122.323 137.503 122.323 137.155 121.955 136.95ZM128.013 133.448L124.861 131.625C124.493 131.42 123.899 131.42 123.531 131.625L119.785 133.796C119.417 134.001 119.417 134.349 119.785 134.554L122.937 136.377C123.306 136.581 123.899 136.581 124.268 136.377L128.013 134.205C128.382 134.001 128.382 133.652 128.013 133.448ZM134.072 129.945L130.92 128.122C130.551 127.917 129.958 127.917 129.589 128.122L125.844 130.293C125.475 130.498 125.475 130.846 125.844 131.051L128.996 132.874C129.364 133.079 129.958 133.079 130.326 132.874L134.072 130.703C134.44 130.498 134.44 130.15 134.072 129.945ZM140.13 126.442L136.978 124.619C136.61 124.414 136.016 124.414 135.668 124.619L131.923 126.791C131.554 126.995 131.554 127.344 131.923 127.548L135.075 129.371C135.443 129.576 136.037 129.576 136.385 129.371L140.13 127.2C140.499 126.995 140.499 126.647 140.13 126.442ZM146.189 122.94L143.037 121.117C142.668 120.912 142.075 120.912 141.706 121.117L137.961 123.288C137.592 123.493 137.592 123.841 137.961 124.046L141.113 125.869C141.481 126.074 142.075 126.074 142.443 125.869L146.189 123.698C146.557 123.493 146.557 123.145 146.189 122.94ZM152.247 119.437L149.095 117.614C148.727 117.409 148.133 117.409 147.765 117.614L144.019 119.785C143.651 119.99 143.651 120.338 144.019 120.543L147.171 122.366C147.539 122.571 148.133 122.571 148.501 122.366L152.247 120.195C152.615 119.99 152.615 119.642 152.247 119.437ZM160.25 114.808L157.098 112.985C156.729 112.78 156.136 112.78 155.767 112.985L150.057 116.283C149.689 116.488 149.689 116.836 150.057 117.041L153.209 118.864C153.577 119.068 154.171 119.068 154.519 118.864L160.229 115.566C160.598 115.361 160.598 115.013 160.229 114.808H160.25ZM183.01 120.871L179.858 119.048C179.489 118.843 178.896 118.843 178.548 119.048L174.802 121.219C174.434 121.424 174.434 121.772 174.802 121.977L177.954 123.8C178.323 124.005 178.916 124.005 179.264 123.8L183.01 121.629C183.378 121.424 183.378 121.076 183.01 120.871ZM189.068 117.368L185.916 115.545C185.548 115.34 184.954 115.34 184.586 115.545L180.84 117.716C180.472 117.921 180.472 118.27 180.84 118.474L183.992 120.297C184.361 120.502 184.954 120.502 185.323 120.297L189.068 118.126C189.437 117.921 189.437 117.573 189.068 117.368ZM195.127 113.866L191.975 112.043C191.606 111.838 191.013 111.838 190.644 112.043L186.899 114.214C186.53 114.419 186.53 114.767 186.899 114.972L190.051 116.795C190.419 117 191.013 117 191.381 116.795L195.127 114.624C195.495 114.419 195.495 114.07 195.127 113.866ZM188.557 124.066L185.405 122.243C185.036 122.038 184.443 122.038 184.074 122.243L180.329 124.414C179.96 124.619 179.96 124.968 180.329 125.172L183.481 126.995C183.849 127.2 184.443 127.2 184.811 126.995L188.557 124.824C188.925 124.619 188.925 124.271 188.557 124.066ZM194.615 120.564L191.463 118.741C191.095 118.536 190.501 118.536 190.133 118.741L186.387 120.912C186.019 121.117 186.019 121.465 186.387 121.67L189.539 123.493C189.907 123.698 190.501 123.698 190.849 123.493L194.595 121.322C194.963 121.117 194.963 120.768 194.595 120.564H194.615ZM200.673 117.061L197.521 115.238C197.153 115.033 196.559 115.033 196.191 115.238L192.445 117.409C192.077 117.614 192.077 117.962 192.445 118.167L195.597 119.99C195.966 120.195 196.559 120.195 196.928 119.99L200.673 117.819C201.042 117.614 201.042 117.266 200.673 117.061ZM111.373 149.486L108.221 147.663C107.853 147.458 107.259 147.458 106.911 147.663L101.201 150.961C100.832 151.165 100.832 151.514 101.201 151.718L104.353 153.541C104.721 153.746 105.315 153.746 105.683 153.541L111.394 150.244C111.762 150.039 111.762 149.691 111.394 149.486H111.373ZM117.432 145.983L114.28 144.16C113.911 143.955 113.318 143.955 112.949 144.16L109.204 146.331C108.835 146.536 108.835 146.884 109.204 147.089L112.356 148.912C112.724 149.117 113.318 149.117 113.686 148.912L117.432 146.741C117.8 146.536 117.8 146.188 117.432 145.983ZM123.49 142.481L120.338 140.658C119.97 140.453 119.376 140.453 119.028 140.658L115.282 142.829C114.914 143.034 114.914 143.382 115.282 143.587L118.434 145.41C118.803 145.615 119.396 145.615 119.744 145.41L123.49 143.238C123.858 143.034 123.858 142.685 123.49 142.481ZM129.548 138.978L126.396 137.155C126.028 136.95 125.434 136.95 125.066 137.155L121.32 139.326C120.952 139.531 120.952 139.879 121.32 140.084L124.472 141.907C124.841 142.112 125.434 142.112 125.803 141.907L129.548 139.736C129.917 139.531 129.917 139.183 129.548 138.978ZM135.607 135.475L132.455 133.652C132.086 133.448 131.493 133.448 131.124 133.652L127.379 135.824C127.01 136.028 127.01 136.377 127.379 136.581L130.531 138.404C130.899 138.609 131.493 138.609 131.861 138.404L135.607 136.233C135.975 136.028 135.975 135.68 135.607 135.475ZM141.665 131.973L138.513 130.15C138.145 129.945 137.551 129.945 137.203 130.15L133.458 132.321C133.089 132.526 133.089 132.874 133.458 133.079L136.61 134.902C136.978 135.107 137.572 135.107 137.92 134.902L141.665 132.731C142.034 132.526 142.034 132.178 141.665 131.973ZM147.724 128.47L144.572 126.647C144.203 126.442 143.61 126.442 143.241 126.647L139.496 128.818C139.127 129.023 139.127 129.371 139.496 129.576L142.648 131.399C143.016 131.604 143.61 131.604 143.978 131.399L147.724 129.228C148.092 129.023 148.092 128.675 147.724 128.47ZM153.782 124.968L150.63 123.145C150.262 122.94 149.668 122.94 149.32 123.145L145.575 125.316C145.206 125.521 145.206 125.869 145.575 126.074L148.727 127.897C149.095 128.101 149.689 128.101 150.057 127.897L153.803 125.725C154.171 125.521 154.171 125.172 153.803 124.968H153.782ZM159.84 121.465L156.688 119.642C156.32 119.437 155.726 119.437 155.358 119.642L151.613 121.813C151.244 122.018 151.244 122.366 151.613 122.571L154.765 124.394C155.133 124.599 155.726 124.599 156.095 124.394L159.84 122.223C160.209 122.018 160.209 121.67 159.84 121.465ZM165.899 117.962L162.747 116.139C162.378 115.934 161.785 115.934 161.416 116.139L157.671 118.31C157.303 118.515 157.303 118.864 157.671 119.068L160.823 120.891C161.191 121.096 161.785 121.096 162.153 120.891L165.899 118.72C166.267 118.515 166.267 118.167 165.899 117.962ZM114.791 153.787L111.639 151.964C111.271 151.759 110.677 151.759 110.329 151.964L106.584 154.136C106.215 154.34 106.215 154.689 106.584 154.893L109.736 156.716C110.104 156.921 110.698 156.921 111.046 156.716L114.791 154.545C115.16 154.34 115.16 153.992 114.791 153.787ZM120.85 150.285L117.698 148.462C117.329 148.257 116.736 148.257 116.367 148.462L112.622 150.633C112.253 150.838 112.253 151.186 112.622 151.391L115.774 153.214C116.142 153.419 116.736 153.419 117.104 153.214L120.85 151.043C121.218 150.838 121.218 150.49 120.85 150.285ZM126.908 146.782L123.756 144.959C123.388 144.754 122.794 144.754 122.446 144.959L118.701 147.13C118.332 147.335 118.332 147.683 118.701 147.888L121.853 149.711C122.221 149.916 122.815 149.916 123.183 149.711L126.929 147.54C127.297 147.335 127.297 146.987 126.929 146.782H126.908ZM132.966 143.279L129.814 141.456C129.446 141.252 128.853 141.252 128.484 141.456L124.739 143.628C124.37 143.832 124.37 144.181 124.739 144.386L127.891 146.209C128.259 146.413 128.853 146.413 129.221 146.209L132.966 144.037C133.335 143.832 133.335 143.484 132.966 143.279ZM125.782 160.137L122.63 158.314C122.262 158.109 121.668 158.109 121.32 158.314L117.575 160.485C117.206 160.69 117.206 161.038 117.575 161.243L120.727 163.066C121.095 163.271 121.689 163.271 122.037 163.066L125.782 160.895C126.151 160.69 126.151 160.342 125.782 160.137ZM131.841 156.634L128.689 154.811C128.32 154.607 127.727 154.607 127.358 154.811L123.613 156.983C123.244 157.187 123.244 157.536 123.613 157.741L126.765 159.564C127.133 159.768 127.727 159.768 128.095 159.564L131.841 157.392C132.209 157.187 132.209 156.839 131.841 156.634ZM137.899 153.132L134.747 151.309C134.379 151.104 133.785 151.104 133.417 151.309L129.671 153.48C129.303 153.685 129.303 154.033 129.671 154.238L132.823 156.061C133.192 156.266 133.785 156.266 134.154 156.061L137.899 153.89C138.268 153.685 138.268 153.337 137.899 153.132ZM143.958 149.629L140.806 147.806C140.437 147.601 139.844 147.601 139.475 147.806L135.73 149.977C135.361 150.182 135.361 150.53 135.73 150.735L138.882 152.558C139.25 152.763 139.844 152.763 140.192 152.558L143.937 150.387C144.306 150.182 144.306 149.834 143.937 149.629H143.958ZM182.232 127.507L179.08 125.684C178.712 125.48 178.118 125.48 177.75 125.684L172.039 128.982C171.671 129.187 171.671 129.535 172.039 129.74L175.191 131.563C175.56 131.768 176.153 131.768 176.522 131.563L182.232 128.265C182.6 128.06 182.6 127.712 182.232 127.507ZM139.025 139.777L135.873 137.954C135.504 137.749 134.911 137.749 134.542 137.954L130.797 140.125C130.429 140.33 130.429 140.678 130.797 140.883L133.949 142.706C134.317 142.911 134.911 142.911 135.279 142.706L139.025 140.535C139.393 140.33 139.393 139.982 139.025 139.777ZM145.083 136.274L141.931 134.451C141.563 134.246 140.969 134.246 140.621 134.451L136.876 136.622C136.507 136.827 136.507 137.175 136.876 137.38L140.028 139.203C140.396 139.408 140.99 139.408 141.338 139.203L145.083 137.032C145.452 136.827 145.452 136.479 145.083 136.274ZM151.142 132.772L147.99 130.949C147.621 130.744 147.028 130.744 146.659 130.949L142.914 133.12C142.545 133.325 142.545 133.673 142.914 133.878L146.066 135.701C146.434 135.906 147.028 135.906 147.396 135.701L151.142 133.529C151.51 133.325 151.51 132.976 151.142 132.772ZM157.2 129.269L154.048 127.446C153.68 127.241 153.086 127.241 152.718 127.446L148.972 129.617C148.604 129.822 148.604 130.17 148.972 130.375L152.124 132.198C152.493 132.403 153.086 132.403 153.455 132.198L157.2 130.027C157.569 129.822 157.569 129.474 157.2 129.269ZM163.259 125.766L160.107 123.943C159.738 123.739 159.145 123.739 158.776 123.943L155.031 126.115C154.662 126.319 154.662 126.668 155.031 126.872L158.183 128.695C158.551 128.9 159.145 128.9 159.493 128.695L163.238 126.524C163.607 126.319 163.607 125.971 163.238 125.766H163.259ZM171.261 121.137L168.109 119.314C167.741 119.109 167.147 119.109 166.779 119.314L161.069 122.612C160.7 122.817 160.7 123.165 161.069 123.37L164.221 125.193C164.589 125.398 165.183 125.398 165.551 125.193L171.261 121.895C171.63 121.69 171.63 121.342 171.261 121.137ZM122.364 155.815L119.212 153.992C118.844 153.787 118.25 153.787 117.882 153.992L112.171 157.29C111.803 157.495 111.803 157.843 112.171 158.048L115.323 159.871C115.692 160.076 116.285 160.076 116.633 159.871L122.344 156.573C122.712 156.368 122.712 156.02 122.344 155.815H122.364ZM128.423 152.313L125.271 150.49C124.902 150.285 124.309 150.285 123.961 150.49L120.215 152.661C119.847 152.866 119.847 153.214 120.215 153.419L123.367 155.242C123.736 155.446 124.329 155.446 124.677 155.242L128.423 153.07C128.791 152.866 128.791 152.517 128.423 152.313ZM134.481 148.81L131.329 146.987C130.961 146.782 130.367 146.782 129.999 146.987L126.253 149.158C125.885 149.363 125.885 149.711 126.253 149.916L129.405 151.739C129.774 151.944 130.367 151.944 130.736 151.739L134.481 149.568C134.85 149.363 134.85 149.015 134.481 148.81ZM140.54 145.307L137.387 143.484C137.019 143.279 136.426 143.279 136.057 143.484L132.312 145.655C131.943 145.86 131.943 146.209 132.312 146.413L135.464 148.236C135.832 148.441 136.426 148.441 136.794 148.236L140.54 146.065C140.908 145.86 140.908 145.512 140.54 145.307ZM146.598 141.805L143.446 139.982C143.077 139.777 142.484 139.777 142.136 139.982L138.39 142.153C138.022 142.358 138.022 142.706 138.39 142.911L141.542 144.734C141.911 144.939 142.504 144.939 142.852 144.734L146.598 142.563C146.966 142.358 146.966 142.009 146.598 141.805ZM174.332 132.116L171.18 130.293C170.811 130.088 170.218 130.088 169.87 130.293L141.809 146.516C141.44 146.721 141.44 147.069 141.809 147.274L144.961 149.097C145.329 149.301 145.923 149.301 146.27 149.097L174.332 132.874C174.7 132.669 174.7 132.321 174.332 132.116ZM152.656 138.302L149.504 136.479C149.136 136.274 148.542 136.274 148.174 136.479L144.428 138.65C144.06 138.855 144.06 139.203 144.428 139.408L147.58 141.231C147.949 141.436 148.542 141.436 148.911 141.231L152.656 139.06C153.025 138.855 153.025 138.507 152.656 138.302ZM158.715 134.799L155.563 132.976C155.194 132.772 154.601 132.772 154.253 132.976L150.507 135.148C150.139 135.352 150.139 135.701 150.507 135.906L153.659 137.729C154.028 137.933 154.621 137.933 154.99 137.729L158.735 135.557C159.104 135.352 159.104 135.004 158.735 134.799H158.715ZM164.773 131.297L161.621 129.474C161.253 129.269 160.659 129.269 160.291 129.474L156.545 131.645C156.177 131.85 156.177 132.198 156.545 132.403L159.697 134.226C160.066 134.431 160.659 134.431 161.028 134.226L164.773 132.055C165.142 131.85 165.142 131.502 164.773 131.297ZM170.832 127.794L167.68 125.971C167.311 125.766 166.718 125.766 166.349 125.971L162.604 128.142C162.235 128.347 162.235 128.695 162.604 128.9L165.756 130.723C166.124 130.928 166.718 130.928 167.086 130.723L170.832 128.552C171.2 128.347 171.2 127.999 170.832 127.794ZM176.89 124.292L173.738 122.469C173.37 122.264 172.776 122.264 172.428 122.469L168.682 124.64C168.314 124.845 168.314 125.193 168.682 125.398L171.835 127.221C172.203 127.425 172.796 127.425 173.144 127.221L176.89 125.049C177.258 124.845 177.258 124.496 176.89 124.292ZM166.411 111.244L163.259 109.421C162.89 109.216 162.297 109.216 161.949 109.421L158.203 111.592C157.835 111.797 157.835 112.145 158.203 112.35L161.355 114.173C161.723 114.378 162.317 114.378 162.665 114.173L166.411 112.002C166.779 111.797 166.779 111.449 166.411 111.244ZM172.469 107.741L169.317 105.918C168.949 105.713 168.355 105.713 167.987 105.918L164.241 108.089C163.873 108.294 163.873 108.642 164.241 108.847L167.393 110.67C167.761 110.875 168.355 110.875 168.723 110.67L172.469 108.499C172.837 108.294 172.837 107.946 172.469 107.741ZM178.527 104.239L175.375 102.416C175.007 102.211 174.413 102.211 174.045 102.416L170.299 104.587C169.931 104.792 169.931 105.14 170.299 105.345L173.451 107.168C173.82 107.373 174.413 107.373 174.782 107.168L178.527 104.996C178.896 104.792 178.896 104.443 178.527 104.239ZM184.054 107.434L180.902 105.611C180.533 105.406 179.94 105.406 179.571 105.611L175.826 107.782C175.457 107.987 175.457 108.335 175.826 108.54L178.978 110.363C179.346 110.568 179.94 110.568 180.308 110.363L184.054 108.192C184.422 107.987 184.422 107.639 184.054 107.434Z" fill="#412B42"/>
<g style="mix-blend-mode:multiply" opacity="0.2">
<path d="M200.264 146.516L172.428 162.595C171.794 162.964 170.791 162.964 170.156 162.595L151.694 151.923C151.06 151.555 151.06 150.981 151.694 150.612L179.53 134.533C180.165 134.164 181.168 134.164 181.802 134.533L200.264 145.205C200.899 145.574 200.899 146.147 200.264 146.516Z" fill="#F3BEFB"/>
</g>
<g style="mix-blend-mode:multiply" opacity="0.6">
<path d="M151.715 150.961L179.551 134.881C180.185 134.513 181.188 134.513 181.823 134.881L200.285 145.553C200.53 145.696 200.673 145.86 200.735 146.045C200.817 145.758 200.673 145.451 200.285 145.225L181.823 134.554C181.188 134.185 180.185 134.185 179.551 134.554L151.715 150.633C151.326 150.858 151.183 151.165 151.265 151.452C151.326 151.268 151.469 151.104 151.715 150.961Z" fill="#CB89F0"/>
</g>
<g style="mix-blend-mode:multiply" opacity="0.6">
<path d="M170.156 100.019L91.2944 145.574L91.1716 145.655L93.8733 147.212L172.735 101.658L172.858 101.576L170.156 100.019ZM93.8733 147.007L91.5195 145.655L170.156 100.224L172.51 101.576L93.8733 147.007Z" fill="#CB89F0"/>
</g>
<path d="M179.039 111.817L174.884 109.421C174.434 109.154 173.697 109.154 173.247 109.421L163.729 114.91C163.484 115.054 163.381 115.258 163.402 115.443C163.402 115.484 163.402 115.525 163.402 115.566C163.402 115.607 163.402 115.648 163.402 115.689C163.361 115.873 163.463 116.078 163.729 116.221L172.019 121.014C172.469 121.28 173.206 121.28 173.656 121.014L189.437 111.899C189.682 111.756 189.785 111.551 189.764 111.367C189.764 111.326 189.764 111.285 189.764 111.244C189.764 111.203 189.764 111.162 189.764 111.121C189.805 110.936 189.703 110.732 189.437 110.588L186.346 108.806C186.039 108.642 185.548 108.622 185.261 108.806L179.96 111.817C179.694 111.961 179.285 111.961 179.039 111.817Z" fill="#291B2A"/>
<path d="M189.437 110.424L186.346 108.642C186.039 108.479 185.548 108.458 185.261 108.642L179.96 111.653C179.694 111.797 179.285 111.797 179.039 111.653L174.884 109.257C174.434 108.991 173.697 108.991 173.247 109.257L163.729 114.746C163.279 115.013 163.279 115.443 163.729 115.689L172.019 120.482C172.469 120.748 173.206 120.748 173.656 120.482L189.437 111.367C189.887 111.1 189.887 110.67 189.437 110.424Z" fill="#412B42"/>
<path d="M129.364 172.837L132.619 174.701C132.987 174.926 133.294 174.782 133.294 174.414C133.294 174.045 132.987 173.554 132.619 173.328L129.364 171.464C128.996 171.239 128.689 171.382 128.689 171.751C128.689 172.12 128.996 172.611 129.364 172.837Z" fill="#291B2A"/>
<mask id="mask0_100_808" style="mask-type:luminance" maskUnits="userSpaceOnUse" x="128" y="171" width="6" height="4">
<path d="M129.364 172.837L132.619 174.701C132.987 174.926 133.294 174.782 133.294 174.414C133.294 174.045 132.987 173.554 132.619 173.328L129.364 171.464C128.996 171.239 128.689 171.382 128.689 171.751C128.689 172.12 128.996 172.611 129.364 172.837Z" fill="white"/>
</mask>
<g mask="url(#mask0_100_808)">
<path d="M132.25 174.27L132.7 174.537L134.297 173.615L133.847 173.349L132.25 174.27ZM131.247 173.697L131.698 173.963L133.294 173.042L132.844 172.775L131.247 173.697ZM130.244 173.123L130.695 173.39L132.291 172.468L131.841 172.202L130.244 173.123ZM129.241 172.55L129.692 172.816L131.288 171.894L130.838 171.628L129.241 172.55Z" fill="#AD852C"/>
</g>
<g opacity="0.3">
<g style="mix-blend-mode:screen">
<path d="M169.133 84.2268L91.0897 129.023L82.4933 72.4695L160.536 27.6729L169.133 84.2268Z" fill="#7B38D4"/>
</g>
<path d="M84.2535 75.0093L85.6863 84.4315L161.212 41.0892L159.779 31.6465L84.2535 75.0093Z" fill="#8821D8"/>
<path d="M160.577 27.8366L82.5343 72.6332L82.0021 69.1306L160.045 24.334L160.577 27.8366Z" fill="#8821D8"/>
<path d="M154.846 30.274L152.861 31.4006L152.574 29.4342L154.539 28.3076L154.846 30.274Z" fill="#6811BC"/>
<path d="M157.282 28.8607L155.317 30.0077L155.01 28.0414L156.995 26.9148L157.282 28.8607Z" fill="#6811BC"/>
<path d="M155.379 28.1643L155.583 29.4957L156.934 28.7174L156.729 27.386L155.379 28.1643ZM156.668 28.6355L155.788 29.1475L155.645 28.2668L156.525 27.7547L156.668 28.6355Z" fill="#FFFFF7"/>
<path d="M159.738 27.4678L157.753 28.5944L157.466 26.628L159.431 25.5015L159.738 27.4678Z" fill="#6811BC"/>
<path d="M157.855 26.9352L158.469 27.1605L158.019 27.9799L158.203 28.0618L158.653 27.222L159.267 27.4473L159.411 27.181L158.797 26.9557L159.247 26.1364L159.063 26.0544L158.612 26.8943L157.998 26.6689L157.855 26.9352Z" fill="#FFFFF7"/>
<path d="M154.437 30.1511L153.189 30.8885L153.148 30.6427L154.417 29.9258L154.437 30.1511Z" fill="#FFFFF7"/>
<path d="M84.2535 75.0093L92.1131 126.75L144.817 96.4961L167.639 83.3664L159.8 31.667L84.274 75.0298L84.2535 75.0093Z" fill="#8821D8"/>
</g>
<g opacity="0.6">
<g style="mix-blend-mode:screen">
<path d="M180.431 82.7313L100.484 129.044L94.5488 70.38L174.516 24.0881L180.431 82.7313Z" fill="#7B38D4"/>
</g>
<path d="M96.1862 73.0224L97.1686 82.7929L174.557 37.9963L173.554 28.2053L96.1862 73.0224Z" fill="#8821D8"/>
<path d="M174.536 24.2725L94.5692 70.5644L94.2008 66.9388L174.168 20.6265L174.536 24.2725Z" fill="#8821D8"/>
<path d="M168.683 26.792L166.656 27.9595L166.452 25.9317L168.478 24.7437L168.683 26.792Z" fill="#6811BC"/>
<path d="M171.2 25.3171L169.174 26.5052L168.969 24.4773L170.995 23.2893L171.2 25.3171Z" fill="#6811BC"/>
<path d="M169.317 24.6001L169.46 25.993L170.852 25.1941L170.709 23.8013L169.317 24.6001ZM170.586 25.0917L169.685 25.6243L169.583 24.7025L170.484 24.17L170.586 25.0917Z" fill="#FFFFF7"/>
<path d="M173.718 23.8628L171.691 25.0508L171.487 23.023L173.513 21.835L173.718 23.8628Z" fill="#6811BC"/>
<path d="M171.855 23.3302L172.449 23.5555L171.978 24.4158L172.162 24.4773L172.653 23.617L173.247 23.8628L173.411 23.576L172.796 23.3507L173.288 22.4904L173.104 22.429L172.612 23.2688L172.019 23.0434L171.855 23.3302Z" fill="#FFFFF7"/>
<path d="M168.294 26.6689L167.004 27.4268L166.984 27.181L168.273 26.4231L168.294 26.6689Z" fill="#FFFFF7"/>
<path d="M96.1862 73.0224L101.61 126.668L155.542 95.431L178.978 81.8097L173.554 28.2053L96.1862 73.0019V73.0224Z" fill="#8821D8"/>
</g>
<path opacity="0.2" d="M193.366 80.806L109.142 129.474V67.5329L193.366 18.865V80.806Z" fill="#DE78FF"/>
<g style="mix-blend-mode:screen">
<path d="M193.366 80.806L109.142 129.474V67.5329L193.366 18.865V80.806Z" fill="#7B38D4"/>
</g>
<path opacity="0.8" d="M110.493 70.5031V126.955L191.995 79.8229V23.4124L110.493 70.5031Z" fill="#8821D8"/>
<path d="M193.366 19.0698L109.142 67.7378V63.8869L193.366 15.219V19.0698Z" fill="#8821D8"/>
<path d="M187.267 21.7123L185.138 22.9617V20.811L187.267 19.5615V21.7123Z" fill="#6811BC"/>
<path d="M189.928 20.1759L187.779 21.4253V19.2746L189.928 18.0251V20.1759Z" fill="#6811BC"/>
<path d="M188.127 19.4182V20.893L189.6 20.0532V18.5784L188.127 19.4182ZM189.334 19.9303L188.372 20.4833V19.5206L189.334 18.9675V19.9303Z" fill="#FFFFF7"/>
<path d="M192.589 18.6397L190.44 19.8892V17.7385L192.589 16.489V18.6397Z" fill="#6811BC"/>
<path d="M190.808 18.0662L191.381 18.312L190.808 19.2133L190.992 19.2952L191.565 18.394L192.138 18.6193L192.323 18.3325L191.75 18.0867L192.323 17.1854L192.138 17.1035L191.565 18.0253L190.992 17.7795L190.808 18.0662Z" fill="#FFFFF7"/>
<path d="M186.899 21.5893L185.527 22.3881V22.1219L186.899 21.3435V21.5893Z" fill="#FFFFF7"/>
<g style="mix-blend-mode:screen">
<path d="M186.633 45.9847V66.7956C188.454 65.7304 205.831 55.6937 219.831 47.6029V26.792L186.633 45.9847Z" fill="#F68AFF"/>
</g>
<path d="M186.633 45.9846V66.816L187.881 65.1159V46.5172L186.633 45.9846Z" fill="#C460EA"/>
<path opacity="0.7" d="M219.033 47.1113L187.881 65.116L186.633 66.8161L219.831 47.6234L219.033 47.1113Z" fill="#C460EA"/>
<path opacity="0.3" d="M219.033 28.7584V47.1113L219.831 47.6234V26.8125L219.033 28.7584Z" fill="#C460EA"/>
<path d="M219.074 47.0499L207.919 46.292L207.858 46.4149L219.012 47.1523L219.749 47.6439C219.811 47.521 219.053 47.0294 219.053 47.0294L219.074 47.0499Z" fill="#C460EA"/>
<path d="M201.062 50.2249L187.84 65.0751L186.653 66.6933V66.7957C186.653 66.7957 186.755 66.7343 186.796 66.7138L187.943 65.1571L201.206 50.2658L201.062 50.2249Z" fill="#C460EA"/>
<path d="M219.831 26.8125L218.951 28.7174L204.767 51.2284L187.922 46.4149L186.633 45.9847L187.82 46.5173L204.808 51.3718L219.094 28.7174L219.831 26.8125Z" fill="#C460EA"/>
<g style="mix-blend-mode:screen">
<path d="M190.44 91.5802V103.174C191.463 102.58 201.124 97.0082 208.922 92.5019V80.9084L190.44 91.5802Z" fill="#F68AFF"/>
</g>
<path d="M190.44 91.5801V103.174L191.135 102.231V91.8873L190.44 91.5801Z" fill="#C460EA"/>
<path opacity="0.7" d="M208.492 92.2151L191.135 102.231L190.44 103.174L208.922 92.5019L208.492 92.2151Z" fill="#C460EA"/>
<path opacity="0.3" d="M208.472 81.9941L208.492 92.2151L208.922 92.5019V80.9084L208.472 81.9941Z" fill="#C460EA"/>
<path d="M208.512 92.1741L202.311 91.7644C202.29 91.8463 208.492 92.256 208.492 92.256L208.901 92.5223L208.512 92.1741Z" fill="#C460EA"/>
<path d="M198.483 93.9355L191.115 102.19L190.44 103.092L191.156 102.231L198.545 93.9355H198.463H198.483Z" fill="#C460EA"/>
<path d="M208.922 80.9084L208.431 81.9736L200.53 94.5092L191.156 91.826L190.44 91.5802L191.095 91.8874L200.571 94.5707L208.512 81.9736L208.922 80.9084Z" fill="#C460EA"/>
<g style="mix-blend-mode:screen">
<path d="M134.686 45.7184V62.7194C136.18 61.8591 150.364 53.6659 161.805 47.0498V30.0488L134.686 45.7184Z" fill="#F68AFF"/>
</g>
<path d="M134.686 45.7185V62.7195L135.689 61.3267V46.1487L134.686 45.7185Z" fill="#C460EA"/>
<path opacity="0.7" d="M161.15 46.6196L135.689 61.3265L134.686 62.7194L161.805 47.0498L161.15 46.6196Z" fill="#C460EA"/>
<path opacity="0.3" d="M161.15 31.626V46.6197L161.805 47.0498V30.0283L161.15 31.626Z" fill="#C460EA"/>
<path d="M161.191 46.5786L152.083 45.9641L152.042 46.0665L161.15 46.681L161.764 47.0702L161.212 46.5786H161.191Z" fill="#C460EA"/>
<path d="M146.455 49.1594L135.648 61.2854L134.665 62.6168C134.665 62.6168 134.747 62.6578 134.788 62.6373L135.73 61.3674L146.577 49.2004H146.455V49.1594Z" fill="#C460EA"/>
<path d="M161.805 30.0283L161.069 31.585L149.484 49.9789L135.73 46.0666L134.686 45.7184L135.648 46.1486L149.525 50.1018L161.191 31.585L161.805 30.0283Z" fill="#C460EA"/>
<g style="mix-blend-mode:screen">
<path d="M91.3558 93.8537V114.337C93.157 113.292 110.247 103.419 124.043 95.4514V74.9683L91.3558 93.8537Z" fill="#F68AFF"/>
</g>
<path d="M91.3558 93.8538V114.357L92.5839 112.698V94.3863L91.3558 93.8538Z" fill="#C460EA"/>
<path opacity="0.7" d="M123.244 94.9597L92.5839 112.698L91.3558 114.357L124.043 95.4718L123.244 94.9597Z" fill="#C460EA"/>
<path opacity="0.3" d="M123.244 76.8937V94.9598L124.043 95.4719V74.9683L123.244 76.8937Z" fill="#C460EA"/>
<path d="M123.306 94.8983L112.315 94.1609L112.253 94.2838L123.244 95.0212L123.981 95.4923C124.043 95.3694 123.306 94.8983 123.306 94.8983Z" fill="#C460EA"/>
<path d="M105.56 98.0322L92.543 112.657L91.3763 114.255V114.357C91.3763 114.357 91.4582 114.296 91.5196 114.275L92.6658 112.739L105.724 98.0732L105.581 98.0322H105.56Z" fill="#C460EA"/>
<path d="M124.043 74.9683L123.163 76.8527L109.204 99.0155L92.6248 94.2839L91.3558 93.8537L92.5225 94.3863L109.245 99.1588L123.306 76.8527L124.043 74.9683Z" fill="#C460EA"/>
<g style="mix-blend-mode:screen">
<path d="M104.844 41.3145V54.1984C105.97 53.543 116.736 47.3366 125.414 42.3182V29.4343L104.844 41.3145Z" fill="#F68AFF"/>
</g>
<path d="M104.844 41.3145V54.2188L105.622 53.1537V41.6422L104.844 41.3145Z" fill="#C460EA"/>
<path opacity="0.7" d="M124.902 42.011L105.622 53.1538L104.844 54.2189L125.393 42.3387L124.902 42.011Z" fill="#C460EA"/>
<path opacity="0.3" d="M124.902 30.6428V42.011L125.393 42.3387V29.4343L124.902 30.6428Z" fill="#C460EA"/>
<path d="M124.943 41.9699L118.025 41.4988C117.984 41.5807 124.902 42.0313 124.902 42.0313L125.373 42.3386L124.943 41.9699Z" fill="#C460EA"/>
<path d="M113.768 43.9363L105.581 53.1332L104.844 54.1369C104.844 54.1369 104.905 54.1778 104.926 54.1369L105.642 53.1742L113.87 43.9568H113.788L113.768 43.9363Z" fill="#C460EA"/>
<path d="M125.393 29.4343L124.861 30.6223L116.06 44.5714L105.642 41.5808L104.844 41.3145L105.56 41.6423L116.101 44.6533L124.943 30.6223L125.393 29.4343Z" fill="#C460EA"/>
<path d="M135.709 92.9321V121.301C138.206 119.867 161.887 106.185 180.963 95.1443V66.7751L135.709 92.9321Z" fill="#F68AFF"/>
<path d="M135.709 92.9322L137.428 93.6491L160.495 93.2599L179.899 69.4585L180.984 66.7957L158.879 59.5447L135.709 92.9322Z" fill="#C460EA"/>
<path d="M135.709 92.9321V121.322L137.428 119.007V93.649L135.709 92.9321Z" fill="#C460EA"/>
<path opacity="0.7" d="M179.899 94.4685L137.428 119.007L135.709 121.322L180.984 95.1649L179.899 94.4685Z" fill="#C460EA"/>
<path opacity="0.3" d="M179.878 69.4585L179.899 94.4684L180.984 95.1648V66.7957L179.878 69.4585Z" fill="#C460EA"/>
<path d="M179.96 94.3866L160.659 93.0757L160.516 93.2396L179.878 94.5505L180.902 95.2059C180.902 95.2059 180.963 95.165 180.984 95.1445V95.0421L179.96 94.3661V94.3866Z" fill="#C460EA"/>
<path d="M137.347 118.946L135.709 121.158V121.301C135.709 121.301 135.832 121.219 135.914 121.178L137.49 119.048L160.495 93.2395H160.25L137.367 118.925L137.347 118.946Z" fill="#C460EA"/>
<mask id="mask1_100_808" style="mask-type:luminance" maskUnits="userSpaceOnUse" x="134" y="30" width="49" height="64">
<path d="M135.709 92.9321L137.428 93.649L160.495 93.2598L179.899 69.4584L180.984 66.7956L182.682 30.479L134.502 55.8986L135.709 92.9321Z" fill="white"/>
</mask>
<g mask="url(#mask1_100_808)">
<path d="M176.542 84.6568L140.662 105.386V65.3412L176.542 44.6123V84.6568Z" fill="#FFE1FF"/>
<path d="M159.697 60.712L165.162 57.5576V57.9672L159.697 61.1216V60.712ZM158.878 62.8217V63.2314L163.402 60.6096V60.1999L158.878 62.8217ZM158.449 63.4772V63.0675L153.025 66.2015V66.6111L158.449 63.4772ZM156.852 62.7603L159.267 61.3674V60.9578L156.852 62.3506V62.7603ZM156.422 63.0061V62.5964L153.414 64.3375V64.7472L156.422 63.0061ZM163.791 57.107L166.206 55.7141V55.3044L163.791 56.6973V57.107ZM165.571 57.3118V57.7214L170.606 54.8128V54.4032L165.571 57.3118ZM168.785 57.0865L163.811 59.9541V60.3638L168.785 57.4961V57.0865ZM152.595 66.8569V66.4473L144.858 70.9126V71.3222L152.595 66.8569ZM152.984 63.3543L158.408 60.2204V59.8107L152.984 62.9446V63.3543ZM158.838 59.9746L163.361 57.3528V56.9431L158.838 59.5649V59.9746ZM152.574 63.6001V63.1904L144.899 67.6353V68.045L152.574 63.6001ZM166.636 55.4683L170.074 53.4814V53.0718L166.636 55.0586V55.4683ZM152.984 64.5833L144.838 69.2944V69.7041L152.984 64.993V64.5833ZM158.878 65.4846V65.8942L163.402 63.2724V62.8627L158.878 65.4846ZM158.449 66.14V65.7304L153.025 68.8643V69.2739L158.449 66.14ZM158.49 67.3485V67.7582L161.498 66.0171V65.6075L158.49 67.3485ZM161.928 65.3617V65.7713L164.343 64.3785V63.9688L161.928 65.3617ZM162.092 66.9184V67.328L166.615 64.7062V64.2965L162.092 66.9184ZM156.668 71.6909V72.1006L159.677 70.3595V69.9499L156.668 71.6909ZM161.662 67.1642L156.238 70.2981V70.7078L161.662 67.5738V67.1642ZM162.522 68.3112L160.107 69.7041V70.1137L162.522 68.7209V68.3112ZM170.238 60.5686L164.773 63.723V64.1327L170.238 60.9783V60.5686ZM155.808 70.9536V70.5439L144.879 76.8527V77.2624L155.808 70.9536ZM150.712 72.2645V71.8548L144.899 75.214V75.6237L150.712 72.2645ZM168.805 59.7493L163.832 62.6169V63.0266L168.805 60.1589V59.7493ZM152.615 69.5197V69.1101L144.879 73.5754V73.9851L152.615 69.5197ZM162.952 68.0654V68.4751L168.416 65.3207V64.911L162.952 68.0654ZM167.045 64.0507V64.4604L169.46 63.0675V62.6579L167.045 64.0507ZM148.89 76.6069V76.1972L144.961 78.4709V78.8805L148.89 76.6069ZM156.259 71.9367L149.32 75.9514V76.3611L156.259 72.3464V71.9367ZM169.256 59.5035V59.9131L172.162 58.2335V57.8239L169.256 59.5035ZM158.08 68.004V67.5943L151.142 71.609V72.0187L158.08 68.004ZM169.89 62.4121V62.8217L171.384 61.9615V61.5518L169.89 62.4121ZM170.463 63.723L168.826 64.6652V65.0749L170.463 64.1327V63.723ZM156.668 74.1489V74.5586L159.677 72.8175V72.4079L156.668 74.1489ZM155.849 76.6683V76.2587L150.487 79.3516V79.7613L155.849 76.6683ZM162.522 70.7487L160.107 72.1416V72.5512L162.522 71.1584V70.7487ZM157.036 77.2009V77.6106L162.399 74.5176V74.108L157.036 77.2009ZM162.952 70.5029V70.9126L168.416 67.7582V67.3485L162.952 70.5029ZM167.086 70.1752L170.259 68.3522V67.9425L167.086 69.7655V70.1752ZM162.829 73.8622V74.2718L165.183 72.9199V72.5103L162.829 73.8622ZM148.89 79.0444V78.6347L144.961 80.9084V81.318L148.89 79.0444ZM156.259 74.3742L149.32 78.3889V78.7986L156.259 74.7839V74.3742ZM156.3 75.9924V76.4021L161.723 73.2681V72.8585L156.3 75.9924ZM166.677 69.9908L162.153 72.6127V73.0224L166.677 70.4005V69.9908ZM163.709 74.9887L160.7 76.7298V77.1395L163.709 75.3984V74.9887ZM170.484 66.14L168.846 67.0822V67.4919L170.484 66.5497V66.14ZM164.139 75.1526L166.881 73.5754V73.1657L164.139 74.7429V75.1526ZM165.612 72.6537L169.133 70.6258V70.2162L165.612 72.244V72.6537ZM160.27 76.9756L153.332 80.9903V81.4L160.27 77.3853V76.9756ZM151.101 82.2807L144.94 85.8448V86.2545L151.101 82.6904V82.2807ZM149.361 81.6458L144.961 84.1857V84.5953L149.361 82.0554V81.6458ZM152.922 81.6458V81.2361L151.531 82.0349V82.4446L152.922 81.6458ZM150.118 79.9866V79.577L144.981 82.547V82.9567L150.118 79.9866ZM156.648 77.8564V77.4467L149.811 81.4V81.8096L156.648 77.8564ZM159.759 82.7518L165.223 79.5974V80.0071L159.759 83.1615V82.7518ZM158.51 85.5375V85.1279L153.086 88.2618V88.6715L158.51 85.5375ZM156.914 84.8206L159.329 83.4278V83.0181L156.914 84.411V84.8206ZM156.484 85.0664V84.6568L153.475 86.3978V86.8075L156.484 85.0664ZM163.852 79.1673L166.267 77.7744V77.3648L163.852 78.7576V79.1673ZM165.633 79.3721V79.7818L170.668 76.8732V76.4635L165.633 79.3721ZM152.656 88.9377V88.5281L144.92 92.9934V93.4031L152.656 88.9377ZM153.045 85.4351L158.469 82.3012V81.8915L153.045 85.0255V85.4351ZM158.899 82.0554L163.422 79.4336V79.0239L158.899 81.6458V82.0554ZM152.636 85.6809V85.2713L144.961 89.7161V90.1258L152.636 85.6809ZM166.697 77.5491L170.136 75.5623V75.1526L166.697 77.1395V77.5491ZM153.045 86.6641L144.899 91.3752V91.7849L153.045 87.0738V86.6641ZM144.981 88.4462L147.519 86.9714V86.5617L144.981 88.0365V88.4462ZM167.475 75.0297V75.4394L170.484 73.6983V73.2886L167.475 75.0297ZM161.601 78.8396L167.066 75.6852V75.2755L161.601 78.4299V78.8396ZM158.756 80.4782L161.171 79.0854V78.6757L158.756 80.0685V80.4782ZM155.317 82.4651L158.326 80.724V80.3143L155.317 82.0554V82.4651ZM147.949 86.7256L154.887 82.7109V82.3012L147.949 86.3159V86.7256ZM162.133 85.558V85.9677L166.656 83.3458V82.9362L162.133 85.558ZM156.709 90.3306V90.7403L159.718 88.9992V88.5895L156.709 90.3306ZM161.703 85.8038L156.279 88.9377V89.3474L161.703 86.2135V85.8038ZM155.89 92.8705V92.4608L150.528 95.5538V95.9635L155.89 92.8705ZM162.563 86.9509L160.147 88.3437V88.7534L162.563 87.3605V86.9509ZM155.849 89.5932V89.1835L144.92 95.4923V95.902L155.849 89.5932ZM157.057 93.4031V93.8127L162.419 90.7198V90.3101L157.057 93.4031ZM162.972 86.7051V87.1147L168.437 83.9603V83.5507L162.972 86.7051ZM167.066 82.6904V83.1001L169.481 81.7072V81.2975L167.066 82.6904ZM167.106 86.3773L170.279 84.5544V84.1447L167.106 85.9677V86.3773ZM162.849 90.0643V90.474L165.203 89.1221V88.7124L162.849 90.0643ZM148.911 95.2466V94.8369L144.981 97.1105V97.5202L148.911 95.2466ZM156.279 90.5764L149.341 94.5911V95.0008L156.279 90.9861V90.5764ZM156.32 92.1946V92.6042L161.744 89.4703V89.0606L156.32 92.1946ZM166.697 86.193L162.174 88.8148V89.2245L166.697 86.6027V86.193ZM169.931 81.0313V81.4409L171.978 80.2529V79.8432L169.931 81.0313ZM170.504 82.3422L168.867 83.2844V83.6941L170.504 82.7518V82.3422ZM149.382 97.8274L144.981 100.367V100.777L149.382 98.2371V97.8274ZM150.118 96.1683V95.7586L144.981 98.7287V99.1383L150.118 96.1683ZM156.648 94.038V93.6284L149.811 97.5816V97.9913L156.648 94.038Z" fill="#AE52D8"/>
</g>
<path d="M175.601 41.8062C173.206 43.1785 171.282 46.5378 171.282 49.303C171.282 52.0682 173.226 53.1743 175.601 51.8019C177.995 50.4296 179.919 47.0703 179.919 44.3051C179.919 41.5399 177.975 40.4338 175.601 41.8062Z" fill="#FF3636"/>
<path d="M176.092 48.0126L175.703 48.2379C175.539 48.3404 175.396 48.2789 175.375 48.115L175.089 44.469C175.048 44.0594 175.396 43.5063 175.826 43.2401L175.969 43.1581C176.399 42.9123 176.747 43.0762 176.706 43.5268L176.419 47.5005C176.419 47.6849 176.256 47.8897 176.092 47.9921V48.0126ZM175.908 50.1429C176.317 49.9176 176.644 49.385 176.644 48.9753C176.644 48.5657 176.317 48.4223 175.908 48.6476C175.498 48.8729 175.171 49.4055 175.171 49.8151C175.171 50.2248 175.498 50.3682 175.908 50.1429Z" fill="#FFE1FF"/>
<path style="mix-blend-mode:screen" d="M248.014 38.6656C252.021 21.7935 241.602 4.86512 224.743 0.854963C207.884 -3.1552 190.968 7.27145 186.961 24.1435C182.954 41.0156 193.373 57.944 210.232 61.9542C227.091 65.9643 244.007 55.5377 248.014 38.6656Z" fill="url(#paint5_radial_100_808)"/>
<path style="mix-blend-mode:screen" d="M207.325 105.57C218.889 105.57 228.264 96.1883 228.264 84.6156C228.264 73.0429 218.889 63.6614 207.325 63.6614C195.761 63.6614 186.387 73.0429 186.387 84.6156C186.387 96.1883 195.761 105.57 207.325 105.57Z" fill="url(#paint6_radial_100_808)"/>
<path style="mix-blend-mode:screen" d="M159.411 55.9187C170.975 55.9187 180.349 46.5372 180.349 34.9645C180.349 23.3918 170.975 14.0103 159.411 14.0103C147.847 14.0103 138.472 23.3918 138.472 34.9645C138.472 46.5372 147.847 55.9187 159.411 55.9187Z" fill="url(#paint7_radial_100_808)"/>
<path style="mix-blend-mode:screen" d="M122.835 59.5852C136.807 59.5852 148.133 48.2504 148.133 34.2681C148.133 20.2858 136.807 8.95093 122.835 8.95093C108.863 8.95093 97.537 20.2858 97.537 34.2681C97.537 48.2504 108.863 59.5852 122.835 59.5852Z" fill="url(#paint8_radial_100_808)"/>
<path style="mix-blend-mode:screen" d="M154.029 86.2268C156.969 68.0008 144.588 50.8405 126.376 47.8983C108.164 44.9561 91.0165 57.3461 88.0765 75.5722C85.1365 93.7983 97.5172 110.959 115.729 113.901C133.942 116.843 151.089 104.453 154.029 86.2268Z" fill="url(#paint9_radial_100_808)"/>
<path style="mix-blend-mode:screen" d="M194.937 93.4345C207.327 81.0358 207.327 60.9335 194.937 48.5348C182.548 36.1361 162.461 36.1361 150.072 48.5348C137.682 60.9335 137.682 81.0358 150.072 93.4345C162.461 105.833 182.548 105.833 194.937 93.4345Z" fill="url(#paint10_radial_100_808)"/>
</g>
<defs>
<filter id="filter0_d_100_808" x="0" y="0" width="289" height="192" filterUnits="userSpaceOnUse" color-interpolation-filters="sRGB">
<feFlood flood-opacity="0" result="BackgroundImageFix"/>
<feColorMatrix in="SourceAlpha" type="matrix" values="0 0 0 0 0 0 0 0 0 0 0 0 0 0 0 0 0 0 127 0" result="hardAlpha"/>
<feOffset dy="4"/>
<feGaussianBlur stdDeviation="2"/>
<feComposite in2="hardAlpha" operator="out"/>
<feColorMatrix type="matrix" values="0 0 0 0 0 0 0 0 0 0 0 0 0 0 0 0 0 0 0.25 0"/>
<feBlend mode="normal" in2="BackgroundImageFix" result="effect1_dropShadow_100_808"/>
<feBlend mode="normal" in="SourceGraphic" in2="effect1_dropShadow_100_808" result="shape"/>
</filter>
<radialGradient id="paint0_radial_100_808" cx="0" cy="0" r="1" gradientUnits="userSpaceOnUse" gradientTransform="translate(211.905 133.103) rotate(-30.0188) scale(61.1156 53.1641)">
<stop stop-color="#FFEC3D"/>
<stop offset="0.22" stop-color="#E53DFF"/>
<stop offset="0.24" stop-color="#CC36E3"/>
<stop offset="0.29" stop-color="#A12BB4"/>
<stop offset="0.35" stop-color="#7B2089"/>
<stop offset="0.41" stop-color="#591764"/>
<stop offset="0.47" stop-color="#3D1044"/>
<stop offset="0.54" stop-color="#270A2B"/>
<stop offset="0.61" stop-color="#150518"/>
<stop offset="0.7" stop-color="#09020A"/>
<stop offset="0.8" stop-color="#020002"/>
<stop offset="1"/>
</radialGradient>
<linearGradient id="paint1_linear_100_808" x1="69.7625" y1="47.5003" x2="152.124" y2="47.5003" gradientUnits="userSpaceOnUse">
<stop stop-color="#8B3DCE"/>
<stop offset="1" stop-color="#CB89F0"/>
</linearGradient>
<linearGradient id="paint2_linear_100_808" x1="68.4321" y1="72.5717" x2="70.356" y2="72.5717" gradientUnits="userSpaceOnUse">
<stop stop-color="#8B3DCE"/>
<stop offset="1" stop-color="#CB89F0"/>
</linearGradient>
<linearGradient id="paint3_linear_100_808" x1="145.186" y1="157.986" x2="150.917" y2="157.986" gradientUnits="userSpaceOnUse">
<stop stop-color="#8B3DCE"/>
<stop offset="1" stop-color="#CB89F0"/>
</linearGradient>
<linearGradient id="paint4_linear_100_808" x1="88.3676" y1="139.756" x2="216.413" y2="139.756" gradientUnits="userSpaceOnUse">
<stop stop-color="#F5ABFF"/>
<stop offset="0.46" stop-color="#FFC5FF"/>
<stop offset="1" stop-color="#FFDEFF"/>
</linearGradient>
<radialGradient id="paint5_radial_100_808" cx="0" cy="0" r="1" gradientUnits="userSpaceOnUse" gradientTransform="translate(217.501 31.4163) scale(31.3769 31.4006)">
<stop stop-color="#FF3DD5"/>
<stop offset="0.04" stop-color="#DB34B7"/>
<stop offset="0.1" stop-color="#AD2991"/>
<stop offset="0.16" stop-color="#841F6E"/>
<stop offset="0.23" stop-color="#601750"/>
<stop offset="0.31" stop-color="#420F37"/>
<stop offset="0.39" stop-color="#290A23"/>
<stop offset="0.48" stop-color="#170513"/>
<stop offset="0.59" stop-color="#090208"/>
<stop offset="0.73" stop-color="#020001"/>
<stop offset="1"/>
</radialGradient>
<radialGradient id="paint6_radial_100_808" cx="0" cy="0" r="1" gradientUnits="userSpaceOnUse" gradientTransform="translate(207.325 84.6156) scale(20.9384 20.9542)">
<stop stop-color="#FF3DD5"/>
<stop offset="0.04" stop-color="#DB34B7"/>
<stop offset="0.1" stop-color="#AD2991"/>
<stop offset="0.16" stop-color="#841F6E"/>
<stop offset="0.23" stop-color="#601750"/>
<stop offset="0.31" stop-color="#420F37"/>
<stop offset="0.39" stop-color="#290A23"/>
<stop offset="0.48" stop-color="#170513"/>
<stop offset="0.59" stop-color="#090208"/>
<stop offset="0.73" stop-color="#020001"/>
<stop offset="1"/>
</radialGradient>
<radialGradient id="paint7_radial_100_808" cx="0" cy="0" r="1" gradientUnits="userSpaceOnUse" gradientTransform="translate(159.411 34.9645) scale(20.9384 20.9542)">
<stop stop-color="#FF3DD5"/>
<stop offset="0.04" stop-color="#DB34B7"/>
<stop offset="0.1" stop-color="#AD2991"/>
<stop offset="0.16" stop-color="#841F6E"/>
<stop offset="0.23" stop-color="#601750"/>
<stop offset="0.31" stop-color="#420F37"/>
<stop offset="0.39" stop-color="#290A23"/>
<stop offset="0.48" stop-color="#170513"/>
<stop offset="0.59" stop-color="#090208"/>
<stop offset="0.73" stop-color="#020001"/>
<stop offset="1"/>
</radialGradient>
<radialGradient id="paint8_radial_100_808" cx="0" cy="0" r="1" gradientUnits="userSpaceOnUse" gradientTransform="translate(122.835 34.2681) scale(25.298 25.3172)">
<stop stop-color="#FF3DD5"/>
<stop offset="0.04" stop-color="#DB34B7"/>
<stop offset="0.1" stop-color="#AD2991"/>
<stop offset="0.16" stop-color="#841F6E"/>
<stop offset="0.23" stop-color="#601750"/>
<stop offset="0.31" stop-color="#420F37"/>
<stop offset="0.39" stop-color="#290A23"/>
<stop offset="0.48" stop-color="#170513"/>
<stop offset="0.59" stop-color="#090208"/>
<stop offset="0.73" stop-color="#020001"/>
<stop offset="1"/>
</radialGradient>
<radialGradient id="paint9_radial_100_808" cx="0" cy="0" r="1" gradientUnits="userSpaceOnUse" gradientTransform="translate(121.06 80.9031) scale(33.4032 33.4285)">
<stop stop-color="#FF3DD5"/>
<stop offset="0.04" stop-color="#DB34B7"/>
<stop offset="0.1" stop-color="#AD2991"/>
<stop offset="0.16" stop-color="#841F6E"/>
<stop offset="0.23" stop-color="#601750"/>
<stop offset="0.31" stop-color="#420F37"/>
<stop offset="0.39" stop-color="#290A23"/>
<stop offset="0.48" stop-color="#170513"/>
<stop offset="0.59" stop-color="#090208"/>
<stop offset="0.73" stop-color="#020001"/>
<stop offset="1"/>
</radialGradient>
<radialGradient id="paint10_radial_100_808" cx="0" cy="0" r="1" gradientUnits="userSpaceOnUse" gradientTransform="translate(172.508 70.9738) scale(31.7248 31.7489)">
<stop stop-color="#FFEC3D"/>
<stop offset="0.22" stop-color="#E53DFF"/>
<stop offset="0.24" stop-color="#CC36E3"/>
<stop offset="0.29" stop-color="#A12BB4"/>
<stop offset="0.35" stop-color="#7B2089"/>
<stop offset="0.41" stop-color="#591764"/>
<stop offset="0.47" stop-color="#3D1044"/>
<stop offset="0.54" stop-color="#270A2B"/>
<stop offset="0.61" stop-color="#150518"/>
<stop offset="0.7" stop-color="#09020A"/>
<stop offset="0.8" stop-color="#020002"/>
<stop offset="1"/>
</radialGradient>
<clipPath id="clip0_100_808">
<rect width="281" height="184" fill="white" transform="translate(4)"/>
</clipPath>
</defs>
</svg>
