<svg width="274" height="230" viewBox="0 0 274 230" fill="none" xmlns="http://www.w3.org/2000/svg">
<g style="mix-blend-mode:multiply" opacity="0.7">
<path d="M184.617 187.826L141.686 190.555L117.068 211.512L185.259 214.265L184.617 187.826Z" fill="#52017B"/>
</g>
<g style="mix-blend-mode:multiply" opacity="0.7">
<path d="M121.588 144.845L0 214.906L20.6927 226.843L105.224 229.976L104.581 203.537L121.588 144.845Z" fill="#52017B"/>
</g>
<path d="M170.751 70.2034L142.803 87.6949L171.868 166.632L170.751 70.2034Z" fill="#A839DA"/>
<path d="M117.068 121.183L114.523 107.916L84.6974 119.165L79.2031 215.001L105.247 230L117.068 121.183Z" fill="#962DCC"/>
<path d="M84.6974 119.165L79.5123 215.167L97.779 208.237L104.415 117.694L84.6974 119.165Z" fill="#A839DA"/>
<path d="M101.799 129.015L104.867 229.786L105.247 230L105.866 131.791L101.799 129.015Z" fill="#BB3FF1"/>
<path d="M187.923 80.1003L102.679 129.537L105.247 230L192.609 179.33L187.923 80.1003Z" fill="url(#paint0_linear_100_4)"/>
<path d="M84.6974 119.165L79.2031 215.001L79.5123 215.167L85.4585 119.616L85.6726 119.165H84.6974Z" fill="#BB3FF1"/>
<path d="M169.942 69.7288L84.6974 119.165L85.4585 119.616L104.415 117.694L101.799 129.015L102.679 129.537L153.174 100.226L187.923 80.1002L187.019 79.5781L169.49 80.3138L170.751 70.2034L169.942 69.7288Z" fill="url(#paint1_linear_100_4)"/>
<path d="M105.152 117.053L86.1007 118.999L170.18 70.251L168.848 80.9073L186.591 80.219L102.346 129.062L105.152 117.053Z" fill="#962DCC"/>
<g style="mix-blend-mode:screen" opacity="0.5">
<path d="M97.779 208.237L79.5123 215.167L104.867 229.786L97.779 208.237Z" fill="#A839DA"/>
</g>
<path d="M168.848 80.9073L170.227 89.6886L186.591 80.219L168.848 80.9073Z" fill="#A839DA"/>
<path d="M102.346 129.062L104.177 127.994L105.152 117.053L102.346 129.062Z" fill="#A839DA"/>
<path opacity="0.6" d="M159.358 107.821C159.191 107.322 158.668 107.061 158.168 107.251C157.669 107.441 157.407 108.011 157.574 108.533C157.621 108.699 162.925 127.733 151.485 136.586C150.201 137.582 148.892 138.223 147.632 138.484C137.951 140.596 134.812 122.488 134.788 122.322C134.693 121.8 134.193 121.467 133.694 121.61C133.194 121.728 132.861 122.274 132.957 122.796C133.076 123.485 136.049 140.573 145.681 140.644C146.395 140.644 147.132 140.573 147.917 140.407C149.439 140.074 150.985 139.315 152.508 138.152C165.114 128.421 159.381 108.011 159.334 107.821H159.358Z" fill="#962DCC"/>
<path d="M159.952 107.227C160.261 108.129 159.833 109.269 159.025 109.767C158.216 110.289 157.288 109.981 156.979 109.079C156.67 108.177 157.098 107.038 157.907 106.539C158.715 106.017 159.643 106.326 159.952 107.227Z" fill="#A839DA"/>
<path d="M135.525 121.301C135.835 122.203 135.406 123.342 134.598 123.841C133.789 124.363 132.861 124.054 132.552 123.153C132.243 122.251 132.671 121.112 133.48 120.613C134.289 120.115 135.216 120.4 135.525 121.301Z" fill="#A839DA"/>
<path d="M159.358 107.797C159.167 107.299 158.597 107.061 158.121 107.251C157.621 107.441 157.384 107.987 157.574 108.485C157.645 108.652 163.948 125.028 152.674 133.643C151.39 134.616 150.105 135.257 148.845 135.518C139.045 137.63 134.978 122.132 134.955 121.99C134.836 121.491 134.312 121.159 133.789 121.301C133.29 121.42 132.98 121.942 133.099 122.464C133.266 123.129 137.095 137.63 146.966 137.63C147.703 137.63 148.464 137.559 149.249 137.393C150.795 137.06 152.341 136.325 153.84 135.162C166.255 125.692 159.429 107.987 159.358 107.797Z" fill="#FFC5FF"/>
<path style="mix-blend-mode:screen" d="M102.679 129.537C102.679 129.537 107.983 126.404 115.927 121.681C123.895 117.006 134.526 110.787 145.158 104.569C155.838 98.4223 166.517 92.2991 174.532 87.6711C182.572 83.1143 187.923 80.0764 187.923 80.0764C187.923 80.0764 182.619 83.2092 174.675 87.9322C166.707 92.6076 156.075 98.8258 145.444 105.044C134.764 111.191 124.085 117.314 116.069 121.942C108.03 126.499 102.679 129.537 102.679 129.537Z" fill="url(#paint2_radial_100_4)"/>
<g style="mix-blend-mode:multiply" opacity="0.3">
<path d="M171.845 191.362L176.958 135.162L137.714 157.756L136.334 211.963L171.845 191.362Z" fill="#A839DA"/>
</g>
<path d="M207.736 105.637L185.854 119.355L208.616 181.228L207.736 105.637Z" fill="#A839DA"/>
<path d="M194.511 128.991L192.537 118.572L169.157 127.401L164.852 202.517L185.259 214.265L194.511 128.991Z" fill="#962DCC"/>
<path d="M169.157 127.401L165.09 202.635L179.408 197.2L184.617 126.261L169.157 127.401Z" fill="#A839DA"/>
<path d="M182.548 135.114L184.974 214.099L185.259 214.265L185.759 137.297L182.548 135.114Z" fill="#BB3FF1"/>
<path d="M221.198 113.398L201.908 124.648L183.237 135.517L185.259 214.265L224.885 191.172L221.198 113.398Z" fill="url(#paint3_linear_100_4)"/>
<path d="M169.157 127.401L164.852 202.517L165.09 202.635L169.775 127.757L169.942 127.401H169.157Z" fill="#BB3FF1"/>
<path d="M207.117 105.281L169.157 127.401L169.775 127.757L184.617 126.262L182.548 135.114L183.238 135.518L221.198 113.398L220.484 112.995L206.761 113.564L207.736 105.637L207.117 105.281Z" fill="url(#paint4_linear_100_4)"/>
<path d="M185.188 125.74L170.251 127.282L207.284 105.685L206.237 114.039L220.151 113.493L183 135.162L185.188 125.74Z" fill="#962DCC"/>
<g style="mix-blend-mode:screen" opacity="0.5">
<path d="M179.408 197.2L165.09 202.635L184.974 214.099L179.408 197.2Z" fill="#A839DA"/>
</g>
<path d="M206.237 114.039L207.331 120.921L220.151 113.493L206.237 114.039Z" fill="#A839DA"/>
<path d="M183 135.162L184.427 134.331L185.188 125.74L183 135.162Z" fill="#A839DA"/>
<path opacity="0.6" d="M213.753 126.143C213.611 125.716 213.159 125.502 212.754 125.668C212.326 125.834 212.112 126.309 212.231 126.736C212.279 126.879 216.703 142.59 206.808 150.042C205.69 150.873 204.572 151.419 203.502 151.656C195.201 153.484 193.37 138.128 193.346 137.986C193.275 137.535 192.847 137.274 192.418 137.392C191.99 137.511 191.705 137.962 191.776 138.389C191.871 138.959 193.584 153.484 201.813 153.484C202.432 153.484 203.074 153.413 203.74 153.27C205.048 152.985 206.38 152.345 207.712 151.348C218.582 143.136 213.801 126.285 213.753 126.143Z" fill="#962DCC"/>
<path d="M214.277 125.645C214.538 126.38 214.181 127.353 213.492 127.781C212.802 128.208 212.041 127.947 211.779 127.211C211.518 126.475 211.874 125.502 212.564 125.075C213.254 124.648 214.015 124.909 214.277 125.645Z" fill="#A839DA"/>
<path d="M193.845 137.416C194.107 138.152 193.75 139.125 193.061 139.552C192.371 139.979 191.61 139.718 191.348 138.983C191.086 138.247 191.443 137.274 192.133 136.847C192.823 136.419 193.584 136.681 193.845 137.416Z" fill="#A839DA"/>
<path d="M213.777 126.143C213.611 125.739 213.135 125.526 212.754 125.692C212.35 125.858 212.136 126.309 212.302 126.712C212.35 126.855 217.63 140.549 208.211 147.74C207.141 148.547 206.071 149.069 205.001 149.307C196.795 151.087 193.417 138.128 193.37 137.986C193.251 137.559 192.823 137.298 192.395 137.416C191.966 137.535 191.705 137.962 191.824 138.389C191.967 138.935 195.154 151.087 203.407 151.087C204.025 151.087 204.644 151.015 205.31 150.873C206.618 150.588 207.902 149.971 209.163 149.022C219.533 141.095 213.825 126.285 213.777 126.143Z" fill="#FFC5FF"/>
<path style="mix-blend-mode:screen" d="M221.198 113.398C221.198 113.398 218.867 114.822 215.347 116.982C211.803 119.094 207.094 121.894 202.36 124.695C197.603 127.424 192.823 130.154 189.255 132.195C185.664 134.188 183.261 135.517 183.261 135.517C183.261 135.517 185.592 134.093 189.112 131.934C192.656 129.821 197.366 127.021 202.099 124.22C206.856 121.491 211.636 118.762 215.204 116.721C218.796 114.727 221.198 113.398 221.198 113.398Z" fill="url(#paint5_radial_100_4)"/>
<path style="mix-blend-mode:screen" d="M270.85 115.398C283.98 66.5017 254.9 16.2421 205.897 3.14031C156.895 -9.96149 106.527 19.0559 93.3965 67.9525C80.2663 116.849 109.347 167.109 158.349 180.21C207.351 193.312 257.72 164.295 270.85 115.398Z" fill="url(#paint6_radial_100_4)"/>
<path style="mix-blend-mode:screen" d="M253.667 136.039C259.826 107.516 241.647 79.4114 213.062 73.2654C184.478 67.1193 156.312 85.2593 150.153 113.782C143.994 142.305 162.173 170.41 190.757 176.556C219.342 182.702 247.507 164.562 253.667 136.039Z" fill="url(#paint7_radial_100_4)"/>
<path style="mix-blend-mode:screen" d="M266.664 148.817C271.193 119.992 251.447 92.9605 222.559 88.4414C193.671 83.9223 166.582 103.626 162.053 132.452C157.524 161.277 177.271 188.308 206.158 192.827C235.046 197.346 262.136 177.642 266.664 148.817Z" fill="url(#paint8_radial_100_4)"/>
<path style="mix-blend-mode:screen" d="M209.833 141.731C217.401 113.548 200.639 84.5789 172.395 77.0272C144.151 69.4755 115.119 86.2007 107.551 114.384C99.9832 142.567 116.745 171.536 144.989 179.088C173.233 186.64 202.265 169.914 209.833 141.731Z" fill="url(#paint9_radial_100_4)"/>
<defs>
<linearGradient id="paint0_linear_100_4" x1="102.679" y1="155.05" x2="192.609" y2="155.05" gradientUnits="userSpaceOnUse">
<stop stop-color="#D271F0"/>
<stop offset="1" stop-color="#DA7CF4"/>
</linearGradient>
<linearGradient id="paint1_linear_100_4" x1="84.6974" y1="99.6328" x2="187.923" y2="99.6328" gradientUnits="userSpaceOnUse">
<stop stop-color="#FF98FF"/>
<stop offset="1" stop-color="#FFAFF5"/>
</linearGradient>
<radialGradient id="paint2_radial_100_4" cx="0" cy="0" r="1" gradientUnits="userSpaceOnUse" gradientTransform="translate(145.301 104.807) scale(66.2405 66.0974)">
<stop stop-color="#FFEC3D"/>
<stop offset="0.22" stop-color="#E53DFF"/>
<stop offset="0.26" stop-color="#C735DD"/>
<stop offset="0.34" stop-color="#9928AA"/>
<stop offset="0.42" stop-color="#701D7C"/>
<stop offset="0.51" stop-color="#4D1456"/>
<stop offset="0.59" stop-color="#310D37"/>
<stop offset="0.68" stop-color="#1B071E"/>
<stop offset="0.78" stop-color="#0C030D"/>
<stop offset="0.88" stop-color="#020003"/>
<stop offset="1"/>
</radialGradient>
<linearGradient id="paint3_linear_100_4" x1="183.237" y1="163.831" x2="224.885" y2="163.831" gradientUnits="userSpaceOnUse">
<stop stop-color="#D271F0"/>
<stop offset="1" stop-color="#DA7CF4"/>
</linearGradient>
<linearGradient id="paint4_linear_100_4" x1="169.157" y1="120.399" x2="221.198" y2="120.399" gradientUnits="userSpaceOnUse">
<stop stop-color="#FF98FF"/>
<stop offset="1" stop-color="#FFAFF5"/>
</linearGradient>
<radialGradient id="paint5_radial_100_4" cx="0" cy="0" r="1" gradientUnits="userSpaceOnUse" gradientTransform="translate(202.218 124.458) scale(28.9698 28.9072)">
<stop stop-color="#FFEC3D"/>
<stop offset="0.22" stop-color="#E53DFF"/>
<stop offset="0.26" stop-color="#C735DD"/>
<stop offset="0.34" stop-color="#9928AA"/>
<stop offset="0.42" stop-color="#701D7C"/>
<stop offset="0.51" stop-color="#4D1456"/>
<stop offset="0.59" stop-color="#310D37"/>
<stop offset="0.68" stop-color="#1B071E"/>
<stop offset="0.78" stop-color="#0C030D"/>
<stop offset="0.88" stop-color="#020003"/>
<stop offset="1"/>
</radialGradient>
<radialGradient id="paint6_radial_100_4" cx="0" cy="0" r="1" gradientUnits="userSpaceOnUse" gradientTransform="translate(182.117 91.6885) scale(91.8804 91.682)">
<stop stop-color="#FF3DD5"/>
<stop offset="0.04" stop-color="#DB34B7"/>
<stop offset="0.1" stop-color="#AD2991"/>
<stop offset="0.16" stop-color="#841F6E"/>
<stop offset="0.23" stop-color="#601750"/>
<stop offset="0.31" stop-color="#420F37"/>
<stop offset="0.39" stop-color="#290A23"/>
<stop offset="0.48" stop-color="#170513"/>
<stop offset="0.59" stop-color="#090208"/>
<stop offset="0.73" stop-color="#020001"/>
<stop offset="1"/>
</radialGradient>
<radialGradient id="paint7_radial_100_4" cx="0" cy="0" r="1" gradientUnits="userSpaceOnUse" gradientTransform="translate(201.891 124.901) scale(52.9448 52.8305)">
<stop stop-color="#FF3DD5"/>
<stop offset="0.04" stop-color="#DB34B7"/>
<stop offset="0.1" stop-color="#AD2991"/>
<stop offset="0.16" stop-color="#841F6E"/>
<stop offset="0.23" stop-color="#601750"/>
<stop offset="0.31" stop-color="#420F37"/>
<stop offset="0.39" stop-color="#290A23"/>
<stop offset="0.48" stop-color="#170513"/>
<stop offset="0.59" stop-color="#090208"/>
<stop offset="0.73" stop-color="#020001"/>
<stop offset="1"/>
</radialGradient>
<radialGradient id="paint8_radial_100_4" cx="0" cy="0" r="1" gradientUnits="userSpaceOnUse" gradientTransform="translate(214.358 140.647) scale(52.9448 52.8305)">
<stop stop-color="#FF3DD5"/>
<stop offset="0.04" stop-color="#DB34B7"/>
<stop offset="0.1" stop-color="#AD2991"/>
<stop offset="0.16" stop-color="#841F6E"/>
<stop offset="0.23" stop-color="#601750"/>
<stop offset="0.31" stop-color="#420F37"/>
<stop offset="0.39" stop-color="#290A23"/>
<stop offset="0.48" stop-color="#170513"/>
<stop offset="0.59" stop-color="#090208"/>
<stop offset="0.73" stop-color="#020001"/>
<stop offset="1"/>
</radialGradient>
<radialGradient id="paint9_radial_100_4" cx="0" cy="0" r="1" gradientUnits="userSpaceOnUse" gradientTransform="translate(158.696 128.042) scale(52.9448 52.8305)">
<stop stop-color="#FF3DD5"/>
<stop offset="0.04" stop-color="#DB34B7"/>
<stop offset="0.1" stop-color="#AD2991"/>
<stop offset="0.16" stop-color="#841F6E"/>
<stop offset="0.23" stop-color="#601750"/>
<stop offset="0.31" stop-color="#420F37"/>
<stop offset="0.39" stop-color="#290A23"/>
<stop offset="0.48" stop-color="#170513"/>
<stop offset="0.59" stop-color="#090208"/>
<stop offset="0.73" stop-color="#020001"/>
<stop offset="1"/>
</radialGradient>
</defs>
</svg>
