<svg width="308" height="308" viewBox="0 0 308 308" fill="none" xmlns="http://www.w3.org/2000/svg">
<rect width="308" height="308" fill="#1E1E1E"/>
<g clip-path="url(#clip0_0_1)">
<rect width="1440" height="1024" transform="translate(-1001 -253)" fill="black"/>
<g filter="url(#filter0_d_0_1)">
<rect x="4" width="300" height="300" rx="20" fill="url(#paint0_linear_0_1)"/>
</g>
<g clip-path="url(#clip1_0_1)">
<g style="mix-blend-mode:multiply" opacity="0.6">
<path d="M196.786 104.116L181.633 112.883C181.294 113.073 180.807 113.158 180.341 113.073C179.005 112.82 177.819 112.376 176.844 111.827C175.721 111.172 174.852 110.369 174.322 109.461C173.877 108.679 173.114 107.961 172.012 107.348C167.837 104.94 160.779 105.236 157.304 108.193C155.206 110.01 155.206 112.439 157.304 114.256C157.685 114.573 158.088 114.869 158.554 115.122C159.614 115.735 160.864 116.178 162.199 116.432C163.768 116.749 165.188 117.256 166.332 117.911C167.307 118.481 168.07 119.136 168.515 119.918C168.642 120.192 168.515 120.467 168.176 120.678L154.146 128.811L140.879 121.185C139.862 120.594 138.272 120.467 137.086 120.932C135.221 121.65 133.843 122.727 133.101 123.995C132.465 125.072 131.215 126.086 129.35 126.804C126.214 128.008 121.996 128.008 118.838 126.804C118.287 126.593 117.8 126.361 117.355 126.107C113.625 123.952 113.604 120.467 117.312 118.312C118.393 117.699 119.622 117.256 120.979 116.981C123.162 116.559 125.027 115.756 126.235 114.7C126.998 114.003 126.786 113.094 125.747 112.503L111.272 104.18L153.87 79.506L196.744 104.18L196.786 104.116ZM129.774 153.717C128.714 153.104 127.464 152.661 126.15 152.407C124.582 152.09 123.141 151.605 122.017 150.95C121.572 150.696 121.17 150.422 120.83 150.105C120.046 149.408 120.258 148.499 121.276 147.908L134.436 140.282L119.686 131.79C119.347 131.6 118.86 131.515 118.414 131.6C115.532 132.149 113.413 133.564 112.396 135.233C111.76 136.31 110.509 137.324 108.644 138.043C105.508 139.247 101.269 139.247 98.1327 138.043C97.5817 137.831 97.0942 137.599 96.6492 137.345C92.9192 135.191 92.898 131.705 96.6068 129.55C97.6664 128.938 98.9168 128.494 100.273 128.22C103.198 127.649 105.593 126.424 106.525 124.755C106.673 124.502 106.525 124.227 106.186 124.016L91.584 115.608L49.0071 140.282L91.8807 164.955L106.271 156.632C107.267 156.062 108.878 155.914 110.064 156.379C110.594 156.59 111.103 156.822 111.548 157.076C112.671 157.71 113.519 158.512 114.049 159.4C114.494 160.181 115.257 160.921 116.338 161.533C120.513 163.941 127.591 163.667 131.067 160.667C133.186 158.871 133.165 156.421 131.067 154.604C130.685 154.287 130.283 153.992 129.816 153.738L129.774 153.717ZM218.297 116.474L203.907 124.797C202.89 125.389 201.301 125.516 200.093 125.072C199.563 124.861 199.054 124.628 198.609 124.375C197.486 123.741 196.638 122.917 196.108 122.03C195.642 121.248 194.879 120.53 193.798 119.896C189.623 117.488 182.566 117.784 179.111 120.763C176.992 122.558 176.992 125.009 179.111 126.825C179.493 127.142 179.896 127.438 180.362 127.691C181.421 128.304 182.693 128.748 184.007 129.001C185.575 129.297 186.974 129.804 188.097 130.438C188.542 130.691 188.966 130.987 189.305 131.283C190.111 131.98 189.92 132.888 188.881 133.48L175.699 141.106L189.835 149.239C190.174 149.429 190.683 149.513 191.128 149.429C194.01 148.88 196.129 147.464 197.126 145.795C197.783 144.697 199.054 143.704 200.898 142.986C204.035 141.782 208.252 141.782 211.41 142.986C211.94 143.197 212.427 143.429 212.872 143.683C216.623 145.838 216.666 149.344 212.957 151.499C211.876 152.112 210.626 152.555 209.29 152.809C206.366 153.379 203.971 154.625 203.038 156.273C202.911 156.548 203.038 156.822 203.378 157.034L218.594 165.8L261.192 141.127L218.34 116.453L218.297 116.474ZM184.283 168.948C183.265 168.378 183.053 167.448 183.816 166.751C185.046 165.674 186.889 164.892 189.051 164.448C190.407 164.174 191.679 163.751 192.739 163.118C196.447 160.963 196.426 157.477 192.675 155.323C192.23 155.069 191.743 154.837 191.192 154.604C188.055 153.379 183.837 153.379 180.701 154.583C178.836 155.323 177.564 156.315 176.95 157.414C176.187 158.66 174.83 159.759 172.987 160.456C171.779 160.921 170.189 160.794 169.172 160.202L155.905 152.576L141.875 160.709C141.557 160.899 141.388 161.174 141.536 161.449C141.981 162.209 142.744 162.885 143.719 163.456C144.863 164.11 146.305 164.617 147.873 164.934C149.187 165.188 150.437 165.631 151.497 166.244C151.942 166.497 152.366 166.793 152.747 167.11C154.867 168.927 154.867 171.377 152.747 173.173C149.293 176.151 142.214 176.426 138.039 174.018C136.98 173.405 136.195 172.666 135.729 171.905C135.199 171.018 134.33 170.194 133.228 169.561C132.232 168.99 131.046 168.547 129.71 168.293C129.265 168.209 128.757 168.293 128.418 168.504L113.286 177.271L156.138 201.945L198.715 177.271L184.24 168.948H184.283Z" fill="#3A0155"/>
</g>
<path d="M181.633 86.2659C181.294 86.456 180.807 86.5405 180.341 86.456C179.005 86.2025 177.819 85.7589 176.844 85.2097C175.721 84.5548 174.852 83.7521 174.322 82.8437C173.877 82.0621 173.114 81.3438 172.012 80.7312C167.837 78.323 160.779 78.6188 157.304 81.5762C156.265 82.4846 155.735 83.5408 155.735 84.597V86.963C155.735 85.9068 156.265 84.8505 157.304 83.9422C160.779 80.9847 167.837 80.689 172.012 83.0972C173.093 83.7098 173.856 84.4492 174.322 85.2097C174.852 86.118 175.721 86.9208 176.844 87.5756C177.819 88.146 179.005 88.5896 180.341 88.822C180.786 88.9065 181.294 88.822 181.633 88.6319L196.786 79.8651V77.4991L181.655 86.2659H181.633Z" fill="url(#paint1_linear_0_1)"/>
<path d="M125.79 85.8223L111.315 77.4991V79.8651L125.79 88.1882C126.404 88.5474 126.722 89.0121 126.722 89.4768V87.1109C126.722 86.6461 126.404 86.1814 125.79 85.8223Z" fill="#962DCC"/>
<path d="M140.921 94.5256C139.904 93.9341 138.315 93.8074 137.128 94.2721C135.263 94.9904 133.885 96.0677 133.144 97.3352C132.508 98.4126 131.257 99.4266 129.392 100.145C126.256 101.349 122.038 101.349 118.881 100.145C118.33 99.9335 117.842 99.7012 117.397 99.4477C115.511 98.3703 114.578 96.955 114.578 95.5396V97.9056C114.578 99.3209 115.511 100.736 117.376 101.814C117.821 102.067 118.308 102.3 118.859 102.511C122.017 103.715 126.235 103.736 129.371 102.511C131.236 101.793 132.487 100.8 133.122 99.7012C133.864 98.4337 135.242 97.3563 137.107 96.6381C138.294 96.1945 139.883 96.3001 140.9 96.8916L154.167 104.518V102.152L140.9 94.5256H140.921Z" fill="#962DCC"/>
<path d="M168.218 94.0398L154.188 102.173V104.539L168.218 96.4057C168.472 96.2579 168.6 96.0677 168.6 95.8776V93.5117C168.6 93.7018 168.472 93.913 168.218 94.0609V94.0398Z" fill="#DA73ED"/>
<path d="M153.913 52.8044L111.315 77.478L125.79 85.8011C126.807 86.3926 127.019 87.301 126.277 87.9981C125.069 89.0544 123.204 89.8571 121.021 90.2796C119.686 90.5331 118.436 90.9767 117.355 91.6104C113.646 93.7652 113.646 97.2507 117.397 99.4054C117.842 99.6589 118.33 99.8913 118.881 100.103C122.038 101.307 126.256 101.328 129.392 100.103C131.257 99.3843 132.508 98.3915 133.144 97.293C133.885 96.0255 135.263 94.9481 137.128 94.2299C138.315 93.7863 139.904 93.8919 140.921 94.4834L154.188 102.109L168.218 93.9764C168.557 93.7863 168.684 93.4905 168.557 93.2159C168.112 92.4554 167.349 91.7794 166.374 91.2091C165.23 90.5542 163.81 90.0472 162.242 89.7303C160.907 89.4557 159.656 89.0332 158.597 88.4206C158.151 88.1671 157.728 87.8714 157.346 87.5545C155.227 85.7378 155.248 83.3084 157.346 81.4917C160.822 78.5343 167.879 78.2385 172.054 80.6467C173.135 81.2593 173.898 81.9987 174.364 82.7592C174.894 83.6676 175.763 84.4703 176.886 85.1252C177.861 85.6955 179.048 86.1391 180.383 86.3715C180.828 86.456 181.337 86.3715 181.676 86.1814L196.829 77.4147L153.955 52.741L153.913 52.8044Z" fill="#FFBBFA"/>
<path d="M106.504 98.1168C105.571 99.7857 103.177 101.011 100.252 101.581C98.9168 101.835 97.6452 102.3 96.5856 102.912C94.7418 103.989 93.8093 105.384 93.8093 106.778V109.144C93.8093 107.75 94.7418 106.334 96.5856 105.278C97.6452 104.665 98.8956 104.222 100.252 103.947C103.177 103.377 105.571 102.152 106.504 100.483C106.546 100.419 106.567 100.356 106.567 100.272V97.9056C106.567 97.9056 106.567 98.0323 106.525 98.1168H106.504Z" fill="#DA73ED"/>
<path d="M121.254 121.27C120.661 121.629 120.322 122.093 120.322 122.558V124.924C120.322 124.459 120.64 123.995 121.233 123.657L134.394 116.031V113.665L121.233 121.291L121.254 121.27Z" fill="#DA73ED"/>
<path d="M48.9647 113.665V116.031L91.8171 140.704L91.8383 138.317L48.9647 113.665Z" fill="#962DCC"/>
<path d="M131.024 134.029C127.549 137.007 120.47 137.303 116.295 134.895C115.235 134.282 114.473 133.543 114.006 132.761C113.476 131.874 112.608 131.071 111.505 130.438C111.06 130.184 110.552 129.931 110.022 129.741C108.835 129.297 107.224 129.424 106.228 129.994L91.8383 138.317V140.683L106.207 132.36C107.203 131.79 108.814 131.642 110.001 132.106C110.531 132.318 111.039 132.55 111.484 132.804C112.608 133.437 113.455 134.24 113.985 135.127C114.43 135.909 115.193 136.648 116.274 137.261C120.449 139.669 127.527 139.395 131.003 136.395C132.042 135.508 132.571 134.451 132.571 133.395V131.029C132.571 132.085 132.042 133.142 131.003 134.029H131.024Z" fill="url(#paint2_linear_0_1)"/>
<path d="M129.753 127.1C128.693 126.487 127.443 126.044 126.129 125.79C124.56 125.473 123.119 124.987 121.996 124.333C121.551 124.079 121.148 123.805 120.809 123.488C120.025 122.791 120.237 121.882 121.254 121.291L134.415 113.665L119.665 105.173C119.326 104.982 118.838 104.898 118.393 104.982C115.511 105.532 113.392 106.947 112.374 108.616C111.739 109.693 110.488 110.707 108.623 111.425C105.487 112.63 101.248 112.63 98.1114 111.425C97.5603 111.214 97.0729 110.982 96.6279 110.728C92.8979 108.574 92.8767 105.088 96.5855 102.933C97.6451 102.321 98.8955 101.877 100.252 101.602C103.177 101.032 105.571 99.8069 106.504 98.138C106.652 97.8845 106.504 97.6099 106.165 97.3987L91.5627 88.991L48.9858 113.665L91.8594 138.338L106.25 130.015C107.246 129.445 108.856 129.297 110.043 129.762C110.573 129.973 111.082 130.205 111.527 130.459C112.65 131.093 113.498 131.895 114.027 132.782C114.472 133.564 115.235 134.303 116.316 134.916C120.491 137.324 127.57 137.05 131.045 134.05C133.165 132.254 133.144 129.804 131.045 127.987C130.664 127.67 130.261 127.375 129.795 127.121L129.753 127.1Z" fill="#FFBBFA"/>
<path d="M189.284 104.708C188.924 104.391 188.521 104.116 188.076 103.863C186.953 103.229 185.554 102.722 183.986 102.426C182.672 102.173 181.4 101.729 180.341 101.117C179.896 100.863 179.472 100.567 179.09 100.251C178.031 99.3421 177.501 98.2859 177.501 97.2086V99.5745C177.501 100.631 178.009 101.708 179.069 102.616C179.451 102.933 179.853 103.229 180.319 103.483C181.379 104.095 182.651 104.539 183.965 104.792C185.533 105.088 186.932 105.595 188.055 106.229C188.5 106.482 188.924 106.778 189.263 107.074C189.602 107.37 189.75 107.686 189.75 108.024V105.658C189.75 105.342 189.602 105.004 189.263 104.708H189.284Z" fill="#D68900"/>
<path d="M212.83 117.108C212.385 116.854 211.897 116.622 211.367 116.411C208.21 115.207 203.992 115.186 200.856 116.411C198.991 117.15 197.74 118.122 197.083 119.22C196.108 120.91 193.968 122.305 191.086 122.854C190.64 122.938 190.132 122.854 189.793 122.664L175.657 114.531V116.897L189.772 125.03C190.111 125.22 190.619 125.304 191.064 125.22C193.947 124.671 196.066 123.255 197.062 121.586C197.719 120.488 198.991 119.495 200.834 118.777C203.971 117.573 208.188 117.573 211.346 118.777C211.876 118.988 212.363 119.22 212.808 119.474C214.695 120.572 215.648 121.988 215.648 123.424V121.058C215.648 119.622 214.716 118.206 212.808 117.108H212.83Z" fill="#D68900"/>
<path d="M203.314 130.438C203.06 130.29 202.932 130.1 202.932 129.888V132.254C202.932 132.466 203.06 132.656 203.314 132.804L218.531 141.57V139.204L203.314 130.438Z" fill="#D68900"/>
<path d="M218.531 139.204V141.57L261.129 116.897L261.15 114.531L218.531 139.204Z" fill="#E5A300"/>
<path d="M218.276 89.8571L203.886 98.1803C202.869 98.7717 201.279 98.8985 200.071 98.4549C199.541 98.2436 199.033 98.0113 198.588 97.7578C197.465 97.124 196.617 96.3002 196.087 95.4129C195.621 94.6313 194.858 93.9131 193.777 93.2793C189.602 90.8711 182.545 91.1669 179.09 94.1454C176.971 95.941 176.971 98.3915 179.09 100.208C179.472 100.525 179.874 100.821 180.341 101.074C181.4 101.687 182.672 102.131 183.986 102.384C185.554 102.68 186.953 103.187 188.076 103.821C188.521 104.074 188.945 104.37 189.284 104.666C190.089 105.363 189.899 106.271 188.86 106.862L175.678 114.489L189.814 122.622C190.153 122.812 190.662 122.896 191.107 122.812C193.989 122.262 196.108 120.847 197.104 119.178C197.761 118.08 199.033 117.087 200.877 116.369C204.013 115.164 208.231 115.164 211.388 116.369C211.918 116.58 212.406 116.812 212.851 117.066C216.602 119.22 216.644 122.727 212.935 124.882C211.855 125.494 210.604 125.938 209.269 126.192C206.344 126.762 203.95 128.008 203.017 129.656C202.89 129.931 203.017 130.205 203.356 130.417L218.573 139.183L261.171 114.51L218.319 89.836L218.276 89.8571Z" fill="#FFD03B"/>
<path d="M192.717 136.522C191.637 137.134 190.386 137.578 189.03 137.852C186.868 138.275 185.024 139.078 183.795 140.155C183.477 140.43 183.329 140.746 183.329 141.063V143.429C183.329 143.112 183.477 142.796 183.795 142.521C185.024 141.444 186.868 140.662 189.03 140.218C190.386 139.944 191.658 139.521 192.717 138.887C194.561 137.831 195.472 136.437 195.494 135.022V132.656C195.494 134.05 194.582 135.444 192.739 136.522H192.717Z" fill="#DA73ED"/>
<path d="M152.726 140.514C152.345 140.197 151.942 139.901 151.476 139.648C150.416 139.035 149.166 138.613 147.852 138.338C146.262 138.021 144.821 137.514 143.698 136.86C142.723 136.289 141.96 135.613 141.515 134.853C141.473 134.789 141.451 134.726 141.451 134.641V137.007C141.451 137.007 141.451 137.134 141.494 137.219C141.939 137.979 142.702 138.655 143.677 139.225C144.821 139.88 146.262 140.387 147.83 140.704C149.144 140.958 150.395 141.401 151.454 142.014C151.9 142.267 152.323 142.563 152.684 142.88C153.743 143.788 154.273 144.866 154.273 145.943V143.577C154.273 142.5 153.743 141.422 152.684 140.514H152.726Z" fill="#962DCC"/>
<path d="M113.286 150.675V153.041L156.159 177.715V175.349L113.286 150.675Z" fill="#962DCC"/>
<path d="M156.159 175.349V177.715L198.736 153.041V150.675L156.159 175.349Z" fill="#DA73ED"/>
<path d="M184.261 142.331C183.244 141.76 183.032 140.831 183.795 140.134C185.024 139.057 186.868 138.275 189.03 137.831C190.386 137.557 191.658 137.134 192.717 136.5C196.426 134.346 196.405 130.86 192.654 128.705C192.209 128.452 191.721 128.22 191.17 127.987C188.034 126.762 183.816 126.762 180.68 127.966C178.815 128.705 177.543 129.698 176.929 130.797C176.166 132.043 174.809 133.142 172.965 133.839C171.757 134.303 170.168 134.177 169.151 133.585L155.884 125.959L141.854 134.092C141.536 134.282 141.367 134.557 141.515 134.832C141.96 135.592 142.723 136.268 143.698 136.838C144.842 137.493 146.283 138 147.852 138.317C149.166 138.571 150.416 139.014 151.476 139.627C151.921 139.88 152.345 140.176 152.726 140.493C154.845 142.31 154.845 144.76 152.726 146.556C149.272 149.534 142.193 149.809 138.018 147.401C136.958 146.788 136.174 146.049 135.708 145.288C135.178 144.401 134.309 143.577 133.207 142.943C132.211 142.373 131.024 141.929 129.689 141.676C129.244 141.591 128.735 141.676 128.396 141.887L113.265 150.654L156.117 175.328L198.694 150.654L184.219 142.331H184.261Z" fill="#FFBBFA"/>
<path style="mix-blend-mode:screen" d="M237.459 81.7307C248.5 35.9596 220.225 -10.067 174.306 -21.0726C128.387 -32.0782 82.2111 -3.89514 71.1699 41.876C60.1287 87.6472 88.403 133.674 134.322 144.679C180.242 155.685 226.417 127.502 237.459 81.7307Z" fill="url(#paint3_radial_0_1)"/>
<path style="mix-blend-mode:screen" d="M173.62 145.279C183.979 99.3495 155.022 53.746 108.944 43.4207C62.8662 33.0953 17.1151 61.9581 6.75626 107.887C-3.60254 153.817 25.3537 199.42 71.4318 209.746C117.51 220.071 163.261 191.208 173.62 145.279Z" fill="url(#paint4_radial_0_1)"/>
<path style="mix-blend-mode:screen" d="M168.6 238.596C215.828 238.596 254.114 200.434 254.114 153.358C254.114 106.282 215.828 68.1198 168.6 68.1198C121.372 68.1198 83.0856 106.282 83.0856 153.358C83.0856 200.434 121.372 238.596 168.6 238.596Z" fill="url(#paint5_radial_0_1)"/>
<path style="mix-blend-mode:screen" d="M306.532 174.366C339.928 141.079 339.928 87.109 306.532 53.8214C273.137 20.5339 218.993 20.5339 185.597 53.8214C152.202 87.109 152.202 141.079 185.597 174.366C218.993 207.654 273.137 207.654 306.532 174.366Z" fill="url(#paint6_radial_0_1)"/>
<path d="M106.085 245.168C104.965 245.168 103.957 244.976 103.061 244.592C102.165 244.192 101.461 243.632 100.949 242.912C100.437 242.192 100.181 241.352 100.181 240.392H103.109C103.173 241.112 103.453 241.704 103.949 242.168C104.461 242.632 105.173 242.864 106.085 242.864C107.029 242.864 107.765 242.64 108.293 242.192C108.821 241.728 109.085 241.136 109.085 240.416C109.085 239.856 108.917 239.4 108.581 239.048C108.261 238.696 107.853 238.424 107.357 238.232C106.877 238.04 106.205 237.832 105.341 237.608C104.253 237.32 103.365 237.032 102.677 236.744C102.005 236.44 101.429 235.976 100.949 235.352C100.469 234.728 100.229 233.896 100.229 232.856C100.229 231.896 100.469 231.056 100.949 230.336C101.429 229.616 102.101 229.064 102.965 228.68C103.829 228.296 104.829 228.104 105.965 228.104C107.581 228.104 108.901 228.512 109.925 229.328C110.965 230.128 111.541 231.232 111.653 232.64H108.629C108.581 232.032 108.293 231.512 107.765 231.08C107.237 230.648 106.541 230.432 105.677 230.432C104.893 230.432 104.253 230.632 103.757 231.032C103.261 231.432 103.013 232.008 103.013 232.76C103.013 233.272 103.165 233.696 103.469 234.032C103.789 234.352 104.189 234.608 104.669 234.8C105.149 234.992 105.805 235.2 106.637 235.424C107.741 235.728 108.637 236.032 109.325 236.336C110.029 236.64 110.621 237.112 111.101 237.752C111.597 238.376 111.845 239.216 111.845 240.272C111.845 241.12 111.613 241.92 111.149 242.672C110.701 243.424 110.037 244.032 109.157 244.496C108.293 244.944 107.269 245.168 106.085 245.168ZM116.465 230.024C115.969 230.024 115.553 229.856 115.217 229.52C114.881 229.184 114.713 228.768 114.713 228.272C114.713 227.776 114.881 227.36 115.217 227.024C115.553 226.688 115.969 226.52 116.465 226.52C116.945 226.52 117.353 226.688 117.689 227.024C118.025 227.36 118.193 227.776 118.193 228.272C118.193 228.768 118.025 229.184 117.689 229.52C117.353 229.856 116.945 230.024 116.465 230.024ZM117.809 231.776V245H115.073V231.776H117.809ZM124.594 234.008V241.328C124.594 241.824 124.706 242.184 124.93 242.408C125.17 242.616 125.57 242.72 126.13 242.72H127.81V245H125.65C124.418 245 123.474 244.712 122.818 244.136C122.162 243.56 121.834 242.624 121.834 241.328V234.008H120.274V231.776H121.834V228.488H124.594V231.776H127.81V234.008H124.594ZM142.451 238.064C142.451 238.56 142.419 239.008 142.355 239.408H132.251C132.331 240.464 132.723 241.312 133.427 241.952C134.131 242.592 134.995 242.912 136.019 242.912C137.491 242.912 138.531 242.296 139.139 241.064H142.091C141.691 242.28 140.963 243.28 139.907 244.064C138.867 244.832 137.571 245.216 136.019 245.216C134.755 245.216 133.619 244.936 132.611 244.376C131.619 243.8 130.835 243 130.259 241.976C129.699 240.936 129.419 239.736 129.419 238.376C129.419 237.016 129.691 235.824 130.235 234.8C130.795 233.76 131.571 232.96 132.563 232.4C133.571 231.84 134.723 231.56 136.019 231.56C137.267 231.56 138.379 231.832 139.355 232.376C140.331 232.92 141.091 233.688 141.635 234.68C142.179 235.656 142.451 236.784 142.451 238.064ZM139.595 237.2C139.579 236.192 139.219 235.384 138.515 234.776C137.811 234.168 136.939 233.864 135.899 233.864C134.955 233.864 134.147 234.168 133.475 234.776C132.803 235.368 132.403 236.176 132.275 237.2H139.595ZM150.466 238.376C150.466 237.016 150.738 235.824 151.282 234.8C151.842 233.76 152.61 232.96 153.586 232.4C154.562 231.84 155.682 231.56 156.946 231.56C158.546 231.56 159.866 231.944 160.906 232.712C161.962 233.464 162.674 234.544 163.042 235.952H160.09C159.85 235.296 159.466 234.784 158.938 234.416C158.41 234.048 157.746 233.864 156.946 233.864C155.826 233.864 154.93 234.264 154.258 235.064C153.602 235.848 153.274 236.952 153.274 238.376C153.274 239.8 153.602 240.912 154.258 241.712C154.93 242.512 155.826 242.912 156.946 242.912C158.53 242.912 159.578 242.216 160.09 240.824H163.042C162.658 242.168 161.938 243.24 160.882 244.04C159.826 244.824 158.514 245.216 156.946 245.216C155.682 245.216 154.562 244.936 153.586 244.376C152.61 243.8 151.842 243 151.282 241.976C150.738 240.936 150.466 239.736 150.466 238.376ZM171.505 245.216C170.257 245.216 169.129 244.936 168.121 244.376C167.113 243.8 166.321 243 165.745 241.976C165.169 240.936 164.881 239.736 164.881 238.376C164.881 237.032 165.177 235.84 165.769 234.8C166.361 233.76 167.169 232.96 168.193 232.4C169.217 231.84 170.361 231.56 171.625 231.56C172.889 231.56 174.033 231.84 175.057 232.4C176.081 232.96 176.889 233.76 177.481 234.8C178.073 235.84 178.369 237.032 178.369 238.376C178.369 239.72 178.065 240.912 177.457 241.952C176.849 242.992 176.017 243.8 174.961 244.376C173.921 244.936 172.769 245.216 171.505 245.216ZM171.505 242.84C172.209 242.84 172.865 242.672 173.473 242.336C174.097 242 174.601 241.496 174.985 240.824C175.369 240.152 175.561 239.336 175.561 238.376C175.561 237.416 175.377 236.608 175.009 235.952C174.641 235.28 174.153 234.776 173.545 234.44C172.937 234.104 172.281 233.936 171.577 233.936C170.873 233.936 170.217 234.104 169.609 234.44C169.017 234.776 168.545 235.28 168.193 235.952C167.841 236.608 167.665 237.416 167.665 238.376C167.665 239.8 168.025 240.904 168.745 241.688C169.481 242.456 170.401 242.84 171.505 242.84ZM197.081 231.56C198.121 231.56 199.049 231.776 199.865 232.208C200.697 232.64 201.345 233.28 201.809 234.128C202.289 234.976 202.529 236 202.529 237.2V245H199.817V237.608C199.817 236.424 199.521 235.52 198.929 234.896C198.337 234.256 197.529 233.936 196.505 233.936C195.481 233.936 194.665 234.256 194.057 234.896C193.465 235.52 193.169 236.424 193.169 237.608V245H190.457V237.608C190.457 236.424 190.161 235.52 189.569 234.896C188.977 234.256 188.169 233.936 187.145 233.936C186.121 233.936 185.305 234.256 184.697 234.896C184.105 235.52 183.809 236.424 183.809 237.608V245H181.073V231.776H183.809V233.288C184.257 232.744 184.825 232.32 185.513 232.016C186.201 231.712 186.937 231.56 187.721 231.56C188.777 231.56 189.721 231.784 190.553 232.232C191.385 232.68 192.025 233.328 192.473 234.176C192.873 233.376 193.497 232.744 194.345 232.28C195.193 231.8 196.105 231.56 197.081 231.56ZM65.5304 270L61.6904 263.328H59.6024V270H56.8664V253.32H62.6264C63.9064 253.32 64.9864 253.544 65.8664 253.992C66.7624 254.44 67.4264 255.04 67.8584 255.792C68.3064 256.544 68.5304 257.384 68.5304 258.312C68.5304 259.4 68.2104 260.392 67.5704 261.288C66.9464 262.168 65.9784 262.768 64.6664 263.088L68.7944 270H65.5304ZM59.6024 261.144H62.6264C63.6504 261.144 64.4184 260.888 64.9304 260.376C65.4584 259.864 65.7224 259.176 65.7224 258.312C65.7224 257.448 65.4664 256.776 64.9544 256.296C64.4424 255.8 63.6664 255.552 62.6264 255.552H59.6024V261.144ZM84.1505 263.064C84.1505 263.56 84.1185 264.008 84.0545 264.408H73.9505C74.0305 265.464 74.4225 266.312 75.1265 266.952C75.8305 267.592 76.6945 267.912 77.7185 267.912C79.1905 267.912 80.2305 267.296 80.8385 266.064H83.7905C83.3905 267.28 82.6625 268.28 81.6065 269.064C80.5665 269.832 79.2705 270.216 77.7185 270.216C76.4545 270.216 75.3185 269.936 74.3105 269.376C73.3185 268.8 72.5345 268 71.9585 266.976C71.3985 265.936 71.1185 264.736 71.1185 263.376C71.1185 262.016 71.3905 260.824 71.9345 259.8C72.4945 258.76 73.2705 257.96 74.2625 257.4C75.2705 256.84 76.4225 256.56 77.7185 256.56C78.9665 256.56 80.0785 256.832 81.0545 257.376C82.0305 257.92 82.7905 258.688 83.3345 259.68C83.8785 260.656 84.1505 261.784 84.1505 263.064ZM81.2945 262.2C81.2785 261.192 80.9185 260.384 80.2145 259.776C79.5105 259.168 78.6385 258.864 77.5985 258.864C76.6545 258.864 75.8465 259.168 75.1745 259.776C74.5025 260.368 74.1025 261.176 73.9745 262.2H81.2945ZM91.643 270.216C90.603 270.216 89.667 270.032 88.835 269.664C88.019 269.28 87.371 268.768 86.891 268.128C86.411 267.472 86.155 266.744 86.123 265.944H88.955C89.003 266.504 89.267 266.976 89.747 267.36C90.243 267.728 90.859 267.912 91.595 267.912C92.363 267.912 92.955 267.768 93.371 267.48C93.803 267.176 94.019 266.792 94.019 266.328C94.019 265.832 93.779 265.464 93.299 265.224C92.835 264.984 92.091 264.72 91.067 264.432C90.075 264.16 89.267 263.896 88.643 263.64C88.019 263.384 87.475 262.992 87.011 262.464C86.563 261.936 86.339 261.24 86.339 260.376C86.339 259.672 86.547 259.032 86.963 258.456C87.379 257.864 87.971 257.4 88.739 257.064C89.523 256.728 90.419 256.56 91.427 256.56C92.931 256.56 94.139 256.944 95.051 257.712C95.979 258.464 96.475 259.496 96.539 260.808H93.803C93.755 260.216 93.515 259.744 93.083 259.392C92.651 259.04 92.067 258.864 91.331 258.864C90.611 258.864 90.059 259 89.675 259.272C89.291 259.544 89.099 259.904 89.099 260.352C89.099 260.704 89.227 261 89.483 261.24C89.739 261.48 90.051 261.672 90.419 261.816C90.787 261.944 91.331 262.112 92.051 262.32C93.011 262.576 93.795 262.84 94.403 263.112C95.027 263.368 95.563 263.752 96.011 264.264C96.459 264.776 96.691 265.456 96.707 266.304C96.707 267.056 96.499 267.728 96.083 268.32C95.667 268.912 95.075 269.376 94.307 269.712C93.555 270.048 92.667 270.216 91.643 270.216ZM102.399 258.72C102.863 258.112 103.495 257.6 104.295 257.184C105.095 256.768 105.999 256.56 107.007 256.56C108.159 256.56 109.207 256.848 110.151 257.424C111.111 257.984 111.863 258.776 112.407 259.8C112.951 260.824 113.223 262 113.223 263.328C113.223 264.656 112.951 265.848 112.407 266.904C111.863 267.944 111.111 268.76 110.151 269.352C109.207 269.928 108.159 270.216 107.007 270.216C105.999 270.216 105.103 270.016 104.319 269.616C103.535 269.2 102.895 268.688 102.399 268.08V276.288H99.6633V256.776H102.399V258.72ZM110.439 263.328C110.439 262.416 110.247 261.632 109.863 260.976C109.495 260.304 108.999 259.8 108.375 259.464C107.767 259.112 107.111 258.936 106.407 258.936C105.719 258.936 105.063 259.112 104.439 259.464C103.831 259.816 103.335 260.328 102.951 261C102.583 261.672 102.399 262.464 102.399 263.376C102.399 264.288 102.583 265.088 102.951 265.776C103.335 266.448 103.831 266.96 104.439 267.312C105.063 267.664 105.719 267.84 106.407 267.84C107.111 267.84 107.767 267.664 108.375 267.312C108.999 266.944 109.495 266.416 109.863 265.728C110.247 265.04 110.439 264.24 110.439 263.328ZM121.665 270.216C120.417 270.216 119.289 269.936 118.281 269.376C117.273 268.8 116.481 268 115.905 266.976C115.329 265.936 115.041 264.736 115.041 263.376C115.041 262.032 115.337 260.84 115.929 259.8C116.521 258.76 117.329 257.96 118.353 257.4C119.377 256.84 120.521 256.56 121.785 256.56C123.049 256.56 124.193 256.84 125.217 257.4C126.241 257.96 127.049 258.76 127.641 259.8C128.233 260.84 128.529 262.032 128.529 263.376C128.529 264.72 128.225 265.912 127.617 266.952C127.009 267.992 126.177 268.8 125.121 269.376C124.081 269.936 122.929 270.216 121.665 270.216ZM121.665 267.84C122.369 267.84 123.025 267.672 123.633 267.336C124.257 267 124.761 266.496 125.145 265.824C125.529 265.152 125.721 264.336 125.721 263.376C125.721 262.416 125.537 261.608 125.169 260.952C124.801 260.28 124.313 259.776 123.705 259.44C123.097 259.104 122.441 258.936 121.737 258.936C121.033 258.936 120.377 259.104 119.769 259.44C119.177 259.776 118.705 260.28 118.353 260.952C118.001 261.608 117.825 262.416 117.825 263.376C117.825 264.8 118.185 265.904 118.905 266.688C119.641 267.456 120.561 267.84 121.665 267.84ZM137.906 256.56C138.946 256.56 139.874 256.776 140.69 257.208C141.522 257.64 142.17 258.28 142.634 259.128C143.098 259.976 143.33 261 143.33 262.2V270H140.618V262.608C140.618 261.424 140.322 260.52 139.73 259.896C139.138 259.256 138.33 258.936 137.306 258.936C136.282 258.936 135.466 259.256 134.858 259.896C134.266 260.52 133.97 261.424 133.97 262.608V270H131.234V256.776H133.97V258.288C134.418 257.744 134.986 257.32 135.674 257.016C136.378 256.712 137.122 256.56 137.906 256.56ZM151.62 270.216C150.58 270.216 149.644 270.032 148.812 269.664C147.996 269.28 147.348 268.768 146.868 268.128C146.388 267.472 146.132 266.744 146.1 265.944H148.932C148.98 266.504 149.244 266.976 149.724 267.36C150.22 267.728 150.836 267.912 151.572 267.912C152.34 267.912 152.932 267.768 153.348 267.48C153.78 267.176 153.996 266.792 153.996 266.328C153.996 265.832 153.756 265.464 153.276 265.224C152.812 264.984 152.068 264.72 151.044 264.432C150.052 264.16 149.244 263.896 148.62 263.64C147.996 263.384 147.452 262.992 146.988 262.464C146.54 261.936 146.316 261.24 146.316 260.376C146.316 259.672 146.524 259.032 146.94 258.456C147.356 257.864 147.948 257.4 148.716 257.064C149.5 256.728 150.396 256.56 151.404 256.56C152.908 256.56 154.116 256.944 155.028 257.712C155.956 258.464 156.452 259.496 156.516 260.808H153.78C153.732 260.216 153.492 259.744 153.06 259.392C152.628 259.04 152.044 258.864 151.308 258.864C150.588 258.864 150.036 259 149.652 259.272C149.268 259.544 149.076 259.904 149.076 260.352C149.076 260.704 149.204 261 149.46 261.24C149.716 261.48 150.028 261.672 150.396 261.816C150.764 261.944 151.308 262.112 152.028 262.32C152.988 262.576 153.772 262.84 154.38 263.112C155.004 263.368 155.54 263.752 155.988 264.264C156.436 264.776 156.668 265.456 156.684 266.304C156.684 267.056 156.476 267.728 156.06 268.32C155.644 268.912 155.052 269.376 154.284 269.712C153.532 270.048 152.644 270.216 151.62 270.216ZM161.032 255.024C160.536 255.024 160.12 254.856 159.784 254.52C159.448 254.184 159.28 253.768 159.28 253.272C159.28 252.776 159.448 252.36 159.784 252.024C160.12 251.688 160.536 251.52 161.032 251.52C161.512 251.52 161.92 251.688 162.256 252.024C162.592 252.36 162.76 252.776 162.76 253.272C162.76 253.768 162.592 254.184 162.256 254.52C161.92 254.856 161.512 255.024 161.032 255.024ZM162.376 256.776V270H159.64V256.776H162.376ZM171.08 267.552L174.824 256.776H177.728L172.688 270H169.424L164.408 256.776H167.336L171.08 267.552ZM181.188 255.024C180.692 255.024 180.276 254.856 179.94 254.52C179.604 254.184 179.436 253.768 179.436 253.272C179.436 252.776 179.604 252.36 179.94 252.024C180.276 251.688 180.692 251.52 181.188 251.52C181.668 251.52 182.076 251.688 182.412 252.024C182.748 252.36 182.916 252.776 182.916 253.272C182.916 253.768 182.748 254.184 182.412 254.52C182.076 254.856 181.668 255.024 181.188 255.024ZM182.532 256.776V270H179.796V256.776H182.532ZM185.212 263.328C185.212 262 185.484 260.824 186.028 259.8C186.588 258.776 187.34 257.984 188.284 257.424C189.244 256.848 190.308 256.56 191.476 256.56C192.34 256.56 193.188 256.752 194.02 257.136C194.868 257.504 195.54 258 196.036 258.624V252.24H198.796V270H196.036V268.008C195.588 268.648 194.964 269.176 194.164 269.592C193.38 270.008 192.476 270.216 191.452 270.216C190.3 270.216 189.244 269.928 188.284 269.352C187.34 268.76 186.588 267.944 186.028 266.904C185.484 265.848 185.212 264.656 185.212 263.328ZM196.036 263.376C196.036 262.464 195.844 261.672 195.46 261C195.092 260.328 194.604 259.816 193.996 259.464C193.388 259.112 192.732 258.936 192.028 258.936C191.324 258.936 190.668 259.112 190.06 259.464C189.452 259.8 188.956 260.304 188.572 260.976C188.204 261.632 188.02 262.416 188.02 263.328C188.02 264.24 188.204 265.04 188.572 265.728C188.956 266.416 189.452 266.944 190.06 267.312C190.684 267.664 191.34 267.84 192.028 267.84C192.732 267.84 193.388 267.664 193.996 267.312C194.604 266.96 195.092 266.448 195.46 265.776C195.844 265.088 196.036 264.288 196.036 263.376ZM201.478 263.328C201.478 262 201.75 260.824 202.294 259.8C202.854 258.776 203.606 257.984 204.55 257.424C205.51 256.848 206.566 256.56 207.718 256.56C208.758 256.56 209.662 256.768 210.43 257.184C211.214 257.584 211.838 258.088 212.302 258.696V256.776H215.062V270H212.302V268.032C211.838 268.656 211.206 269.176 210.406 269.592C209.606 270.008 208.694 270.216 207.67 270.216C206.534 270.216 205.494 269.928 204.55 269.352C203.606 268.76 202.854 267.944 202.294 266.904C201.75 265.848 201.478 264.656 201.478 263.328ZM212.302 263.376C212.302 262.464 212.11 261.672 211.726 261C211.358 260.328 210.87 259.816 210.262 259.464C209.654 259.112 208.998 258.936 208.294 258.936C207.59 258.936 206.934 259.112 206.326 259.464C205.718 259.8 205.222 260.304 204.838 260.976C204.47 261.632 204.286 262.416 204.286 263.328C204.286 264.24 204.47 265.04 204.838 265.728C205.222 266.416 205.718 266.944 206.326 267.312C206.95 267.664 207.606 267.84 208.294 267.84C208.998 267.84 209.654 267.664 210.262 267.312C210.87 266.96 211.358 266.448 211.726 265.776C212.11 265.088 212.302 264.288 212.302 263.376ZM217.743 263.328C217.743 262 218.015 260.824 218.559 259.8C219.119 258.776 219.871 257.984 220.815 257.424C221.775 256.848 222.839 256.56 224.007 256.56C224.871 256.56 225.719 256.752 226.551 257.136C227.399 257.504 228.071 258 228.567 258.624V252.24H231.327V270H228.567V268.008C228.119 268.648 227.495 269.176 226.695 269.592C225.911 270.008 225.007 270.216 223.983 270.216C222.831 270.216 221.775 269.928 220.815 269.352C219.871 268.76 219.119 267.944 218.559 266.904C218.015 265.848 217.743 264.656 217.743 263.328ZM228.567 263.376C228.567 262.464 228.375 261.672 227.991 261C227.623 260.328 227.135 259.816 226.527 259.464C225.919 259.112 225.263 258.936 224.559 258.936C223.855 258.936 223.199 259.112 222.591 259.464C221.983 259.8 221.487 260.304 221.103 260.976C220.735 261.632 220.551 262.416 220.551 263.328C220.551 264.24 220.735 265.04 221.103 265.728C221.487 266.416 221.983 266.944 222.591 267.312C223.215 267.664 223.871 267.84 224.559 267.84C225.263 267.84 225.919 267.664 226.527 267.312C227.135 266.96 227.623 266.448 227.991 265.776C228.375 265.088 228.567 264.288 228.567 263.376ZM247.041 263.064C247.041 263.56 247.009 264.008 246.945 264.408H236.841C236.921 265.464 237.313 266.312 238.017 266.952C238.721 267.592 239.585 267.912 240.609 267.912C242.081 267.912 243.121 267.296 243.729 266.064H246.681C246.281 267.28 245.553 268.28 244.497 269.064C243.457 269.832 242.161 270.216 240.609 270.216C239.345 270.216 238.209 269.936 237.201 269.376C236.209 268.8 235.425 268 234.849 266.976C234.289 265.936 234.009 264.736 234.009 263.376C234.009 262.016 234.281 260.824 234.825 259.8C235.385 258.76 236.161 257.96 237.153 257.4C238.161 256.84 239.313 256.56 240.609 256.56C241.857 256.56 242.969 256.832 243.945 257.376C244.921 257.92 245.681 258.688 246.225 259.68C246.769 260.656 247.041 261.784 247.041 263.064ZM244.185 262.2C244.169 261.192 243.809 260.384 243.105 259.776C242.401 259.168 241.529 258.864 240.489 258.864C239.545 258.864 238.737 259.168 238.065 259.776C237.393 260.368 236.993 261.176 236.865 262.2H244.185Z" fill="white"/>
</g>
<g clip-path="url(#clip2_0_1)">
<path style="mix-blend-mode:screen" d="M143.364 464.833C196.636 464.833 239.822 421.666 239.822 368.417C239.822 315.167 196.636 272 143.364 272C90.0922 272 46.9066 315.167 46.9066 368.417C46.9066 421.666 90.0922 464.833 143.364 464.833Z" fill="url(#paint7_radial_0_1)"/>
<path style="mix-blend-mode:screen" d="M225.577 401.395C246.943 380.038 246.943 345.412 225.577 324.056C204.212 302.699 169.571 302.699 148.205 324.056C126.84 345.412 126.84 380.038 148.205 401.395C169.571 422.751 204.212 422.751 225.577 401.395Z" fill="url(#paint8_radial_0_1)"/>
</g>
</g>
<defs>
<filter id="filter0_d_0_1" x="0" y="0" width="308" height="308" filterUnits="userSpaceOnUse" color-interpolation-filters="sRGB">
<feFlood flood-opacity="0" result="BackgroundImageFix"/>
<feColorMatrix in="SourceAlpha" type="matrix" values="0 0 0 0 0 0 0 0 0 0 0 0 0 0 0 0 0 0 127 0" result="hardAlpha"/>
<feOffset dy="4"/>
<feGaussianBlur stdDeviation="2"/>
<feComposite in2="hardAlpha" operator="out"/>
<feColorMatrix type="matrix" values="0 0 0 0 0 0 0 0 0 0 0 0 0 0 0 0 0 0 0.25 0"/>
<feBlend mode="normal" in2="BackgroundImageFix" result="effect1_dropShadow_0_1"/>
<feBlend mode="normal" in="SourceGraphic" in2="effect1_dropShadow_0_1" result="shape"/>
</filter>
<linearGradient id="paint0_linear_0_1" x1="24.25" y1="38.25" x2="352" y2="396.75" gradientUnits="userSpaceOnUse">
<stop/>
<stop offset="1" stop-color="#1C1C1C"/>
</linearGradient>
<linearGradient id="paint1_linear_0_1" x1="181.867" y1="83.1606" x2="178.815" y2="83.1606" gradientUnits="userSpaceOnUse">
<stop stop-color="#DA73ED"/>
<stop offset="0.64" stop-color="#AB42D6"/>
<stop offset="1" stop-color="#962DCC"/>
</linearGradient>
<linearGradient id="paint2_linear_0_1" x1="125.853" y1="135.085" x2="104.427" y2="135.085" gradientUnits="userSpaceOnUse">
<stop stop-color="#DA73ED"/>
<stop offset="0.44" stop-color="#AB42D6"/>
<stop offset="0.68" stop-color="#962DCC"/>
<stop offset="0.75" stop-color="#9A31CE"/>
<stop offset="0.83" stop-color="#A73FD4"/>
<stop offset="0.92" stop-color="#BD55DF"/>
<stop offset="1" stop-color="#DA73ED"/>
</linearGradient>
<radialGradient id="paint3_radial_0_1" cx="0" cy="0" r="1" gradientUnits="userSpaceOnUse" gradientTransform="translate(154.33 61.7949) scale(85.5141 85.2381)">
<stop stop-color="#DC3AF5"/>
<stop offset="0.05" stop-color="#B32FC7"/>
<stop offset="0.09" stop-color="#8C259C"/>
<stop offset="0.14" stop-color="#6A1C77"/>
<stop offset="0.2" stop-color="#4D1456"/>
<stop offset="0.25" stop-color="#350E3B"/>
<stop offset="0.32" stop-color="#210825"/>
<stop offset="0.4" stop-color="#120414"/>
<stop offset="0.49" stop-color="#070208"/>
<stop offset="0.63" stop-color="#010001"/>
<stop offset="1"/>
</radialGradient>
<radialGradient id="paint4_radial_0_1" cx="0" cy="0" r="1" gradientUnits="userSpaceOnUse" gradientTransform="translate(90.1928 126.565) scale(85.5141 85.2381)">
<stop stop-color="#DC3AF5"/>
<stop offset="0.05" stop-color="#B32FC7"/>
<stop offset="0.09" stop-color="#8C259C"/>
<stop offset="0.14" stop-color="#6A1C77"/>
<stop offset="0.2" stop-color="#4D1456"/>
<stop offset="0.25" stop-color="#350E3B"/>
<stop offset="0.32" stop-color="#210825"/>
<stop offset="0.4" stop-color="#120414"/>
<stop offset="0.49" stop-color="#070208"/>
<stop offset="0.63" stop-color="#010001"/>
<stop offset="1"/>
</radialGradient>
<radialGradient id="paint5_radial_0_1" cx="0" cy="0" r="1" gradientUnits="userSpaceOnUse" gradientTransform="translate(168.6 153.358) scale(85.5141 85.2381)">
<stop stop-color="#DC3AF5"/>
<stop offset="0.05" stop-color="#B32FC7"/>
<stop offset="0.09" stop-color="#8C259C"/>
<stop offset="0.14" stop-color="#6A1C77"/>
<stop offset="0.2" stop-color="#4D1456"/>
<stop offset="0.25" stop-color="#350E3B"/>
<stop offset="0.32" stop-color="#210825"/>
<stop offset="0.4" stop-color="#120414"/>
<stop offset="0.49" stop-color="#070208"/>
<stop offset="0.63" stop-color="#010001"/>
<stop offset="1"/>
</radialGradient>
<radialGradient id="paint6_radial_0_1" cx="0" cy="0" r="1" gradientUnits="userSpaceOnUse" gradientTransform="translate(246.063 114.102) scale(85.5141 85.2381)">
<stop stop-color="#F58E11"/>
<stop offset="0.05" stop-color="#C7740E"/>
<stop offset="0.09" stop-color="#9C5B0B"/>
<stop offset="0.14" stop-color="#774508"/>
<stop offset="0.2" stop-color="#563206"/>
<stop offset="0.25" stop-color="#3B2204"/>
<stop offset="0.32" stop-color="#251502"/>
<stop offset="0.4" stop-color="#140B01"/>
<stop offset="0.49" stop-color="#080500"/>
<stop offset="0.63" stop-color="#010100"/>
<stop offset="1"/>
</radialGradient>
<radialGradient id="paint7_radial_0_1" cx="0" cy="0" r="1" gradientUnits="userSpaceOnUse" gradientTransform="translate(143.364 368.417) scale(96.4577 96.4165)">
<stop stop-color="#FFEC3D"/>
<stop offset="0.09" stop-color="#E53DFF"/>
<stop offset="0.1" stop-color="#DC3AF5"/>
<stop offset="0.14" stop-color="#B32FC7"/>
<stop offset="0.18" stop-color="#8C259C"/>
<stop offset="0.22" stop-color="#6A1C77"/>
<stop offset="0.27" stop-color="#4D1456"/>
<stop offset="0.32" stop-color="#350E3B"/>
<stop offset="0.38" stop-color="#210825"/>
<stop offset="0.45" stop-color="#120414"/>
<stop offset="0.54" stop-color="#070208"/>
<stop offset="0.66" stop-color="#010001"/>
<stop offset="1"/>
</radialGradient>
<radialGradient id="paint8_radial_0_1" cx="0" cy="0" r="1" gradientUnits="userSpaceOnUse" gradientTransform="translate(186.902 362.738) scale(54.7102 54.6869)">
<stop stop-color="#FFEC3D"/>
<stop offset="0.09" stop-color="#E53DFF"/>
<stop offset="0.1" stop-color="#DC3AF5"/>
<stop offset="0.14" stop-color="#B32FC7"/>
<stop offset="0.18" stop-color="#8C259C"/>
<stop offset="0.22" stop-color="#6A1C77"/>
<stop offset="0.27" stop-color="#4D1456"/>
<stop offset="0.32" stop-color="#350E3B"/>
<stop offset="0.38" stop-color="#210825"/>
<stop offset="0.45" stop-color="#120414"/>
<stop offset="0.54" stop-color="#070208"/>
<stop offset="0.66" stop-color="#010001"/>
<stop offset="1"/>
</radialGradient>
<clipPath id="clip0_0_1">
<rect width="1440" height="1024" fill="white" transform="translate(-1001 -253)"/>
</clipPath>
<clipPath id="clip1_0_1">
<rect width="383" height="307" fill="white" transform="translate(-23 -37)"/>
</clipPath>
<clipPath id="clip2_0_1">
<rect width="259" height="360" fill="white" transform="translate(-7 288)"/>
</clipPath>
</defs>
</svg>
