<svg width="204" height="228" viewBox="0 0 204 228" fill="none" xmlns="http://www.w3.org/2000/svg">
<path d="M54.08 38.608V78.928C54.08 82.96 55.072 86.064 57.056 88.24C59.04 90.416 61.952 91.504 65.792 91.504C69.632 91.504 72.576 90.416 74.624 88.24C76.672 86.064 77.696 82.96 77.696 78.928V38.608H94.112V78.832C94.112 84.848 92.832 89.936 90.272 94.096C87.712 98.256 84.256 101.392 79.904 103.504C75.616 105.616 70.816 106.672 65.504 106.672C60.192 106.672 55.424 105.648 51.2 103.6C47.04 101.488 43.744 98.352 41.312 94.192C38.88 89.968 37.664 84.848 37.664 78.832V38.608H54.08ZM146.92 106L133.192 85.36L121.096 106H102.472L124.072 71.728L101.992 38.608H121.096L134.632 58.96L146.536 38.608H165.16L143.752 72.592L166.024 106H146.92Z" fill="#FDCBD7"/>
<path d="M54.08 122.608V162.928C54.08 166.96 55.072 170.064 57.056 172.24C59.04 174.416 61.952 175.504 65.792 175.504C69.632 175.504 72.576 174.416 74.624 172.24C76.672 170.064 77.696 166.96 77.696 162.928V122.608H94.112V162.832C94.112 168.848 92.832 173.936 90.272 178.096C87.712 182.256 84.256 185.392 79.904 187.504C75.616 189.616 70.816 190.672 65.504 190.672C60.192 190.672 55.424 189.648 51.2 187.6C47.04 185.488 43.744 182.352 41.312 178.192C38.88 173.968 37.664 168.848 37.664 162.832V122.608H54.08ZM122.056 122.608V190H105.64V122.608H122.056Z" fill="#D26AE9"/>
<g clip-path="url(#clip0_119_1201)">
<path style="mix-blend-mode:screen" d="M79.7151 133.213C84.6029 111.471 70.9399 89.8831 49.1978 84.9953C27.4558 80.1075 5.86801 93.7705 0.980184 115.513C-3.90764 137.255 9.75541 158.842 31.4975 163.73C53.2395 168.618 74.8273 154.955 79.7151 133.213Z" fill="url(#paint0_radial_119_1201)"/>
</g>
<g clip-path="url(#clip1_119_1201)">
<path style="mix-blend-mode:screen" d="M202.715 49.2129C207.603 27.4709 193.94 5.88309 172.198 0.995273C150.456 -3.89255 128.868 9.7705 123.98 31.5125C119.092 53.2546 132.755 74.8424 154.497 79.7302C176.24 84.618 197.827 70.955 202.715 49.2129Z" fill="url(#paint1_radial_119_1201)"/>
</g>
<g clip-path="url(#clip2_119_1201)">
<path style="mix-blend-mode:screen" d="M164.875 181.882C180.633 166.124 180.633 140.576 164.875 124.818C149.118 109.061 123.569 109.061 107.812 124.818C92.0541 140.576 92.0541 166.124 107.812 181.882C123.569 197.639 149.118 197.639 164.875 181.882Z" fill="url(#paint2_radial_119_1201)"/>
</g>
<path d="M139.248 151.32C141.024 151.32 142.576 151.664 143.904 152.352C145.248 153.024 146.28 154 147 155.28C147.736 156.544 148.104 158.024 148.104 159.72C148.104 161.416 147.736 162.888 147 164.136C146.28 165.384 145.248 166.344 143.904 167.016C142.576 167.672 141.024 168 139.248 168H133.8V151.32H139.248ZM139.248 165.768C141.2 165.768 142.696 165.24 143.736 164.184C144.776 163.128 145.296 161.64 145.296 159.72C145.296 157.784 144.776 156.272 143.736 155.184C142.696 154.096 141.2 153.552 139.248 153.552H136.536V165.768H139.248ZM162.936 161.064C162.936 161.56 162.904 162.008 162.84 162.408H152.736C152.816 163.464 153.208 164.312 153.912 164.952C154.616 165.592 155.48 165.912 156.504 165.912C157.976 165.912 159.016 165.296 159.624 164.064H162.576C162.176 165.28 161.448 166.28 160.392 167.064C159.352 167.832 158.056 168.216 156.504 168.216C155.24 168.216 154.104 167.936 153.096 167.376C152.104 166.8 151.32 166 150.744 164.976C150.184 163.936 149.904 162.736 149.904 161.376C149.904 160.016 150.176 158.824 150.72 157.8C151.28 156.76 152.056 155.96 153.048 155.4C154.056 154.84 155.208 154.56 156.504 154.56C157.752 154.56 158.864 154.832 159.84 155.376C160.816 155.92 161.576 156.688 162.12 157.68C162.664 158.656 162.936 159.784 162.936 161.064ZM160.08 160.2C160.064 159.192 159.704 158.384 159 157.776C158.296 157.168 157.424 156.864 156.384 156.864C155.44 156.864 154.632 157.168 153.96 157.776C153.288 158.368 152.888 159.176 152.76 160.2H160.08ZM138.6 190.216C137.56 190.216 136.624 190.032 135.792 189.664C134.976 189.28 134.328 188.768 133.848 188.128C133.368 187.472 133.112 186.744 133.08 185.944H135.912C135.96 186.504 136.224 186.976 136.704 187.36C137.2 187.728 137.816 187.912 138.552 187.912C139.32 187.912 139.912 187.768 140.328 187.48C140.76 187.176 140.976 186.792 140.976 186.328C140.976 185.832 140.736 185.464 140.256 185.224C139.792 184.984 139.048 184.72 138.024 184.432C137.032 184.16 136.224 183.896 135.6 183.64C134.976 183.384 134.432 182.992 133.968 182.464C133.52 181.936 133.296 181.24 133.296 180.376C133.296 179.672 133.504 179.032 133.92 178.456C134.336 177.864 134.928 177.4 135.696 177.064C136.48 176.728 137.376 176.56 138.384 176.56C139.888 176.56 141.096 176.944 142.008 177.712C142.936 178.464 143.432 179.496 143.496 180.808H140.76C140.712 180.216 140.472 179.744 140.04 179.392C139.608 179.04 139.024 178.864 138.288 178.864C137.568 178.864 137.016 179 136.632 179.272C136.248 179.544 136.056 179.904 136.056 180.352C136.056 180.704 136.184 181 136.44 181.24C136.696 181.48 137.008 181.672 137.376 181.816C137.744 181.944 138.288 182.112 139.008 182.32C139.968 182.576 140.752 182.84 141.36 183.112C141.984 183.368 142.52 183.752 142.968 184.264C143.416 184.776 143.648 185.456 143.664 186.304C143.664 187.056 143.456 187.728 143.04 188.32C142.624 188.912 142.032 189.376 141.264 189.712C140.512 190.048 139.624 190.216 138.6 190.216ZM148.012 175.024C147.516 175.024 147.1 174.856 146.764 174.52C146.428 174.184 146.26 173.768 146.26 173.272C146.26 172.776 146.428 172.36 146.764 172.024C147.1 171.688 147.516 171.52 148.012 171.52C148.492 171.52 148.9 171.688 149.236 172.024C149.572 172.36 149.74 172.776 149.74 173.272C149.74 173.768 149.572 174.184 149.236 174.52C148.9 174.856 148.492 175.024 148.012 175.024ZM149.356 176.776V190H146.62V176.776H149.356ZM158.276 176.56C159.3 176.56 160.204 176.768 160.988 177.184C161.788 177.584 162.412 178.088 162.86 178.696V176.776H165.62V190.216C165.62 191.432 165.364 192.512 164.852 193.456C164.34 194.416 163.596 195.168 162.62 195.712C161.66 196.256 160.508 196.528 159.164 196.528C157.372 196.528 155.884 196.104 154.7 195.256C153.516 194.424 152.844 193.288 152.684 191.848H155.396C155.604 192.536 156.044 193.088 156.716 193.504C157.404 193.936 158.22 194.152 159.164 194.152C160.268 194.152 161.156 193.816 161.828 193.144C162.516 192.472 162.86 191.496 162.86 190.216V188.008C162.396 188.632 161.764 189.16 160.964 189.592C160.18 190.008 159.284 190.216 158.276 190.216C157.124 190.216 156.068 189.928 155.108 189.352C154.164 188.76 153.412 187.944 152.852 186.904C152.308 185.848 152.036 184.656 152.036 183.328C152.036 182 152.308 180.824 152.852 179.8C153.412 178.776 154.164 177.984 155.108 177.424C156.068 176.848 157.124 176.56 158.276 176.56ZM162.86 183.376C162.86 182.464 162.668 181.672 162.284 181C161.916 180.328 161.428 179.816 160.82 179.464C160.212 179.112 159.556 178.936 158.852 178.936C158.148 178.936 157.492 179.112 156.884 179.464C156.276 179.8 155.78 180.304 155.396 180.976C155.028 181.632 154.844 182.416 154.844 183.328C154.844 184.24 155.028 185.04 155.396 185.728C155.78 186.416 156.276 186.944 156.884 187.312C157.508 187.664 158.164 187.84 158.852 187.84C159.556 187.84 160.212 187.664 160.82 187.312C161.428 186.96 161.916 186.448 162.284 185.776C162.668 185.088 162.86 184.288 162.86 183.376ZM175.886 176.56C176.926 176.56 177.854 176.776 178.67 177.208C179.502 177.64 180.15 178.28 180.614 179.128C181.078 179.976 181.31 181 181.31 182.2V190H178.598V182.608C178.598 181.424 178.302 180.52 177.71 179.896C177.118 179.256 176.31 178.936 175.286 178.936C174.262 178.936 173.446 179.256 172.838 179.896C172.246 180.52 171.95 181.424 171.95 182.608V190H169.214V176.776H171.95V178.288C172.398 177.744 172.966 177.32 173.654 177.016C174.358 176.712 175.102 176.56 175.886 176.56Z" fill="#FFD63F"/>
<defs>
<radialGradient id="paint0_radial_119_1201" cx="0" cy="0" r="1" gradientUnits="userSpaceOnUse" gradientTransform="translate(40.3481 124.35) scale(40.35)">
<stop stop-color="#DC3AF5"/>
<stop offset="0.05" stop-color="#B32FC7"/>
<stop offset="0.09" stop-color="#8C259C"/>
<stop offset="0.14" stop-color="#6A1C77"/>
<stop offset="0.2" stop-color="#4D1456"/>
<stop offset="0.25" stop-color="#350E3B"/>
<stop offset="0.32" stop-color="#210825"/>
<stop offset="0.4" stop-color="#120414"/>
<stop offset="0.49" stop-color="#070208"/>
<stop offset="0.63" stop-color="#010001"/>
<stop offset="1"/>
</radialGradient>
<radialGradient id="paint1_radial_119_1201" cx="0" cy="0" r="1" gradientUnits="userSpaceOnUse" gradientTransform="translate(163.348 40.3498) scale(40.35)">
<stop stop-color="#DC3AF5"/>
<stop offset="0.05" stop-color="#B32FC7"/>
<stop offset="0.09" stop-color="#8C259C"/>
<stop offset="0.14" stop-color="#6A1C77"/>
<stop offset="0.2" stop-color="#4D1456"/>
<stop offset="0.25" stop-color="#350E3B"/>
<stop offset="0.32" stop-color="#210825"/>
<stop offset="0.4" stop-color="#120414"/>
<stop offset="0.49" stop-color="#070208"/>
<stop offset="0.63" stop-color="#010001"/>
<stop offset="1"/>
</radialGradient>
<radialGradient id="paint2_radial_119_1201" cx="0" cy="0" r="1" gradientUnits="userSpaceOnUse" gradientTransform="translate(136.339 153.345) scale(40.35)">
<stop stop-color="#F58E11"/>
<stop offset="0.05" stop-color="#C7740E"/>
<stop offset="0.09" stop-color="#9C5B0B"/>
<stop offset="0.14" stop-color="#774508"/>
<stop offset="0.2" stop-color="#563206"/>
<stop offset="0.25" stop-color="#3B2204"/>
<stop offset="0.32" stop-color="#251502"/>
<stop offset="0.4" stop-color="#140B01"/>
<stop offset="0.49" stop-color="#080500"/>
<stop offset="0.63" stop-color="#010100"/>
<stop offset="1"/>
</radialGradient>
<clipPath id="clip0_119_1201">
<rect width="80.71" height="80.71" fill="white" transform="translate(0 84)"/>
</clipPath>
<clipPath id="clip1_119_1201">
<rect width="80.71" height="80.71" fill="white" transform="translate(123)"/>
</clipPath>
<clipPath id="clip2_119_1201">
<rect width="80.71" height="80.71" fill="white" transform="translate(96 113)"/>
</clipPath>
</defs>
</svg>
